<svg id="visual" viewBox="0 0 1920 1080" width="1920" height="1080" xmlns="http://www.w3.org/2000/svg" xmlns:xlink="http://www.w3.org/1999/xlink" version="1.1"><path d="M0 868L26.7 856.5C53.3 845 106.7 822 160 798.3C213.3 774.7 266.7 750.3 320 741.2C373.3 732 426.7 738 480 756.3C533.3 774.7 586.7 805.3 640 844C693.3 882.7 746.7 929.3 800 955C853.3 980.7 906.7 985.3 960 960C1013.3 934.7 1066.7 879.3 1120 857.2C1173.3 835 1226.7 846 1280 867.7C1333.3 889.3 1386.7 921.7 1440 904.5C1493.3 887.3 1546.7 820.7 1600 801.3C1653.3 782 1706.7 810 1760 812C1813.3 814 1866.7 790 1893.3 778L1920 766L1920 1081L1893.3 1081C1866.7 1081 1813.3 1081 1760 1081C1706.7 1081 1653.3 1081 1600 1081C1546.7 1081 1493.3 1081 1440 1081C1386.7 1081 1333.3 1081 1280 1081C1226.7 1081 1173.3 1081 1120 1081C1066.7 1081 1013.3 1081 960 1081C906.7 1081 853.3 1081 800 1081C746.7 1081 693.3 1081 640 1081C586.7 1081 533.3 1081 480 1081C426.7 1081 373.3 1081 320 1081C266.7 1081 213.3 1081 160 1081C106.7 1081 53.3 1081 26.7 1081L0 1081Z" fill="#462255" stroke-linecap="round" stroke-linejoin="miter"></path></svg>