<svg id="visual" viewBox="0 0 1920 1080" width="1920" height="1080" xmlns="http://www.w3.org/2000/svg" xmlns:xlink="http://www.w3.org/1999/xlink" version="1.1"><path d="M0 731L40 743.8C80 756.7 160 782.3 240 810.7C320 839 400 870 480 888.3C560 906.7 640 912.3 720 903.8C800 895.3 880 872.7 960 846.8C1040 821 1120 792 1200 789.7C1280 787.3 1360 811.7 1440 827.5C1520 843.3 1600 850.7 1680 832.3C1760 814 1840 770 1880 748L1920 726L1920 1081L1880 1081C1840 1081 1760 1081 1680 1081C1600 1081 1520 1081 1440 1081C1360 1081 1280 1081 1200 1081C1120 1081 1040 1081 960 1081C880 1081 800 1081 720 1081C640 1081 560 1081 480 1081C400 1081 320 1081 240 1081C160 1081 80 1081 40 1081L0 1081Z" fill="#462255" stroke-linecap="round" stroke-linejoin="miter"></path></svg>