<svg xmlns="http://www.w3.org/2000/svg" xmlns:xlink="http://www.w3.org/1999/xlink" width="1920" zoomAndPan="magnify" viewBox="0 0 1440 809.999993" height="1080" preserveAspectRatio="xMidYMid meet" version="1.0"><defs><clipPath id="c1b587d99f"><path d="M 1079 684 L 1165 684 L 1165 808 L 1079 808 Z M 1079 684 " clip-rule="nonzero"/></clipPath><clipPath id="ad91716e87"><path d="M 1110.070312 670.875 L 1170.695312 692.898438 L 1125.109375 818.375 L 1064.484375 796.351562 Z M 1110.070312 670.875 " clip-rule="nonzero"/></clipPath><clipPath id="21da868fe4"><path d="M 1110.070312 670.875 L 1170.695312 692.898438 L 1125.109375 818.375 L 1064.484375 796.351562 Z M 1110.070312 670.875 " clip-rule="nonzero"/></clipPath><clipPath id="f6a7dffd63"><path d="M 1130 711 L 1162 711 L 1162 728 L 1130 728 Z M 1130 711 " clip-rule="nonzero"/></clipPath><clipPath id="398df960e8"><path d="M 1110.070312 670.875 L 1170.695312 692.898438 L 1125.109375 818.375 L 1064.484375 796.351562 Z M 1110.070312 670.875 " clip-rule="nonzero"/></clipPath><clipPath id="aff87912af"><path d="M 1110.070312 670.875 L 1170.695312 692.898438 L 1125.109375 818.375 L 1064.484375 796.351562 Z M 1110.070312 670.875 " clip-rule="nonzero"/></clipPath><clipPath id="e53c5eaac1"><path d="M 1117 736 L 1150 736 L 1150 745 L 1117 745 Z M 1117 736 " clip-rule="nonzero"/></clipPath><clipPath id="8da90979e9"><path d="M 1110.070312 670.875 L 1170.695312 692.898438 L 1125.109375 818.375 L 1064.484375 796.351562 Z M 1110.070312 670.875 " clip-rule="nonzero"/></clipPath><clipPath id="d427a97e13"><path d="M 1110.070312 670.875 L 1170.695312 692.898438 L 1125.109375 818.375 L 1064.484375 796.351562 Z M 1110.070312 670.875 " clip-rule="nonzero"/></clipPath><clipPath id="17ca0e3c6c"><path d="M 1115 691 L 1122 691 L 1122 725 L 1115 725 Z M 1115 691 " clip-rule="nonzero"/></clipPath><clipPath id="d8dc7d05fa"><path d="M 1110.070312 670.875 L 1170.695312 692.898438 L 1125.109375 818.375 L 1064.484375 796.351562 Z M 1110.070312 670.875 " clip-rule="nonzero"/></clipPath><clipPath id="152a3ba0d3"><path d="M 1110.070312 670.875 L 1170.695312 692.898438 L 1125.109375 818.375 L 1064.484375 796.351562 Z M 1110.070312 670.875 " clip-rule="nonzero"/></clipPath><clipPath id="c48a9d8ff3"><path d="M 1109 759 L 1138 759 L 1138 767 L 1109 767 Z M 1109 759 " clip-rule="nonzero"/></clipPath><clipPath id="731c2f100e"><path d="M 1110.070312 670.875 L 1170.695312 692.898438 L 1125.109375 818.375 L 1064.484375 796.351562 Z M 1110.070312 670.875 " clip-rule="nonzero"/></clipPath><clipPath id="8e54a28cca"><path d="M 1110.070312 670.875 L 1170.695312 692.898438 L 1125.109375 818.375 L 1064.484375 796.351562 Z M 1110.070312 670.875 " clip-rule="nonzero"/></clipPath><clipPath id="7cb58427e2"><path d="M 1132 686 L 1147 686 L 1147 712 L 1132 712 Z M 1132 686 " clip-rule="nonzero"/></clipPath><clipPath id="6ddc33d264"><path d="M 1110.070312 670.875 L 1170.695312 692.898438 L 1125.109375 818.375 L 1064.484375 796.351562 Z M 1110.070312 670.875 " clip-rule="nonzero"/></clipPath><clipPath id="9707a6d798"><path d="M 1110.070312 670.875 L 1170.695312 692.898438 L 1125.109375 818.375 L 1064.484375 796.351562 Z M 1110.070312 670.875 " clip-rule="nonzero"/></clipPath><clipPath id="c91b224a08"><path d="M 1102 776 L 1129 776 L 1129 786 L 1102 786 Z M 1102 776 " clip-rule="nonzero"/></clipPath><clipPath id="13bd90ef4f"><path d="M 1110.070312 670.875 L 1170.695312 692.898438 L 1125.109375 818.375 L 1064.484375 796.351562 Z M 1110.070312 670.875 " clip-rule="nonzero"/></clipPath><clipPath id="c8db2c09fc"><path d="M 1110.070312 670.875 L 1170.695312 692.898438 L 1125.109375 818.375 L 1064.484375 796.351562 Z M 1110.070312 670.875 " clip-rule="nonzero"/></clipPath><clipPath id="b413381e83"><path d="M 1080 755 L 1095 755 L 1095 780 L 1080 780 Z M 1080 755 " clip-rule="nonzero"/></clipPath><clipPath id="7d58f54b3f"><path d="M 1110.070312 670.875 L 1170.695312 692.898438 L 1125.109375 818.375 L 1064.484375 796.351562 Z M 1110.070312 670.875 " clip-rule="nonzero"/></clipPath><clipPath id="56aa2d9d49"><path d="M 1110.070312 670.875 L 1170.695312 692.898438 L 1125.109375 818.375 L 1064.484375 796.351562 Z M 1110.070312 670.875 " clip-rule="nonzero"/></clipPath><clipPath id="5599623df5"><path d="M 1087 735 L 1096 735 L 1096 760 L 1087 760 Z M 1087 735 " clip-rule="nonzero"/></clipPath><clipPath id="5627c7ec30"><path d="M 1110.070312 670.875 L 1170.695312 692.898438 L 1125.109375 818.375 L 1064.484375 796.351562 Z M 1110.070312 670.875 " clip-rule="nonzero"/></clipPath><clipPath id="51e554e789"><path d="M 1110.070312 670.875 L 1170.695312 692.898438 L 1125.109375 818.375 L 1064.484375 796.351562 Z M 1110.070312 670.875 " clip-rule="nonzero"/></clipPath><clipPath id="eaef99eab2"><path d="M 1101 716 L 1106 716 L 1106 741 L 1101 741 Z M 1101 716 " clip-rule="nonzero"/></clipPath><clipPath id="41dd57a7c9"><path d="M 1110.070312 670.875 L 1170.695312 692.898438 L 1125.109375 818.375 L 1064.484375 796.351562 Z M 1110.070312 670.875 " clip-rule="nonzero"/></clipPath><clipPath id="9e72d53d9d"><path d="M 1110.070312 670.875 L 1170.695312 692.898438 L 1125.109375 818.375 L 1064.484375 796.351562 Z M 1110.070312 670.875 " clip-rule="nonzero"/></clipPath><clipPath id="a6b70a703d"><path d="M 1159 668 L 1252 668 L 1252 774 L 1159 774 Z M 1159 668 " clip-rule="nonzero"/></clipPath><clipPath id="ba12e51e82"><path d="M 1135.972656 699.726562 L 1182.59375 655.15625 L 1274.847656 751.652344 L 1228.226562 796.222656 Z M 1135.972656 699.726562 " clip-rule="nonzero"/></clipPath><clipPath id="9c2db9d8e5"><path d="M 1135.972656 699.726562 L 1182.59375 655.15625 L 1274.847656 751.652344 L 1228.226562 796.222656 Z M 1135.972656 699.726562 " clip-rule="nonzero"/></clipPath><clipPath id="2640c5c0aa"><path d="M 1194 671 L 1196 671 L 1196 707 L 1194 707 Z M 1194 671 " clip-rule="nonzero"/></clipPath><clipPath id="8e85d3d524"><path d="M 1135.972656 699.726562 L 1182.59375 655.15625 L 1274.847656 751.652344 L 1228.226562 796.222656 Z M 1135.972656 699.726562 " clip-rule="nonzero"/></clipPath><clipPath id="ac24881f14"><path d="M 1135.972656 699.726562 L 1182.59375 655.15625 L 1274.847656 751.652344 L 1228.226562 796.222656 Z M 1135.972656 699.726562 " clip-rule="nonzero"/></clipPath><clipPath id="4b33467b55"><path d="M 1205 693 L 1213 693 L 1213 726 L 1205 726 Z M 1205 693 " clip-rule="nonzero"/></clipPath><clipPath id="a2f3f29720"><path d="M 1135.972656 699.726562 L 1182.59375 655.15625 L 1274.847656 751.652344 L 1228.226562 796.222656 Z M 1135.972656 699.726562 " clip-rule="nonzero"/></clipPath><clipPath id="1e07b6786b"><path d="M 1135.972656 699.726562 L 1182.59375 655.15625 L 1274.847656 751.652344 L 1228.226562 796.222656 Z M 1135.972656 699.726562 " clip-rule="nonzero"/></clipPath><clipPath id="e9e0f24140"><path d="M 1159 698 L 1187 698 L 1187 719 L 1159 719 Z M 1159 698 " clip-rule="nonzero"/></clipPath><clipPath id="868a3028d7"><path d="M 1135.972656 699.726562 L 1182.59375 655.15625 L 1274.847656 751.652344 L 1228.226562 796.222656 Z M 1135.972656 699.726562 " clip-rule="nonzero"/></clipPath><clipPath id="870ede7a3d"><path d="M 1135.972656 699.726562 L 1182.59375 655.15625 L 1274.847656 751.652344 L 1228.226562 796.222656 Z M 1135.972656 699.726562 " clip-rule="nonzero"/></clipPath><clipPath id="139a295db6"><path d="M 1221 715 L 1229 715 L 1229 744 L 1221 744 Z M 1221 715 " clip-rule="nonzero"/></clipPath><clipPath id="cae2c3c91c"><path d="M 1135.972656 699.726562 L 1182.59375 655.15625 L 1274.847656 751.652344 L 1228.226562 796.222656 Z M 1135.972656 699.726562 " clip-rule="nonzero"/></clipPath><clipPath id="c8b3d4604a"><path d="M 1135.972656 699.726562 L 1182.59375 655.15625 L 1274.847656 751.652344 L 1228.226562 796.222656 Z M 1135.972656 699.726562 " clip-rule="nonzero"/></clipPath><clipPath id="6252a72780"><path d="M 1165 673 L 1183 673 L 1183 698 L 1165 698 Z M 1165 673 " clip-rule="nonzero"/></clipPath><clipPath id="903f3c22e2"><path d="M 1135.972656 699.726562 L 1182.59375 655.15625 L 1274.847656 751.652344 L 1228.226562 796.222656 Z M 1135.972656 699.726562 " clip-rule="nonzero"/></clipPath><clipPath id="5db94d3371"><path d="M 1135.972656 699.726562 L 1182.59375 655.15625 L 1274.847656 751.652344 L 1228.226562 796.222656 Z M 1135.972656 699.726562 " clip-rule="nonzero"/></clipPath><clipPath id="4292a60f0a"><path d="M 1234 730 L 1240 730 L 1240 758 L 1234 758 Z M 1234 730 " clip-rule="nonzero"/></clipPath><clipPath id="0789e14b7f"><path d="M 1135.972656 699.726562 L 1182.59375 655.15625 L 1274.847656 751.652344 L 1228.226562 796.222656 Z M 1135.972656 699.726562 " clip-rule="nonzero"/></clipPath><clipPath id="8b49ca3624"><path d="M 1135.972656 699.726562 L 1182.59375 655.15625 L 1274.847656 751.652344 L 1228.226562 796.222656 Z M 1135.972656 699.726562 " clip-rule="nonzero"/></clipPath><clipPath id="07dc2bf2cb"><path d="M 1198 761 L 1227 761 L 1227 765 L 1198 765 Z M 1198 761 " clip-rule="nonzero"/></clipPath><clipPath id="03f975710e"><path d="M 1135.972656 699.726562 L 1182.59375 655.15625 L 1274.847656 751.652344 L 1228.226562 796.222656 Z M 1135.972656 699.726562 " clip-rule="nonzero"/></clipPath><clipPath id="f8c675045e"><path d="M 1135.972656 699.726562 L 1182.59375 655.15625 L 1274.847656 751.652344 L 1228.226562 796.222656 Z M 1135.972656 699.726562 " clip-rule="nonzero"/></clipPath><clipPath id="51c3f8fcdd"><path d="M 1183 748 L 1210 748 L 1210 753 L 1183 753 Z M 1183 748 " clip-rule="nonzero"/></clipPath><clipPath id="ae47559dc2"><path d="M 1135.972656 699.726562 L 1182.59375 655.15625 L 1274.847656 751.652344 L 1228.226562 796.222656 Z M 1135.972656 699.726562 " clip-rule="nonzero"/></clipPath><clipPath id="3570c05e7d"><path d="M 1135.972656 699.726562 L 1182.59375 655.15625 L 1274.847656 751.652344 L 1228.226562 796.222656 Z M 1135.972656 699.726562 " clip-rule="nonzero"/></clipPath><clipPath id="9182b0a683"><path d="M 1172 727 L 1197 727 L 1197 736 L 1172 736 Z M 1172 727 " clip-rule="nonzero"/></clipPath><clipPath id="8292133893"><path d="M 1135.972656 699.726562 L 1182.59375 655.15625 L 1274.847656 751.652344 L 1228.226562 796.222656 Z M 1135.972656 699.726562 " clip-rule="nonzero"/></clipPath><clipPath id="1088d06ebb"><path d="M 1135.972656 699.726562 L 1182.59375 655.15625 L 1274.847656 751.652344 L 1228.226562 796.222656 Z M 1135.972656 699.726562 " clip-rule="nonzero"/></clipPath><clipPath id="d75c8386e4"><path d="M 1273 704 L 1293.414062 704 L 1293.414062 714.375 L 1273 714.375 Z M 1273 704 " clip-rule="nonzero"/></clipPath><clipPath id="657013396c"><path d="M 1270 670.875 L 1289 670.875 L 1289 712 L 1270 712 Z M 1270 670.875 " clip-rule="nonzero"/></clipPath><clipPath id="df32215e44"><path d="M 1063 756 L 1083.1875 756 L 1083.1875 766.25 L 1063 766.25 Z M 1063 756 " clip-rule="nonzero"/></clipPath><clipPath id="2a9cfc5d9e"><path d="M 1060 722.75 L 1079 722.75 L 1079 764 L 1060 764 Z M 1060 722.75 " clip-rule="nonzero"/></clipPath><clipPath id="04458b1993"><path d="M 1339 726 L 1358.804688 726 L 1358.804688 736.183594 L 1339 736.183594 Z M 1339 726 " clip-rule="nonzero"/></clipPath><clipPath id="977925a0b6"><path d="M 1336 692.683594 L 1354 692.683594 L 1354 734 L 1336 734 Z M 1336 692.683594 " clip-rule="nonzero"/></clipPath></defs><path fill="#361c37" d="M 1447.398438 718.007812 L 1384.640625 710.808594 C 1321.886719 703.445312 1196.371094 689.054688 1070.855469 739.761719 C 945.339844 790.46875 819.824219 906.613281 694.3125 953.136719 C 568.796875 999.660156 443.28125 976.902344 317.765625 936.738281 C 192.253906 896.570312 66.738281 839.003906 3.980469 810.386719 L -58.777344 781.601562 L -58.777344 1106.265625 L 3.980469 1106.265625 C 66.738281 1106.265625 192.253906 1106.265625 317.765625 1106.265625 C 443.28125 1106.265625 568.796875 1106.265625 694.3125 1106.265625 C 819.824219 1106.265625 945.339844 1106.265625 1070.855469 1106.265625 C 1196.371094 1106.265625 1321.886719 1106.265625 1384.640625 1106.265625 L 1447.398438 1106.265625 Z M 1447.398438 718.007812 " fill-opacity="1" fill-rule="nonzero"/><g clip-path="url(#c1b587d99f)"><g clip-path="url(#ad91716e87)"><g clip-path="url(#21da868fe4)"><path fill="#361c37" d="M 1101.367188 765.015625 C 1101.589844 764.863281 1101.71875 764.652344 1101.75 764.386719 C 1102.382812 762.449219 1103.09375 760.535156 1103.835938 758.640625 C 1104.683594 756.460938 1105.621094 754.328125 1106.625 752.214844 C 1106.894531 751.695312 1106.960938 751.15625 1106.816406 750.589844 C 1106.453125 749.09375 1106.132812 747.589844 1105.824219 746.089844 C 1105.472656 744.308594 1104.863281 742.621094 1104 741.023438 C 1103.363281 739.882812 1102.769531 738.726562 1102.09375 737.609375 C 1101.011719 735.75 1100.214844 733.777344 1099.707031 731.6875 C 1099.195312 729.597656 1098.992188 727.476562 1099.101562 725.328125 C 1099.230469 722.753906 1099.636719 720.222656 1100.316406 717.738281 C 1100.476562 717.085938 1100.65625 716.441406 1100.828125 715.796875 C 1100.886719 715.535156 1100.996094 715.292969 1101.152344 715.074219 C 1101.203125 715.003906 1101.265625 714.953125 1101.339844 714.914062 C 1101.417969 714.875 1101.496094 714.855469 1101.582031 714.859375 C 1101.667969 714.859375 1101.746094 714.882812 1101.820312 714.921875 C 1101.894531 714.964844 1101.957031 715.019531 1102.003906 715.089844 C 1102.105469 715.265625 1102.179688 715.449219 1102.226562 715.640625 C 1102.65625 717.429688 1103.339844 719.128906 1103.921875 720.878906 C 1104.105469 721.414062 1104.296875 721.964844 1104.449219 722.496094 C 1105.628906 726.195312 1106.164062 729.984375 1106.058594 733.867188 C 1106.015625 736.402344 1106.019531 738.9375 1105.992188 741.476562 C 1105.980469 742.570312 1106.117188 743.644531 1106.398438 744.703125 C 1106.761719 746.09375 1107.011719 747.507812 1107.324219 748.894531 C 1107.359375 749.226562 1107.445312 749.542969 1107.589844 749.84375 C 1107.757812 749.78125 1107.875 749.664062 1107.9375 749.492188 C 1109.964844 745.359375 1112.257812 741.378906 1114.8125 737.546875 C 1115.15625 737.003906 1115.367188 736.414062 1115.457031 735.777344 C 1115.703125 734.324219 1115.800781 732.859375 1115.75 731.386719 C 1115.652344 730.222656 1115.4375 729.078125 1115.109375 727.957031 C 1114.183594 724.535156 1113.511719 721.066406 1113.089844 717.546875 C 1112.703125 714.171875 1112.835938 710.8125 1113.488281 707.476562 C 1113.777344 705.832031 1114.179688 704.214844 1114.699219 702.625 C 1115.464844 700.550781 1116.4375 698.578125 1117.617188 696.707031 C 1118.609375 695.082031 1119.703125 693.527344 1120.898438 692.042969 C 1121.085938 691.808594 1121.285156 691.589844 1121.5 691.382812 C 1121.714844 691.117188 1121.984375 691.027344 1122.3125 691.117188 C 1122.648438 691.238281 1122.742188 691.511719 1122.773438 691.824219 C 1122.785156 691.890625 1122.792969 691.957031 1122.792969 692.023438 C 1122.875 694.125 1123.199219 696.207031 1123.347656 698.300781 C 1123.542969 700.632812 1123.554688 702.964844 1123.378906 705.300781 C 1123.226562 706.898438 1122.9375 708.46875 1122.503906 710.011719 C 1121.738281 712.960938 1120.703125 715.808594 1119.398438 718.5625 C 1118.296875 720.878906 1117.1875 723.203125 1116.246094 725.589844 C 1116.199219 725.71875 1116.15625 725.839844 1116.105469 725.96875 C 1115.84375 726.605469 1115.808594 727.25 1116.003906 727.910156 C 1116.417969 729.15625 1116.636719 730.433594 1116.660156 731.746094 C 1116.683594 732.414062 1116.65625 733.074219 1116.582031 733.738281 C 1116.5 734.019531 1116.507812 734.300781 1116.609375 734.578125 C 1116.878906 734.492188 1116.972656 734.25 1117.109375 734.042969 C 1118.886719 731.425781 1120.640625 728.78125 1122.433594 726.171875 C 1125.28125 722.046875 1127.875 717.773438 1130.351562 713.417969 C 1130.800781 712.625 1131.074219 711.773438 1131.175781 710.867188 C 1131.457031 708.234375 1132.027344 705.667969 1132.882812 703.160156 C 1133.378906 701.800781 1133.820312 700.375 1134.425781 699.039062 C 1135.808594 695.921875 1137.707031 693.160156 1140.117188 690.753906 C 1142.0625 688.816406 1144.085938 686.976562 1146.167969 685.246094 C 1146.40625 685.007812 1146.679688 684.820312 1146.992188 684.683594 C 1147.15625 684.621094 1147.316406 684.632812 1147.472656 684.71875 C 1147.625 684.804688 1147.722656 684.929688 1147.761719 685.101562 C 1147.816406 685.472656 1147.789062 685.835938 1147.675781 686.195312 C 1147.332031 687.480469 1147.019531 688.785156 1146.632812 690.058594 C 1146.066406 691.914062 1145.503906 693.765625 1144.878906 695.585938 C 1143.449219 699.71875 1141.402344 703.519531 1138.746094 706.992188 C 1137.183594 709.035156 1135.277344 710.6875 1133.035156 711.945312 C 1132.175781 712.421875 1131.511719 713.09375 1131.046875 713.964844 C 1128.246094 718.976562 1125.199219 723.835938 1121.898438 728.535156 C 1121.601562 728.914062 1121.347656 729.320312 1121.132812 729.753906 C 1121.199219 729.882812 1121.296875 729.917969 1121.425781 729.859375 C 1124.992188 728.957031 1128.328125 727.515625 1131.429688 725.542969 C 1133.054688 724.421875 1134.609375 723.210938 1136.097656 721.914062 C 1137.375 720.839844 1138.667969 719.765625 1140 718.789062 C 1144.832031 715.144531 1150.21875 712.757812 1156.160156 711.625 C 1158.421875 711.199219 1160.683594 710.78125 1162.949219 710.371094 C 1163.210938 710.3125 1163.476562 710.292969 1163.742188 710.304688 C 1163.941406 710.324219 1164.082031 710.429688 1164.160156 710.613281 C 1164.242188 710.796875 1164.21875 710.96875 1164.097656 711.128906 C 1163.957031 711.316406 1163.800781 711.488281 1163.632812 711.652344 C 1160.382812 714.695312 1156.890625 717.425781 1153.152344 719.84375 C 1151.542969 720.867188 1149.871094 721.769531 1148.136719 722.5625 C 1143.390625 724.753906 1138.453125 726.378906 1133.332031 727.433594 C 1132.285156 727.652344 1131.230469 727.8125 1130.167969 727.910156 C 1129.308594 727.992188 1128.480469 728.207031 1127.6875 728.550781 C 1125.492188 729.558594 1123.210938 730.300781 1120.84375 730.785156 C 1120.507812 730.832031 1120.238281 730.988281 1120.039062 731.265625 C 1116.835938 735.988281 1113.617188 740.695312 1110.863281 745.703125 C 1110.785156 745.921875 1110.636719 746.113281 1110.527344 746.351562 C 1110.417969 746.589844 1110.355469 746.597656 1110.449219 746.722656 C 1110.539062 746.847656 1110.742188 746.785156 1110.894531 746.746094 C 1112.957031 746.222656 1114.847656 745.332031 1116.566406 744.070312 C 1117.316406 743.507812 1118.058594 742.949219 1118.804688 742.378906 C 1121.21875 740.550781 1123.855469 739.136719 1126.714844 738.136719 C 1131.097656 736.53125 1135.613281 735.546875 1140.265625 735.191406 C 1141.867188 735.128906 1143.464844 735.171875 1145.0625 735.324219 C 1146.695312 735.433594 1148.320312 735.5625 1149.953125 735.683594 C 1150.042969 735.71875 1150.152344 735.671875 1150.253906 735.6875 C 1150.394531 735.675781 1150.519531 735.710938 1150.636719 735.785156 C 1150.75 735.863281 1150.832031 735.964844 1150.875 736.097656 C 1150.945312 736.351562 1150.878906 736.5625 1150.683594 736.734375 C 1150.519531 736.902344 1150.339844 737.050781 1150.144531 737.179688 C 1146.835938 739.199219 1143.640625 741.402344 1140.085938 742.976562 C 1137.234375 744.328125 1134.253906 745.300781 1131.15625 745.894531 C 1129.117188 746.285156 1127.0625 746.4375 1124.988281 746.351562 C 1123.621094 746.269531 1122.257812 746.128906 1120.898438 745.96875 C 1119.769531 745.828125 1118.644531 745.703125 1117.511719 745.660156 C 1116.972656 745.640625 1116.453125 745.738281 1115.957031 745.953125 C 1114.128906 746.765625 1112.230469 747.363281 1110.265625 747.734375 C 1109.867188 747.789062 1109.597656 748.007812 1109.460938 748.382812 C 1108.414062 750.574219 1107.34375 752.765625 1106.308594 754.941406 C 1104.769531 758.421875 1103.4375 761.980469 1102.304688 765.613281 C 1101.898438 766.882812 1101.492188 768.152344 1101.09375 769.394531 C 1101.292969 769.613281 1101.433594 769.476562 1101.5625 769.394531 C 1102.558594 768.765625 1103.613281 768.273438 1104.730469 767.910156 C 1107.082031 767.097656 1109.28125 765.988281 1111.332031 764.578125 C 1112.601562 763.714844 1113.882812 762.863281 1115.175781 762.035156 C 1117.179688 760.738281 1119.316406 759.71875 1121.589844 758.972656 C 1125.421875 757.738281 1129.308594 757.542969 1133.25 758.386719 C 1134.679688 758.683594 1136.070312 759.105469 1137.515625 759.492188 C 1137.816406 759.558594 1138.082031 759.691406 1138.316406 759.890625 C 1138.382812 759.945312 1138.4375 760.007812 1138.472656 760.085938 C 1138.511719 760.160156 1138.53125 760.242188 1138.53125 760.324219 C 1138.535156 760.410156 1138.515625 760.492188 1138.480469 760.570312 C 1138.445312 760.644531 1138.394531 760.710938 1138.332031 760.765625 C 1138.183594 760.902344 1138.019531 761.015625 1137.84375 761.113281 C 1136.132812 762.085938 1134.433594 763.078125 1132.703125 764.027344 C 1130.464844 765.25 1128.113281 766.175781 1125.644531 766.804688 C 1123.175781 767.433594 1120.664062 767.746094 1118.117188 767.742188 C 1115.03125 767.753906 1111.953125 767.753906 1108.910156 767.773438 C 1107.996094 767.738281 1107.121094 767.902344 1106.28125 768.257812 C 1105.617188 768.5625 1104.910156 768.777344 1104.214844 769.046875 C 1103.171875 769.445312 1102.1875 769.957031 1101.269531 770.589844 C 1100.8125 770.851562 1100.53125 771.242188 1100.425781 771.761719 C 1100.296875 772.414062 1100.097656 773.050781 1099.945312 773.707031 C 1099.097656 777.25 1098.355469 780.832031 1097.8125 784.410156 C 1097.679688 785.238281 1097.574219 786.0625 1097.457031 786.890625 C 1097.414062 787.007812 1097.359375 787.15625 1097.515625 787.257812 C 1097.671875 787.363281 1097.816406 787.253906 1097.953125 787.164062 C 1098.085938 787.074219 1098.277344 786.925781 1098.433594 786.808594 C 1098.59375 786.6875 1098.96875 786.398438 1099.257812 786.234375 C 1100.464844 785.507812 1101.554688 784.632812 1102.523438 783.609375 C 1103.890625 782.28125 1105.253906 780.949219 1106.71875 779.742188 C 1108.078125 778.601562 1109.542969 777.613281 1111.113281 776.785156 C 1112.535156 776.019531 1114.035156 775.472656 1115.617188 775.152344 C 1117.199219 774.832031 1118.792969 774.746094 1120.402344 774.898438 C 1122.023438 775.054688 1123.632812 775.402344 1125.238281 775.707031 C 1126.4375 775.980469 1127.648438 776.179688 1128.875 776.304688 C 1129.140625 776.332031 1129.402344 776.378906 1129.664062 776.4375 C 1129.925781 776.476562 1130.089844 776.625 1130.148438 776.882812 C 1130.167969 777.019531 1130.140625 777.148438 1130.066406 777.265625 C 1129.996094 777.382812 1129.894531 777.464844 1129.765625 777.515625 C 1129.589844 777.605469 1129.40625 777.683594 1129.214844 777.746094 C 1127.335938 778.359375 1125.542969 779.164062 1123.832031 780.148438 C 1122.636719 780.816406 1121.433594 781.472656 1120.21875 782.101562 C 1117.425781 783.515625 1114.480469 784.460938 1111.386719 784.933594 C 1109.183594 785.296875 1106.953125 785.472656 1104.726562 785.6875 L 1104.035156 785.753906 C 1101.621094 786.03125 1101.621094 786.03125 1099.578125 787.292969 C 1098.949219 787.679688 1098.34375 788.09375 1097.710938 788.460938 C 1097.320312 788.660156 1097.117188 788.976562 1097.101562 789.414062 C 1096.980469 790.679688 1096.816406 791.9375 1096.703125 793.203125 C 1096.46875 795.761719 1096.257812 798.316406 1096.21875 800.902344 C 1096.183594 802.335938 1096.191406 803.773438 1096.191406 805.210938 C 1096.183594 805.679688 1096.15625 806.144531 1096.117188 806.609375 C 1096.085938 806.773438 1096.03125 806.929688 1095.949219 807.074219 C 1095.859375 807.257812 1095.71875 807.320312 1095.523438 807.265625 C 1095.382812 807.21875 1095.304688 807.125 1095.28125 806.976562 C 1095.261719 806.878906 1095.257812 806.777344 1095.265625 806.679688 C 1095.410156 805.050781 1095.253906 803.453125 1095.292969 801.882812 C 1095.355469 799.59375 1095.488281 797.277344 1095.679688 794.980469 C 1095.933594 791.992188 1096.296875 789.042969 1096.679688 786.101562 C 1096.792969 785.308594 1096.90625 784.511719 1097.058594 783.726562 C 1097.175781 783.160156 1097.03125 782.671875 1096.628906 782.261719 C 1095.988281 781.527344 1095.265625 780.890625 1094.457031 780.347656 C 1093.171875 779.457031 1091.878906 778.5625 1090.609375 777.648438 C 1089.292969 776.671875 1088.042969 775.617188 1086.855469 774.488281 C 1084.617188 772.417969 1083.089844 769.914062 1082.273438 766.976562 C 1082.183594 766.660156 1082.066406 766.339844 1082 766.015625 C 1081.433594 763.097656 1080.59375 760.242188 1080.117188 757.3125 C 1080.03125 756.78125 1079.945312 756.257812 1079.867188 755.726562 C 1079.835938 755.53125 1079.832031 755.332031 1079.851562 755.136719 C 1079.863281 755.042969 1079.894531 754.957031 1079.949219 754.882812 C 1080.003906 754.804688 1080.074219 754.75 1080.160156 754.710938 C 1080.246094 754.671875 1080.332031 754.65625 1080.425781 754.664062 C 1080.519531 754.675781 1080.605469 754.707031 1080.679688 754.757812 C 1080.925781 754.941406 1081.128906 755.160156 1081.289062 755.417969 C 1081.933594 756.277344 1082.570312 757.132812 1083.183594 758.003906 C 1084.457031 759.765625 1085.796875 761.46875 1087.210938 763.117188 C 1088.085938 764.128906 1088.871094 765.207031 1089.648438 766.3125 C 1090.417969 767.371094 1091.03125 768.515625 1091.484375 769.746094 C 1091.808594 770.632812 1092.117188 771.515625 1092.4375 772.402344 C 1093.136719 774.3125 1093.835938 776.222656 1094.554688 778.132812 C 1094.890625 779.164062 1095.476562 780.027344 1096.308594 780.726562 C 1096.503906 780.90625 1096.691406 781.097656 1096.867188 781.300781 C 1096.984375 781.40625 1097.050781 781.605469 1097.25 781.570312 C 1097.445312 781.535156 1097.433594 781.320312 1097.453125 781.175781 C 1097.679688 780.0625 1097.894531 778.945312 1098.113281 777.832031 C 1098.535156 775.675781 1099.066406 773.554688 1099.675781 771.414062 C 1100.105469 769.765625 1100.554688 768.125 1101.085938 766.53125 C 1101.203125 766.253906 1101.15625 766.011719 1100.945312 765.796875 C 1100.40625 765.199219 1099.8125 764.664062 1099.164062 764.191406 C 1097.5 762.960938 1095.90625 761.644531 1094.378906 760.246094 C 1092.996094 758.984375 1091.714844 757.621094 1090.542969 756.160156 C 1089.1875 754.523438 1088.125 752.714844 1087.359375 750.730469 C 1086.59375 748.746094 1086.164062 746.691406 1086.070312 744.570312 C 1085.933594 742.0625 1086.070312 739.566406 1086.476562 737.089844 C 1086.570312 736.53125 1086.652344 735.976562 1086.746094 735.417969 C 1086.773438 735.105469 1086.875 734.824219 1087.050781 734.574219 C 1087.148438 734.46875 1087.261719 734.414062 1087.402344 734.40625 C 1087.542969 734.394531 1087.664062 734.4375 1087.769531 734.523438 C 1087.96875 734.707031 1088.121094 734.921875 1088.21875 735.175781 C 1089.167969 737.019531 1090.203125 738.8125 1091.289062 740.578125 C 1093.21875 743.753906 1094.496094 747.171875 1095.117188 750.835938 C 1095.535156 753.167969 1095.875 755.511719 1096.277344 757.84375 C 1096.421875 759.011719 1096.734375 760.132812 1097.21875 761.207031 C 1097.375 761.542969 1097.59375 761.835938 1097.875 762.078125 C 1099.113281 762.96875 1100.277344 763.949219 1101.367188 765.015625 Z M 1101.367188 765.015625 " fill-opacity="1" fill-rule="nonzero"/></g></g></g><g clip-path="url(#f6a7dffd63)"><g clip-path="url(#398df960e8)"><g clip-path="url(#aff87912af)"><path fill="#361c37" d="M 1161.535156 711.738281 C 1161.519531 711.785156 1161.488281 711.867188 1161.480469 711.894531 C 1161.214844 712.03125 1160.941406 712.15625 1160.664062 712.269531 C 1157.191406 713.648438 1153.78125 715.160156 1150.351562 716.65625 C 1147.867188 717.804688 1145.472656 719.121094 1143.171875 720.601562 C 1140.808594 722.054688 1138.496094 723.527344 1136.003906 724.808594 C 1134.453125 725.589844 1132.863281 726.273438 1131.234375 726.867188 C 1130.984375 726.960938 1130.730469 727.035156 1130.46875 727.089844 C 1130.367188 727.085938 1130.289062 727.046875 1130.230469 726.964844 C 1130.203125 726.917969 1130.199219 726.871094 1130.21875 726.824219 C 1130.234375 726.777344 1130.265625 726.742188 1130.316406 726.726562 C 1130.40625 726.683594 1130.496094 726.644531 1130.59375 726.617188 C 1133.675781 725.496094 1136.613281 724.074219 1139.40625 722.355469 C 1141.535156 721.074219 1143.675781 719.773438 1145.824219 718.453125 C 1147.429688 717.5 1149.09375 716.65625 1150.816406 715.921875 C 1154.003906 714.546875 1157.175781 713.140625 1160.394531 711.863281 C 1160.691406 711.695312 1161.007812 711.59375 1161.34375 711.566406 C 1161.453125 711.570312 1161.519531 711.628906 1161.535156 711.738281 Z M 1161.535156 711.738281 " fill-opacity="1" fill-rule="nonzero"/></g></g></g><g clip-path="url(#e53c5eaac1)"><g clip-path="url(#8da90979e9)"><g clip-path="url(#d427a97e13)"><path fill="#361c37" d="M 1149.261719 736.359375 C 1149.1875 736.417969 1149.128906 736.511719 1149.046875 736.535156 L 1148.074219 736.765625 C 1142.746094 738.121094 1137.355469 739.15625 1131.96875 740.242188 C 1127.292969 741.234375 1122.746094 742.632812 1118.324219 744.4375 C 1118.09375 744.574219 1117.839844 744.648438 1117.574219 744.667969 C 1117.503906 744.65625 1117.457031 744.621094 1117.425781 744.558594 C 1117.417969 744.492188 1117.4375 744.433594 1117.488281 744.390625 C 1117.558594 744.316406 1117.640625 744.261719 1117.734375 744.222656 C 1118.589844 743.863281 1119.441406 743.472656 1120.316406 743.160156 C 1124.535156 741.578125 1128.851562 740.347656 1133.269531 739.460938 C 1136.96875 738.753906 1140.664062 738.042969 1144.320312 737.160156 L 1148.5 736.148438 C 1148.726562 736.058594 1148.949219 736.058594 1149.175781 736.148438 C 1149.203125 736.191406 1149.230469 736.277344 1149.261719 736.359375 Z M 1149.261719 736.359375 " fill-opacity="1" fill-rule="nonzero"/></g></g></g><g clip-path="url(#17ca0e3c6c)"><g clip-path="url(#d8dc7d05fa)"><g clip-path="url(#152a3ba0d3)"><path fill="#361c37" d="M 1121.578125 692.273438 C 1120.738281 694.710938 1120.136719 697.203125 1119.777344 699.753906 C 1119.296875 702.515625 1118.796875 705.269531 1118.472656 708.054688 C 1118.335938 709.144531 1118.136719 710.246094 1117.957031 711.320312 C 1117.25 715.421875 1116.542969 719.53125 1115.828125 723.640625 C 1115.726562 724.214844 1115.503906 724.535156 1115.414062 724.421875 C 1115.144531 724.171875 1115.269531 723.863281 1115.320312 723.574219 C 1115.722656 721.347656 1116.167969 719.121094 1116.535156 716.882812 C 1117.152344 713.066406 1117.816406 709.257812 1118.382812 705.433594 C 1118.6875 703.234375 1119.113281 701.023438 1119.488281 698.828125 C 1119.773438 697.144531 1120.140625 695.480469 1120.59375 693.835938 C 1120.753906 693.253906 1120.960938 692.691406 1121.210938 692.140625 C 1121.257812 692.011719 1121.371094 691.914062 1121.515625 691.960938 C 1121.660156 692.003906 1121.609375 692.148438 1121.578125 692.273438 Z M 1121.578125 692.273438 " fill-opacity="1" fill-rule="nonzero"/></g></g></g><g clip-path="url(#c48a9d8ff3)"><g clip-path="url(#731c2f100e)"><g clip-path="url(#8e54a28cca)"><path fill="#361c37" d="M 1109.140625 766.816406 C 1109.140625 766.816406 1109.09375 766.800781 1109.085938 766.796875 C 1109.078125 766.792969 1109.097656 766.640625 1109.144531 766.632812 C 1109.480469 766.476562 1109.8125 766.328125 1110.148438 766.1875 C 1111.804688 765.488281 1113.457031 764.773438 1115.128906 764.097656 C 1119.21875 762.492188 1123.457031 761.488281 1127.832031 761.082031 C 1130.777344 760.78125 1133.734375 760.546875 1136.652344 759.984375 C 1136.78125 759.972656 1136.910156 759.984375 1137.035156 760.027344 C 1137.085938 760.042969 1137.136719 760.117188 1137.148438 760.167969 C 1137.160156 760.21875 1137.09375 760.316406 1137.085938 760.335938 C 1136.832031 760.414062 1136.578125 760.484375 1136.320312 760.535156 C 1134.226562 760.914062 1132.101562 761.136719 1129.996094 761.320312 C 1127.671875 761.546875 1125.359375 761.785156 1123.070312 762.230469 C 1120.707031 762.683594 1118.398438 763.328125 1116.140625 764.167969 C 1114.175781 764.917969 1112.230469 765.695312 1110.304688 766.539062 C 1110.0625 766.652344 1109.816406 766.753906 1109.570312 766.839844 C 1109.421875 766.921875 1109.277344 766.914062 1109.140625 766.816406 Z M 1109.140625 766.816406 " fill-opacity="1" fill-rule="nonzero"/></g></g></g><g clip-path="url(#7cb58427e2)"><g clip-path="url(#6ddc33d264)"><g clip-path="url(#9707a6d798)"><path fill="#361c37" d="M 1145.085938 687.910156 C 1144.285156 688.761719 1143.566406 689.675781 1142.933594 690.65625 C 1140.835938 693.757812 1139.066406 697.035156 1137.625 700.492188 C 1136.578125 702.976562 1135.574219 705.488281 1134.371094 707.90625 C 1133.894531 708.859375 1133.386719 709.792969 1132.863281 710.726562 C 1132.769531 710.972656 1132.613281 711.171875 1132.402344 711.328125 C 1132.339844 711.355469 1132.28125 711.355469 1132.21875 711.324219 C 1132.171875 711.308594 1132.121094 711.210938 1132.136719 711.171875 C 1132.164062 711.039062 1132.210938 710.914062 1132.273438 710.796875 C 1133.683594 708.300781 1134.925781 705.71875 1136 703.0625 C 1137.140625 700.394531 1138.1875 697.761719 1139.566406 695.242188 C 1141.164062 692.1875 1143.097656 689.363281 1145.363281 686.765625 C 1145.554688 686.535156 1145.761719 686.320312 1145.984375 686.121094 C 1146.179688 685.96875 1146.367188 686.019531 1146.441406 686.285156 C 1145.925781 686.773438 1145.472656 687.316406 1145.085938 687.910156 Z M 1145.085938 687.910156 " fill-opacity="1" fill-rule="nonzero"/></g></g></g><g clip-path="url(#c91b224a08)"><g clip-path="url(#13bd90ef4f)"><g clip-path="url(#c8db2c09fc)"><path fill="#361c37" d="M 1128.421875 777.035156 C 1128.355469 777.085938 1128.28125 777.125 1128.203125 777.152344 C 1127.609375 777.238281 1127.011719 777.296875 1126.414062 777.390625 C 1123.75 777.785156 1121.078125 778.171875 1118.417969 778.597656 C 1114.441406 779.285156 1110.644531 780.519531 1107.023438 782.308594 C 1105.527344 782.984375 1104.125 783.820312 1102.816406 784.816406 C 1102.71875 784.90625 1102.609375 784.976562 1102.492188 785.039062 C 1102.394531 785.078125 1102.300781 785.074219 1102.207031 785.027344 C 1102.078125 784.917969 1102.160156 784.777344 1102.269531 784.695312 C 1103.296875 783.835938 1104.40625 783.097656 1105.597656 782.484375 C 1109.886719 780.230469 1114.429688 778.734375 1119.21875 778.003906 C 1121.890625 777.625 1124.558594 777.199219 1127.230469 776.816406 C 1127.589844 776.707031 1127.949219 776.695312 1128.316406 776.777344 C 1128.433594 776.796875 1128.476562 776.890625 1128.421875 777.035156 Z M 1128.421875 777.035156 " fill-opacity="1" fill-rule="nonzero"/></g></g></g><g clip-path="url(#b413381e83)"><g clip-path="url(#7d58f54b3f)"><g clip-path="url(#56aa2d9d49)"><path fill="#361c37" d="M 1080.582031 755.753906 C 1080.644531 755.777344 1080.726562 755.808594 1080.757812 755.820312 C 1080.832031 755.933594 1080.890625 756.050781 1080.9375 756.175781 C 1083.777344 763.578125 1087.605469 770.429688 1092.421875 776.726562 C 1093.011719 777.496094 1093.617188 778.253906 1094.207031 779.015625 C 1094.328125 779.175781 1094.4375 779.339844 1094.535156 779.511719 C 1094.578125 779.527344 1094.539062 779.652344 1094.476562 779.683594 C 1094.394531 779.777344 1094.300781 779.789062 1094.203125 779.714844 C 1094.121094 779.660156 1094.050781 779.59375 1093.988281 779.515625 C 1093.792969 779.289062 1093.601562 779.058594 1093.417969 778.820312 C 1090.214844 774.871094 1087.40625 770.65625 1084.992188 766.179688 C 1083.574219 763.488281 1082.253906 760.753906 1081.097656 757.945312 C 1080.839844 757.335938 1080.625 756.695312 1080.40625 756.070312 C 1080.378906 756 1080.382812 755.933594 1080.417969 755.871094 C 1080.457031 755.804688 1080.507812 755.769531 1080.582031 755.753906 Z M 1080.582031 755.753906 " fill-opacity="1" fill-rule="nonzero"/></g></g></g><g clip-path="url(#5599623df5)"><g clip-path="url(#5627c7ec30)"><g clip-path="url(#51e554e789)"><path fill="#361c37" d="M 1095.476562 759.625 C 1095.367188 759.800781 1095.261719 759.808594 1095.171875 759.761719 C 1094.917969 759.609375 1094.867188 759.335938 1094.769531 759.089844 C 1094.222656 757.773438 1093.675781 756.449219 1093.128906 755.121094 C 1092.089844 752.59375 1091 750.085938 1090.085938 747.507812 C 1088.761719 743.957031 1087.785156 740.3125 1087.15625 736.574219 C 1087.074219 736.316406 1087.054688 736.050781 1087.097656 735.78125 C 1087.125 735.722656 1087.164062 735.671875 1087.222656 735.636719 C 1087.351562 735.566406 1087.410156 735.703125 1087.445312 735.761719 C 1087.503906 735.953125 1087.546875 736.144531 1087.574219 736.339844 C 1088.425781 741.085938 1089.777344 745.6875 1091.628906 750.140625 C 1092.847656 753.140625 1094.078125 756.113281 1095.304688 759.101562 C 1095.394531 759.296875 1095.515625 759.472656 1095.476562 759.625 Z M 1095.476562 759.625 " fill-opacity="1" fill-rule="nonzero"/></g></g></g><g clip-path="url(#eaef99eab2)"><g clip-path="url(#41dd57a7c9)"><g clip-path="url(#9e72d53d9d)"><path fill="#361c37" d="M 1101.316406 716.175781 C 1101.273438 716.296875 1101.292969 716.234375 1101.316406 716.175781 C 1101.339844 716.113281 1101.339844 716.105469 1101.390625 716.125 C 1101.449219 716.132812 1101.507812 716.15625 1101.558594 716.183594 C 1101.75 716.339844 1101.683594 716.546875 1101.679688 716.746094 C 1101.632812 718.378906 1101.679688 720.011719 1101.78125 721.640625 C 1101.953125 725.21875 1102.46875 728.746094 1103.328125 732.21875 C 1104.003906 734.730469 1104.6875 737.242188 1105.355469 739.75 C 1105.414062 739.972656 1105.546875 740.191406 1105.453125 740.433594 C 1105.433594 740.496094 1105.394531 740.546875 1105.335938 740.582031 C 1105.289062 740.609375 1105.242188 740.613281 1105.195312 740.59375 C 1105.144531 740.574219 1105.109375 740.542969 1105.089844 740.492188 C 1105.011719 740.308594 1104.949219 740.117188 1104.898438 739.921875 C 1104.152344 737.125 1103.363281 734.328125 1102.652344 731.519531 C 1101.96875 728.589844 1101.539062 725.625 1101.363281 722.625 C 1101.21875 720.894531 1101.171875 719.160156 1101.222656 717.425781 C 1101.152344 717 1101.179688 716.585938 1101.316406 716.175781 Z M 1101.316406 716.175781 " fill-opacity="1" fill-rule="nonzero"/></g></g></g><g clip-path="url(#a6b70a703d)"><g clip-path="url(#ba12e51e82)"><g clip-path="url(#9c2db9d8e5)"><path fill="#361c37" d="M 1216.496094 749.273438 C 1216.457031 749.003906 1216.324219 748.796875 1216.097656 748.648438 C 1214.644531 747.222656 1213.246094 745.738281 1211.875 744.230469 C 1210.296875 742.507812 1208.800781 740.722656 1207.351562 738.882812 C 1207.007812 738.410156 1206.550781 738.113281 1205.980469 737.988281 C 1204.476562 737.652344 1202.988281 737.273438 1201.507812 736.886719 C 1199.753906 736.414062 1197.96875 736.207031 1196.15625 736.273438 C 1194.851562 736.335938 1193.550781 736.359375 1192.253906 736.46875 C 1190.105469 736.613281 1187.984375 736.453125 1185.882812 735.984375 C 1183.785156 735.511719 1181.796875 734.753906 1179.917969 733.707031 C 1177.667969 732.445312 1175.578125 730.960938 1173.652344 729.25 C 1173.140625 728.816406 1172.640625 728.371094 1172.140625 727.929688 C 1171.929688 727.761719 1171.761719 727.558594 1171.636719 727.320312 C 1171.597656 727.246094 1171.574219 727.164062 1171.574219 727.078125 C 1171.574219 726.996094 1171.59375 726.914062 1171.632812 726.839844 C 1171.671875 726.761719 1171.726562 726.703125 1171.796875 726.652344 C 1171.867188 726.605469 1171.941406 726.574219 1172.027344 726.566406 C 1172.226562 726.550781 1172.425781 726.566406 1172.621094 726.609375 C 1174.414062 727.019531 1176.238281 727.15625 1178.066406 727.414062 C 1178.628906 727.488281 1179.207031 727.554688 1179.75 727.65625 C 1183.589844 728.242188 1187.222656 729.441406 1190.65625 731.253906 C 1192.90625 732.417969 1195.179688 733.539062 1197.445312 734.691406 C 1198.421875 735.183594 1199.445312 735.539062 1200.519531 735.757812 C 1201.925781 736.046875 1203.304688 736.449219 1204.683594 736.78125 C 1204.996094 736.902344 1205.320312 736.960938 1205.652344 736.96875 C 1205.675781 736.789062 1205.621094 736.632812 1205.496094 736.5 C 1202.6875 732.847656 1200.136719 729.027344 1197.835938 725.039062 C 1197.5 724.492188 1197.066406 724.039062 1196.535156 723.679688 C 1195.339844 722.8125 1194.074219 722.074219 1192.730469 721.46875 C 1191.640625 721.039062 1190.523438 720.722656 1189.371094 720.523438 C 1185.894531 719.835938 1182.484375 718.898438 1179.144531 717.71875 C 1175.945312 716.566406 1172.996094 714.957031 1170.296875 712.894531 C 1168.949219 711.90625 1167.679688 710.828125 1166.484375 709.660156 C 1164.964844 708.050781 1163.625 706.304688 1162.472656 704.417969 C 1161.457031 702.804688 1160.546875 701.136719 1159.75 699.410156 C 1159.621094 699.136719 1159.515625 698.859375 1159.425781 698.578125 C 1159.28125 698.269531 1159.320312 697.984375 1159.546875 697.730469 C 1159.800781 697.484375 1160.085938 697.523438 1160.382812 697.628906 C 1160.445312 697.648438 1160.507812 697.671875 1160.570312 697.703125 C 1162.492188 698.558594 1164.5 699.191406 1166.445312 699.988281 C 1168.621094 700.847656 1170.714844 701.871094 1172.730469 703.066406 C 1174.09375 703.90625 1175.375 704.863281 1176.566406 705.9375 C 1178.871094 707.929688 1180.964844 710.121094 1182.851562 712.511719 C 1184.441406 714.527344 1186.035156 716.550781 1187.753906 718.453125 C 1187.847656 718.554688 1187.9375 718.648438 1188.03125 718.746094 C 1188.484375 719.265625 1189.046875 719.585938 1189.726562 719.699219 C 1191.027344 719.882812 1192.269531 720.253906 1193.457031 720.8125 C 1194.0625 721.089844 1194.644531 721.40625 1195.207031 721.765625 C 1195.421875 721.964844 1195.675781 722.082031 1195.972656 722.117188 C 1196.011719 721.835938 1195.839844 721.640625 1195.714844 721.429688 C 1194.152344 718.675781 1192.5625 715.929688 1191.019531 713.164062 C 1188.585938 708.78125 1185.902344 704.566406 1183.097656 700.414062 C 1182.585938 699.660156 1181.945312 699.035156 1181.179688 698.542969 C 1178.945312 697.125 1176.894531 695.472656 1175.027344 693.597656 C 1174.027344 692.550781 1172.941406 691.523438 1172.015625 690.382812 C 1169.835938 687.765625 1168.203125 684.839844 1167.113281 681.609375 C 1166.238281 679.007812 1165.488281 676.378906 1164.863281 673.746094 C 1164.753906 673.425781 1164.707031 673.097656 1164.722656 672.757812 C 1164.742188 672.582031 1164.820312 672.445312 1164.964844 672.34375 C 1165.109375 672.242188 1165.269531 672.210938 1165.4375 672.25 C 1165.796875 672.367188 1166.109375 672.554688 1166.378906 672.816406 C 1167.378906 673.695312 1168.410156 674.550781 1169.382812 675.464844 C 1170.789062 676.792969 1172.199219 678.117188 1173.558594 679.484375 C 1176.625 682.601562 1179.128906 686.117188 1181.0625 690.039062 C 1182.199219 692.347656 1182.835938 694.785156 1182.96875 697.355469 C 1183.015625 698.339844 1183.324219 699.230469 1183.894531 700.035156 C 1187.148438 704.765625 1190.152344 709.652344 1192.902344 714.691406 C 1193.109375 715.125 1193.359375 715.535156 1193.652344 715.917969 C 1193.796875 715.917969 1193.871094 715.847656 1193.878906 715.703125 C 1194.648438 712.105469 1194.835938 708.480469 1194.445312 704.824219 C 1194.15625 702.871094 1193.765625 700.9375 1193.265625 699.03125 C 1192.863281 697.410156 1192.476562 695.777344 1192.191406 694.144531 C 1191.066406 688.203125 1191.316406 682.316406 1192.9375 676.484375 C 1193.554688 674.269531 1194.183594 672.054688 1194.820312 669.84375 C 1194.886719 669.585938 1194.984375 669.335938 1195.113281 669.105469 C 1195.222656 668.933594 1195.375 668.855469 1195.574219 668.863281 C 1195.777344 668.875 1195.921875 668.96875 1196.007812 669.148438 C 1196.113281 669.359375 1196.203125 669.578125 1196.269531 669.800781 C 1197.558594 674.0625 1198.460938 678.40625 1198.96875 682.828125 C 1199.171875 684.722656 1199.238281 686.621094 1199.179688 688.527344 C 1199.042969 693.753906 1198.308594 698.898438 1196.984375 703.957031 C 1196.714844 704.992188 1196.390625 706.007812 1196.007812 707.003906 C 1195.699219 707.8125 1195.523438 708.648438 1195.480469 709.511719 C 1195.410156 711.925781 1195.066406 714.300781 1194.449219 716.636719 C 1194.339844 716.957031 1194.363281 717.269531 1194.523438 717.570312 C 1197.335938 722.535156 1200.125 727.507812 1203.394531 732.195312 C 1203.554688 732.363281 1203.664062 732.582031 1203.828125 732.785156 C 1203.992188 732.988281 1203.96875 733.050781 1204.125 733.023438 C 1204.277344 732.996094 1204.308594 732.785156 1204.34375 732.632812 C 1204.789062 730.550781 1204.828125 728.460938 1204.457031 726.363281 C 1204.289062 725.441406 1204.117188 724.527344 1203.9375 723.605469 C 1203.367188 720.628906 1203.269531 717.636719 1203.640625 714.632812 C 1204.144531 709.992188 1205.265625 705.511719 1207.011719 701.183594 C 1207.664062 699.71875 1208.414062 698.304688 1209.257812 696.941406 C 1210.078125 695.527344 1210.914062 694.125 1211.75 692.71875 C 1211.816406 692.652344 1211.824219 692.535156 1211.882812 692.449219 C 1211.933594 692.320312 1212.019531 692.222656 1212.140625 692.152344 C 1212.261719 692.082031 1212.390625 692.054688 1212.527344 692.074219 C 1212.785156 692.125 1212.945312 692.277344 1213.011719 692.53125 C 1213.089844 692.75 1213.144531 692.976562 1213.171875 693.210938 C 1213.515625 697.070312 1214.074219 700.910156 1213.910156 704.792969 C 1213.855469 707.953125 1213.40625 711.050781 1212.5625 714.09375 C 1212.007812 716.09375 1211.234375 718.003906 1210.238281 719.824219 C 1209.5625 721.011719 1208.828125 722.175781 1208.082031 723.320312 C 1207.457031 724.269531 1206.84375 725.222656 1206.304688 726.21875 C 1206.046875 726.695312 1205.902344 727.199219 1205.875 727.742188 C 1205.796875 729.742188 1205.488281 731.707031 1204.949219 733.632812 C 1204.824219 734.015625 1204.898438 734.351562 1205.171875 734.644531 C 1206.675781 736.550781 1208.164062 738.484375 1209.652344 740.378906 C 1212.09375 743.296875 1214.6875 746.070312 1217.445312 748.695312 C 1218.402344 749.621094 1219.359375 750.550781 1220.296875 751.457031 C 1220.582031 751.375 1220.523438 751.191406 1220.507812 751.039062 C 1220.382812 749.867188 1220.410156 748.703125 1220.578125 747.542969 C 1220.894531 745.074219 1220.875 742.609375 1220.519531 740.144531 C 1220.308594 738.625 1220.113281 737.097656 1219.945312 735.574219 C 1219.671875 733.203125 1219.707031 730.832031 1220.046875 728.46875 C 1220.636719 724.484375 1222.183594 720.914062 1224.691406 717.757812 C 1225.59375 716.605469 1226.582031 715.546875 1227.570312 714.421875 C 1227.765625 714.183594 1228.003906 714 1228.285156 713.878906 C 1228.363281 713.84375 1228.441406 713.824219 1228.527344 713.824219 C 1228.613281 713.824219 1228.691406 713.84375 1228.769531 713.878906 C 1228.847656 713.917969 1228.910156 713.96875 1228.964844 714.035156 C 1229.019531 714.101562 1229.054688 714.171875 1229.074219 714.257812 C 1229.132812 714.449219 1229.164062 714.644531 1229.171875 714.847656 C 1229.285156 716.8125 1229.417969 718.777344 1229.503906 720.75 C 1229.609375 723.296875 1229.394531 725.8125 1228.863281 728.304688 C 1228.332031 730.796875 1227.5 733.1875 1226.367188 735.46875 C 1225.007812 738.238281 1223.640625 741 1222.308594 743.734375 C 1221.875 744.535156 1221.632812 745.394531 1221.582031 746.304688 C 1221.558594 747.035156 1221.433594 747.765625 1221.371094 748.507812 C 1221.261719 749.617188 1221.289062 750.726562 1221.445312 751.832031 C 1221.480469 752.359375 1221.707031 752.785156 1222.125 753.105469 C 1222.652344 753.511719 1223.132812 753.972656 1223.652344 754.402344 C 1226.453125 756.730469 1229.335938 758.984375 1232.300781 761.058594 C 1232.984375 761.542969 1233.675781 762.003906 1234.367188 762.476562 C 1234.453125 762.566406 1234.5625 762.679688 1234.722656 762.585938 C 1234.882812 762.492188 1234.851562 762.3125 1234.832031 762.15625 C 1234.808594 761.996094 1234.761719 761.757812 1234.726562 761.5625 C 1234.6875 761.367188 1234.597656 760.90625 1234.578125 760.570312 C 1234.460938 759.167969 1234.160156 757.804688 1233.671875 756.480469 C 1233.089844 754.664062 1232.5 752.851562 1232.066406 751.003906 C 1231.644531 749.28125 1231.414062 747.53125 1231.363281 745.753906 C 1231.304688 744.140625 1231.484375 742.554688 1231.898438 740.996094 C 1232.3125 739.433594 1232.945312 737.964844 1233.792969 736.59375 C 1234.652344 735.207031 1235.675781 733.921875 1236.660156 732.617188 C 1237.4375 731.664062 1238.15625 730.664062 1238.808594 729.621094 C 1238.953125 729.398438 1239.109375 729.179688 1239.277344 728.972656 C 1239.429688 728.753906 1239.636719 728.675781 1239.894531 728.734375 C 1240.023438 728.78125 1240.125 728.863281 1240.199219 728.976562 C 1240.273438 729.09375 1240.304688 729.222656 1240.289062 729.359375 C 1240.292969 729.558594 1240.28125 729.757812 1240.25 729.957031 C 1239.972656 731.914062 1239.894531 733.875 1240.019531 735.847656 C 1240.085938 737.214844 1240.144531 738.585938 1240.167969 739.953125 C 1240.195312 743.082031 1239.738281 746.140625 1238.789062 749.125 C 1238.136719 751.257812 1237.308594 753.335938 1236.511719 755.425781 L 1236.261719 756.078125 C 1235.441406 758.363281 1235.441406 758.363281 1235.664062 760.753906 C 1235.738281 761.488281 1235.839844 762.210938 1235.886719 762.945312 C 1235.890625 763.382812 1236.085938 763.707031 1236.46875 763.910156 C 1237.550781 764.582031 1238.605469 765.285156 1239.691406 765.949219 C 1241.878906 767.296875 1244.078125 768.621094 1246.375 769.796875 C 1247.644531 770.46875 1248.9375 771.09375 1250.230469 771.734375 C 1250.644531 771.949219 1251.046875 772.183594 1251.449219 772.421875 C 1251.582031 772.519531 1251.695312 772.640625 1251.789062 772.777344 C 1251.914062 772.9375 1251.90625 773.09375 1251.773438 773.242188 C 1251.667969 773.347656 1251.546875 773.378906 1251.40625 773.332031 C 1251.308594 773.304688 1251.21875 773.265625 1251.132812 773.214844 C 1249.738281 772.363281 1248.234375 771.796875 1246.84375 771.0625 C 1244.820312 769.992188 1242.800781 768.847656 1240.832031 767.65625 C 1238.265625 766.101562 1235.78125 764.46875 1233.316406 762.820312 C 1232.652344 762.371094 1231.988281 761.917969 1231.355469 761.429688 C 1230.898438 761.078125 1230.398438 760.988281 1229.847656 761.167969 C 1228.910156 761.414062 1228.015625 761.78125 1227.171875 762.265625 C 1225.804688 763.023438 1224.429688 763.785156 1223.046875 764.515625 C 1221.585938 765.261719 1220.089844 765.917969 1218.550781 766.480469 C 1215.703125 767.566406 1212.78125 767.824219 1209.785156 767.253906 C 1209.460938 767.195312 1209.125 767.160156 1208.800781 767.074219 C 1205.9375 766.289062 1203.003906 765.777344 1200.164062 764.902344 C 1199.652344 764.742188 1199.144531 764.589844 1198.636719 764.421875 C 1198.445312 764.363281 1198.265625 764.28125 1198.097656 764.175781 C 1198.019531 764.125 1197.957031 764.058594 1197.914062 763.976562 C 1197.871094 763.894531 1197.851562 763.804688 1197.851562 763.710938 C 1197.855469 763.617188 1197.882812 763.53125 1197.929688 763.453125 C 1197.980469 763.371094 1198.046875 763.308594 1198.128906 763.265625 C 1198.398438 763.125 1198.6875 763.039062 1198.988281 763.011719 C 1200.042969 762.816406 1201.09375 762.625 1202.144531 762.460938 C 1204.289062 762.101562 1206.410156 761.652344 1208.515625 761.117188 C 1209.808594 760.78125 1211.125 760.554688 1212.460938 760.351562 C 1213.753906 760.128906 1215.046875 760.089844 1216.351562 760.226562 C 1217.289062 760.332031 1218.21875 760.445312 1219.15625 760.550781 C 1221.179688 760.773438 1223.199219 760.992188 1225.230469 761.195312 C 1226.304688 761.351562 1227.339844 761.210938 1228.332031 760.773438 C 1228.582031 760.675781 1228.835938 760.59375 1229.09375 760.523438 C 1229.242188 760.464844 1229.449219 760.496094 1229.503906 760.304688 C 1229.5625 760.109375 1229.363281 760.027344 1229.242188 759.945312 C 1228.347656 759.25 1227.441406 758.5625 1226.539062 757.871094 C 1224.792969 756.535156 1223.128906 755.121094 1221.476562 753.625 C 1220.191406 752.511719 1218.921875 751.378906 1217.730469 750.195312 C 1217.53125 749.96875 1217.292969 749.902344 1217.007812 749.996094 C 1216.230469 750.210938 1215.488281 750.507812 1214.777344 750.882812 C 1212.9375 751.828125 1211.050781 752.671875 1209.121094 753.417969 C 1207.375 754.101562 1205.585938 754.644531 1203.757812 755.050781 C 1201.6875 755.539062 1199.59375 755.6875 1197.476562 755.492188 C 1195.363281 755.296875 1193.332031 754.773438 1191.382812 753.917969 C 1189.074219 752.925781 1186.902344 751.699219 1184.859375 750.234375 C 1184.402344 749.902344 1183.9375 749.585938 1183.480469 749.253906 C 1183.214844 749.09375 1183.007812 748.875 1182.859375 748.601562 C 1182.808594 748.472656 1182.8125 748.34375 1182.863281 748.214844 C 1182.917969 748.085938 1183.007812 747.996094 1183.136719 747.9375 C 1183.386719 747.839844 1183.648438 747.800781 1183.917969 747.824219 C 1185.992188 747.792969 1188.058594 747.660156 1190.121094 747.472656 C 1193.824219 747.148438 1197.453125 747.519531 1201.015625 748.585938 C 1203.289062 749.246094 1205.539062 749.980469 1207.808594 750.65625 C 1208.921875 751.042969 1210.0625 751.257812 1211.242188 751.300781 C 1211.613281 751.3125 1211.96875 751.242188 1212.3125 751.097656 C 1213.660156 750.382812 1215.054688 749.773438 1216.496094 749.273438 Z M 1216.496094 749.273438 " fill-opacity="1" fill-rule="nonzero"/></g></g></g><g clip-path="url(#2640c5c0aa)"><g clip-path="url(#8e85d3d524)"><g clip-path="url(#ac24881f14)"><path fill="#361c37" d="M 1195.417969 671.71875 C 1195.453125 671.753906 1195.515625 671.816406 1195.535156 671.835938 C 1195.542969 672.136719 1195.53125 672.433594 1195.507812 672.734375 C 1195.203125 676.460938 1195.050781 680.183594 1194.867188 683.921875 C 1194.796875 686.660156 1194.914062 689.390625 1195.222656 692.109375 C 1195.476562 694.871094 1195.769531 697.597656 1195.8125 700.398438 C 1195.828125 702.132812 1195.734375 703.863281 1195.542969 705.585938 C 1195.515625 705.851562 1195.46875 706.113281 1195.402344 706.371094 C 1195.355469 706.460938 1195.285156 706.515625 1195.183594 706.53125 C 1195.132812 706.53125 1195.089844 706.515625 1195.054688 706.480469 C 1195.019531 706.441406 1195.003906 706.398438 1195.007812 706.347656 C 1195.011719 706.246094 1195.019531 706.148438 1195.035156 706.050781 C 1195.398438 702.789062 1195.429688 699.527344 1195.125 696.261719 C 1194.917969 693.785156 1194.703125 691.289062 1194.472656 688.78125 C 1194.328125 686.914062 1194.3125 685.046875 1194.417969 683.179688 C 1194.597656 679.714844 1194.742188 676.25 1195.027344 672.792969 C 1195.003906 672.457031 1195.058594 672.128906 1195.179688 671.8125 C 1195.234375 671.71875 1195.3125 671.683594 1195.417969 671.71875 Z M 1195.417969 671.71875 " fill-opacity="1" fill-rule="nonzero"/></g></g></g><g clip-path="url(#4b33467b55)"><g clip-path="url(#a2f3f29720)"><g clip-path="url(#1e07b6786b)"><path fill="#361c37" d="M 1212.046875 693.636719 C 1212.0625 693.726562 1212.125 693.820312 1212.105469 693.90625 L 1211.886719 694.882812 C 1210.734375 700.257812 1209.273438 705.550781 1207.859375 710.859375 C 1206.675781 715.488281 1205.910156 720.183594 1205.570312 724.949219 C 1205.585938 725.214844 1205.542969 725.476562 1205.441406 725.722656 C 1205.402344 725.78125 1205.347656 725.808594 1205.28125 725.808594 C 1205.214844 725.785156 1205.171875 725.742188 1205.15625 725.675781 C 1205.121094 725.582031 1205.109375 725.484375 1205.117188 725.382812 C 1205.171875 724.457031 1205.199219 723.519531 1205.304688 722.597656 C 1205.761719 718.113281 1206.570312 713.699219 1207.734375 709.347656 C 1208.742188 705.71875 1209.742188 702.089844 1210.570312 698.421875 L 1211.519531 694.226562 C 1211.539062 693.984375 1211.640625 693.78125 1211.820312 693.621094 C 1211.867188 693.617188 1211.960938 693.628906 1212.046875 693.636719 Z M 1212.046875 693.636719 " fill-opacity="1" fill-rule="nonzero"/></g></g></g><g clip-path="url(#e9e0f24140)"><g clip-path="url(#868a3028d7)"><g clip-path="url(#870ede7a3d)"><path fill="#361c37" d="M 1160.257812 698.902344 C 1162.070312 700.734375 1164.039062 702.378906 1166.164062 703.835938 C 1168.425781 705.488281 1170.671875 707.15625 1173.023438 708.683594 C 1173.941406 709.289062 1174.839844 709.953125 1175.71875 710.59375 C 1179.085938 713.046875 1182.453125 715.503906 1185.824219 717.964844 C 1186.289062 718.308594 1186.476562 718.648438 1186.339844 718.683594 C 1185.992188 718.8125 1185.773438 718.5625 1185.535156 718.386719 C 1183.71875 717.042969 1181.921875 715.652344 1180.078125 714.332031 C 1176.929688 712.089844 1173.8125 709.804688 1170.636719 707.601562 C 1168.800781 706.351562 1167.007812 704.988281 1165.203125 703.679688 C 1163.820312 702.679688 1162.492188 701.613281 1161.21875 700.476562 C 1160.769531 700.074219 1160.355469 699.640625 1159.972656 699.171875 C 1159.878906 699.074219 1159.839844 698.929688 1159.945312 698.820312 C 1160.050781 698.707031 1160.15625 698.820312 1160.257812 698.902344 Z M 1160.257812 698.902344 " fill-opacity="1" fill-rule="nonzero"/></g></g></g><g clip-path="url(#139a295db6)"><g clip-path="url(#cae2c3c91c)"><g clip-path="url(#c8b3d4604a)"><path fill="#361c37" d="M 1221.554688 743.101562 C 1221.554688 743.101562 1221.519531 743.136719 1221.511719 743.144531 C 1221.507812 743.148438 1221.375 743.0625 1221.394531 743.015625 C 1221.402344 742.648438 1221.414062 742.285156 1221.4375 741.921875 C 1221.546875 740.128906 1221.636719 738.328125 1221.773438 736.53125 C 1222.148438 732.152344 1223.125 727.910156 1224.703125 723.804688 C 1225.738281 721.03125 1226.839844 718.277344 1227.632812 715.417969 C 1227.675781 715.292969 1227.746094 715.183594 1227.839844 715.089844 C 1227.875 715.054688 1227.960938 715.039062 1228.011719 715.050781 C 1228.0625 715.0625 1228.125 715.167969 1228.136719 715.183594 C 1228.097656 715.441406 1228.042969 715.703125 1227.976562 715.957031 C 1227.386719 718.003906 1226.648438 720.003906 1225.875 721.972656 C 1225.046875 724.15625 1224.234375 726.335938 1223.621094 728.585938 C 1222.976562 730.902344 1222.53125 733.257812 1222.285156 735.652344 C 1222.085938 737.746094 1221.921875 739.839844 1221.820312 741.9375 C 1221.816406 742.203125 1221.800781 742.46875 1221.769531 742.730469 C 1221.773438 742.898438 1221.703125 743.023438 1221.554688 743.101562 Z M 1221.554688 743.101562 " fill-opacity="1" fill-rule="nonzero"/></g></g></g><g clip-path="url(#6252a72780)"><g clip-path="url(#903f3c22e2)"><g clip-path="url(#5db94d3371)"><path fill="#361c37" d="M 1166.769531 675.898438 C 1167.175781 676.992188 1167.679688 678.042969 1168.277344 679.042969 C 1170.125 682.300781 1172.28125 685.339844 1174.738281 688.160156 C 1176.5 690.203125 1178.304688 692.214844 1179.941406 694.367188 C 1180.582031 695.21875 1181.191406 696.085938 1181.796875 696.96875 C 1181.976562 697.164062 1182.089844 697.390625 1182.136719 697.648438 C 1182.132812 697.714844 1182.105469 697.769531 1182.050781 697.808594 C 1182.015625 697.84375 1181.90625 697.847656 1181.875 697.816406 C 1181.769531 697.734375 1181.679688 697.636719 1181.601562 697.527344 C 1179.988281 695.15625 1178.226562 692.902344 1176.320312 690.757812 C 1174.433594 688.554688 1172.539062 686.449219 1170.894531 684.097656 C 1168.863281 681.308594 1167.1875 678.324219 1165.867188 675.140625 C 1165.746094 674.867188 1165.644531 674.585938 1165.5625 674.296875 C 1165.511719 674.054688 1165.640625 673.910156 1165.914062 673.960938 C 1166.121094 674.640625 1166.40625 675.285156 1166.769531 675.898438 Z M 1166.769531 675.898438 " fill-opacity="1" fill-rule="nonzero"/></g></g></g><g clip-path="url(#4292a60f0a)"><g clip-path="url(#0789e14b7f)"><g clip-path="url(#8b49ca3624)"><path fill="#361c37" d="M 1239.261719 730.351562 C 1239.28125 730.433594 1239.28125 730.515625 1239.273438 730.601562 C 1239.085938 731.171875 1238.875 731.734375 1238.691406 732.308594 C 1237.867188 734.871094 1237.023438 737.4375 1236.230469 740.011719 C 1235.078125 743.878906 1234.503906 747.832031 1234.503906 751.867188 C 1234.445312 753.511719 1234.574219 755.140625 1234.886719 756.753906 C 1234.921875 756.878906 1234.9375 757.011719 1234.9375 757.144531 C 1234.933594 757.246094 1234.886719 757.328125 1234.804688 757.390625 C 1234.648438 757.460938 1234.558594 757.324219 1234.53125 757.191406 C 1234.21875 755.886719 1234.050781 754.566406 1234.027344 753.226562 C 1233.90625 748.378906 1234.582031 743.648438 1236.050781 739.03125 C 1236.898438 736.46875 1237.699219 733.890625 1238.539062 731.320312 C 1238.601562 730.953125 1238.75 730.625 1238.988281 730.332031 C 1239.054688 730.238281 1239.15625 730.238281 1239.261719 730.351562 Z M 1239.261719 730.351562 " fill-opacity="1" fill-rule="nonzero"/></g></g></g><g clip-path="url(#07dc2bf2cb)"><g clip-path="url(#03f975710e)"><g clip-path="url(#f8c675045e)"><path fill="#361c37" d="M 1198.976562 763.796875 C 1199.023438 763.75 1199.085938 763.691406 1199.113281 763.667969 C 1199.246094 763.648438 1199.378906 763.648438 1199.511719 763.664062 C 1207.40625 764.398438 1215.242188 764.003906 1223.023438 762.484375 C 1223.976562 762.292969 1224.921875 762.089844 1225.871094 761.898438 C 1226.066406 761.859375 1226.261719 761.835938 1226.460938 761.824219 C 1226.492188 761.792969 1226.585938 761.882812 1226.585938 761.953125 C 1226.632812 762.070312 1226.601562 762.15625 1226.492188 762.210938 C 1226.40625 762.261719 1226.316406 762.292969 1226.21875 762.3125 C 1225.929688 762.390625 1225.636719 762.460938 1225.34375 762.519531 C 1220.382812 763.640625 1215.359375 764.289062 1210.273438 764.464844 C 1207.234375 764.546875 1204.199219 764.511719 1201.167969 764.304688 C 1200.507812 764.265625 1199.839844 764.175781 1199.179688 764.09375 C 1199.105469 764.085938 1199.050781 764.054688 1199.007812 763.992188 C 1198.964844 763.933594 1198.957031 763.867188 1198.976562 763.796875 Z M 1198.976562 763.796875 " fill-opacity="1" fill-rule="nonzero"/></g></g></g><g clip-path="url(#51c3f8fcdd)"><g clip-path="url(#ae47559dc2)"><g clip-path="url(#3570c05e7d)"><path fill="#361c37" d="M 1209.050781 752.164062 C 1209.160156 752.339844 1209.121094 752.433594 1209.039062 752.496094 C 1208.789062 752.652344 1208.519531 752.582031 1208.257812 752.558594 C 1206.832031 752.464844 1205.40625 752.367188 1203.972656 752.269531 C 1201.246094 752.078125 1198.515625 751.945312 1195.800781 751.617188 C 1192.027344 751.234375 1188.328125 750.492188 1184.699219 749.398438 C 1184.429688 749.355469 1184.1875 749.257812 1183.964844 749.097656 C 1183.921875 749.046875 1183.894531 748.988281 1183.886719 748.921875 C 1183.886719 748.773438 1184.035156 748.785156 1184.101562 748.78125 C 1184.296875 748.8125 1184.488281 748.859375 1184.675781 748.921875 C 1189.308594 750.261719 1194.03125 751.089844 1198.839844 751.40625 C 1202.070312 751.640625 1205.28125 751.859375 1208.503906 752.082031 C 1208.71875 752.089844 1208.929688 752.058594 1209.050781 752.164062 Z M 1209.050781 752.164062 " fill-opacity="1" fill-rule="nonzero"/></g></g></g><g clip-path="url(#9182b0a683)"><g clip-path="url(#8292133893)"><g clip-path="url(#1088d06ebb)"><path fill="#361c37" d="M 1172.695312 727.660156 C 1172.785156 727.753906 1172.738281 727.707031 1172.695312 727.660156 C 1172.648438 727.613281 1172.644531 727.609375 1172.679688 727.574219 C 1172.714844 727.523438 1172.761719 727.480469 1172.8125 727.449219 C 1173.035156 727.34375 1173.191406 727.496094 1173.367188 727.589844 C 1174.808594 728.351562 1176.292969 729.035156 1177.800781 729.671875 C 1181.082031 731.101562 1184.472656 732.203125 1187.96875 732.972656 C 1190.519531 733.480469 1193.070312 733.980469 1195.617188 734.496094 C 1195.839844 734.542969 1196.097656 734.515625 1196.273438 734.710938 C 1196.320312 734.757812 1196.347656 734.8125 1196.355469 734.878906 C 1196.355469 734.933594 1196.339844 734.976562 1196.300781 735.011719 C 1196.261719 735.050781 1196.21875 735.066406 1196.167969 735.058594 C 1195.964844 735.050781 1195.765625 735.023438 1195.570312 734.980469 C 1192.730469 734.410156 1189.875 733.875 1187.039062 733.269531 C 1184.113281 732.582031 1181.261719 731.652344 1178.496094 730.480469 C 1176.882812 729.839844 1175.308594 729.113281 1173.777344 728.300781 C 1173.363281 728.175781 1173 727.964844 1172.695312 727.660156 Z M 1172.695312 727.660156 " fill-opacity="1" fill-rule="nonzero"/></g></g></g><g clip-path="url(#d75c8386e4)"><path fill="#361c37" d="M 1273.730469 714.207031 C 1275.546875 710.726562 1278.535156 707.871094 1282.09375 706.210938 C 1285.652344 704.554688 1289.761719 704.105469 1293.597656 704.953125 C 1288.894531 710.84375 1281.261719 714.488281 1273.730469 714.207031 " fill-opacity="1" fill-rule="nonzero"/></g><path fill="#361c37" d="M 1267.691406 711.664062 C 1269.804688 705.996094 1270 699.628906 1268.234375 693.84375 C 1266.464844 688.058594 1262.75 682.886719 1257.828125 679.367188 C 1255.921875 690.820312 1259.609375 703.328125 1267.691406 711.664062 " fill-opacity="1" fill-rule="nonzero"/><g clip-path="url(#657013396c)"><path fill="#361c37" d="M 1271.984375 711.496094 C 1269.898438 703.921875 1270.382812 695.671875 1273.332031 688.390625 C 1276.28125 681.113281 1281.683594 674.855469 1288.453125 670.871094 C 1289.597656 685.898438 1283.390625 701.644531 1271.984375 711.496094 " fill-opacity="1" fill-rule="nonzero"/></g><g clip-path="url(#df32215e44)"><path fill="#361c37" d="M 1063.5 766.085938 C 1065.316406 762.605469 1068.304688 759.75 1071.863281 758.089844 C 1075.421875 756.433594 1079.53125 755.980469 1083.367188 756.828125 C 1078.667969 762.71875 1071.03125 766.367188 1063.5 766.085938 " fill-opacity="1" fill-rule="nonzero"/></g><path fill="#361c37" d="M 1057.460938 763.539062 C 1059.578125 757.871094 1059.769531 751.507812 1058.003906 745.722656 C 1056.238281 739.933594 1052.519531 734.765625 1047.597656 731.246094 C 1045.691406 742.699219 1049.378906 755.203125 1057.460938 763.539062 " fill-opacity="1" fill-rule="nonzero"/><g clip-path="url(#2a9cfc5d9e)"><path fill="#361c37" d="M 1061.753906 763.371094 C 1059.671875 755.800781 1060.152344 747.546875 1063.101562 740.269531 C 1066.054688 732.992188 1071.457031 726.734375 1078.222656 722.75 C 1079.371094 737.777344 1073.160156 753.523438 1061.753906 763.371094 " fill-opacity="1" fill-rule="nonzero"/></g><g clip-path="url(#04458b1993)"><path fill="#361c37" d="M 1339.121094 736.019531 C 1340.9375 732.539062 1343.925781 729.683594 1347.484375 728.023438 C 1351.042969 726.367188 1355.152344 725.914062 1358.988281 726.761719 C 1354.285156 732.652344 1346.648438 736.300781 1339.121094 736.019531 " fill-opacity="1" fill-rule="nonzero"/></g><path fill="#361c37" d="M 1333.082031 733.472656 C 1335.195312 727.804688 1335.390625 721.441406 1333.625 715.65625 C 1331.855469 709.867188 1328.136719 704.699219 1323.21875 701.179688 C 1321.3125 712.632812 1325 725.136719 1333.082031 733.472656 " fill-opacity="1" fill-rule="nonzero"/><g clip-path="url(#977925a0b6)"><path fill="#361c37" d="M 1337.375 733.304688 C 1335.289062 725.734375 1335.773438 717.480469 1338.722656 710.203125 C 1341.671875 702.925781 1347.074219 696.667969 1353.84375 692.683594 C 1354.988281 707.710938 1348.78125 723.457031 1337.375 733.304688 " fill-opacity="1" fill-rule="nonzero"/></g></svg>