<svg xmlns="http://www.w3.org/2000/svg" xmlns:xlink="http://www.w3.org/1999/xlink" width="1920" zoomAndPan="magnify" viewBox="0 0 1440 809.999993" height="1080" preserveAspectRatio="xMidYMid meet" version="1.0"><defs><clipPath id="115da4d72b"><path d="M 14.613281 640.273438 L 190.863281 640.273438 L 190.863281 810 L 14.613281 810 Z M 14.613281 640.273438 " clip-rule="nonzero"/></clipPath><clipPath id="fa0c09d196"><path d="M 115.492188 671.199219 L 291.742188 671.199219 L 291.742188 810 L 115.492188 810 Z M 115.492188 671.199219 " clip-rule="nonzero"/></clipPath><clipPath id="e1d4e93b29"><path d="M 238.328125 691.523438 L 414.578125 691.523438 L 414.578125 810 L 238.328125 810 Z M 238.328125 691.523438 " clip-rule="nonzero"/></clipPath><clipPath id="55cad2e9aa"><path d="M 27 680 L 442 680 L 442 810 L 27 810 Z M 27 680 " clip-rule="nonzero"/></clipPath><clipPath id="dbe63465a7"><path d="M 184.367188 594.933594 L 449.4375 741.726562 L 292.46875 1025.167969 L 27.402344 878.375 Z M 184.367188 594.933594 " clip-rule="nonzero"/></clipPath><clipPath id="6abe917916"><path d="M 184.367188 594.933594 L 449.4375 741.726562 L 292.46875 1025.167969 L 27.402344 878.375 Z M 184.367188 594.933594 " clip-rule="nonzero"/></clipPath><clipPath id="da17b0ac1f"><path d="M 184.238281 595.175781 L 449.195312 741.90625 L 292.476562 1024.898438 L 27.515625 878.164062 Z M 184.238281 595.175781 " clip-rule="nonzero"/></clipPath><clipPath id="ed7897fbd5"><path d="M 378 748 L 382 748 L 382 752 L 378 752 Z M 378 748 " clip-rule="nonzero"/></clipPath><clipPath id="655178730d"><path d="M 184.367188 594.933594 L 449.4375 741.726562 L 292.46875 1025.167969 L 27.402344 878.375 Z M 184.367188 594.933594 " clip-rule="nonzero"/></clipPath><clipPath id="1a1effc7fa"><path d="M 184.367188 594.933594 L 449.4375 741.726562 L 292.46875 1025.167969 L 27.402344 878.375 Z M 184.367188 594.933594 " clip-rule="nonzero"/></clipPath><clipPath id="67446254f1"><path d="M 171 697 L 177 697 L 177 706 L 171 706 Z M 171 697 " clip-rule="nonzero"/></clipPath><clipPath id="969f6ae99e"><path d="M 184.367188 594.933594 L 449.4375 741.726562 L 292.46875 1025.167969 L 27.402344 878.375 Z M 184.367188 594.933594 " clip-rule="nonzero"/></clipPath><clipPath id="3758bbd490"><path d="M 184.367188 594.933594 L 449.4375 741.726562 L 292.46875 1025.167969 L 27.402344 878.375 Z M 184.367188 594.933594 " clip-rule="nonzero"/></clipPath><clipPath id="4662851130"><path d="M 165 710 L 170 710 L 170 719 L 165 719 Z M 165 710 " clip-rule="nonzero"/></clipPath><clipPath id="796a8bc4c2"><path d="M 184.367188 594.933594 L 449.4375 741.726562 L 292.46875 1025.167969 L 27.402344 878.375 Z M 184.367188 594.933594 " clip-rule="nonzero"/></clipPath><clipPath id="d413714744"><path d="M 184.367188 594.933594 L 449.4375 741.726562 L 292.46875 1025.167969 L 27.402344 878.375 Z M 184.367188 594.933594 " clip-rule="nonzero"/></clipPath><clipPath id="d016fb13bd"><path d="M 172 707 L 178 707 L 178 715 L 172 715 Z M 172 707 " clip-rule="nonzero"/></clipPath><clipPath id="5497b59ae6"><path d="M 184.367188 594.933594 L 449.4375 741.726562 L 292.46875 1025.167969 L 27.402344 878.375 Z M 184.367188 594.933594 " clip-rule="nonzero"/></clipPath><clipPath id="8b72c8c830"><path d="M 184.367188 594.933594 L 449.4375 741.726562 L 292.46875 1025.167969 L 27.402344 878.375 Z M 184.367188 594.933594 " clip-rule="nonzero"/></clipPath><clipPath id="36c6bf63cd"><path d="M 173 787 L 177 787 L 177 793 L 173 793 Z M 173 787 " clip-rule="nonzero"/></clipPath><clipPath id="0411b2d54e"><path d="M 184.367188 594.933594 L 449.4375 741.726562 L 292.46875 1025.167969 L 27.402344 878.375 Z M 184.367188 594.933594 " clip-rule="nonzero"/></clipPath><clipPath id="8e60b130f1"><path d="M 184.367188 594.933594 L 449.4375 741.726562 L 292.46875 1025.167969 L 27.402344 878.375 Z M 184.367188 594.933594 " clip-rule="nonzero"/></clipPath><clipPath id="170386fa66"><path d="M 193 746 L 198 746 L 198 753 L 193 753 Z M 193 746 " clip-rule="nonzero"/></clipPath><clipPath id="c099fcafd2"><path d="M 184.367188 594.933594 L 449.4375 741.726562 L 292.46875 1025.167969 L 27.402344 878.375 Z M 184.367188 594.933594 " clip-rule="nonzero"/></clipPath><clipPath id="aab6479e34"><path d="M 184.367188 594.933594 L 449.4375 741.726562 L 292.46875 1025.167969 L 27.402344 878.375 Z M 184.367188 594.933594 " clip-rule="nonzero"/></clipPath><clipPath id="67f8c976b3"><path d="M 220 719 L 225 719 L 225 727 L 220 727 Z M 220 719 " clip-rule="nonzero"/></clipPath><clipPath id="1ab1e36a99"><path d="M 184.367188 594.933594 L 449.4375 741.726562 L 292.46875 1025.167969 L 27.402344 878.375 Z M 184.367188 594.933594 " clip-rule="nonzero"/></clipPath><clipPath id="4376da3235"><path d="M 184.367188 594.933594 L 449.4375 741.726562 L 292.46875 1025.167969 L 27.402344 878.375 Z M 184.367188 594.933594 " clip-rule="nonzero"/></clipPath><clipPath id="de0b259f70"><path d="M 229 717 L 233 717 L 233 723 L 229 723 Z M 229 717 " clip-rule="nonzero"/></clipPath><clipPath id="852048633c"><path d="M 184.367188 594.933594 L 449.4375 741.726562 L 292.46875 1025.167969 L 27.402344 878.375 Z M 184.367188 594.933594 " clip-rule="nonzero"/></clipPath><clipPath id="82042c7a62"><path d="M 184.367188 594.933594 L 449.4375 741.726562 L 292.46875 1025.167969 L 27.402344 878.375 Z M 184.367188 594.933594 " clip-rule="nonzero"/></clipPath><clipPath id="9abf5f7b41"><path d="M 254 715 L 263 715 L 263 725 L 254 725 Z M 254 715 " clip-rule="nonzero"/></clipPath><clipPath id="694e34b2d5"><path d="M 184.367188 594.933594 L 449.4375 741.726562 L 292.46875 1025.167969 L 27.402344 878.375 Z M 184.367188 594.933594 " clip-rule="nonzero"/></clipPath><clipPath id="2518ba3d30"><path d="M 184.367188 594.933594 L 449.4375 741.726562 L 292.46875 1025.167969 L 27.402344 878.375 Z M 184.367188 594.933594 " clip-rule="nonzero"/></clipPath><clipPath id="6b121fa4b0"><path d="M 265 719 L 272 719 L 272 725 L 265 725 Z M 265 719 " clip-rule="nonzero"/></clipPath><clipPath id="9d2cceeaa7"><path d="M 184.367188 594.933594 L 449.4375 741.726562 L 292.46875 1025.167969 L 27.402344 878.375 Z M 184.367188 594.933594 " clip-rule="nonzero"/></clipPath><clipPath id="21977fc7d8"><path d="M 184.367188 594.933594 L 449.4375 741.726562 L 292.46875 1025.167969 L 27.402344 878.375 Z M 184.367188 594.933594 " clip-rule="nonzero"/></clipPath><clipPath id="1ee597857f"><path d="M 268 708 L 275 708 L 275 715 L 268 715 Z M 268 708 " clip-rule="nonzero"/></clipPath><clipPath id="87ffe7d2ab"><path d="M 184.367188 594.933594 L 449.4375 741.726562 L 292.46875 1025.167969 L 27.402344 878.375 Z M 184.367188 594.933594 " clip-rule="nonzero"/></clipPath><clipPath id="371ca85d41"><path d="M 184.367188 594.933594 L 449.4375 741.726562 L 292.46875 1025.167969 L 27.402344 878.375 Z M 184.367188 594.933594 " clip-rule="nonzero"/></clipPath><clipPath id="c9160e167d"><path d="M 338 771 L 343 771 L 343 778 L 338 778 Z M 338 771 " clip-rule="nonzero"/></clipPath><clipPath id="cec052a085"><path d="M 184.367188 594.933594 L 449.4375 741.726562 L 292.46875 1025.167969 L 27.402344 878.375 Z M 184.367188 594.933594 " clip-rule="nonzero"/></clipPath><clipPath id="a4c6c36d6e"><path d="M 184.367188 594.933594 L 449.4375 741.726562 L 292.46875 1025.167969 L 27.402344 878.375 Z M 184.367188 594.933594 " clip-rule="nonzero"/></clipPath><clipPath id="4aee77eebb"><path d="M 343 760 L 347 760 L 347 765 L 343 765 Z M 343 760 " clip-rule="nonzero"/></clipPath><clipPath id="1325fda7de"><path d="M 184.367188 594.933594 L 449.4375 741.726562 L 292.46875 1025.167969 L 27.402344 878.375 Z M 184.367188 594.933594 " clip-rule="nonzero"/></clipPath><clipPath id="c724888be7"><path d="M 184.367188 594.933594 L 449.4375 741.726562 L 292.46875 1025.167969 L 27.402344 878.375 Z M 184.367188 594.933594 " clip-rule="nonzero"/></clipPath><clipPath id="5bc3497c32"><path d="M 369 753 L 374 753 L 374 759 L 369 759 Z M 369 753 " clip-rule="nonzero"/></clipPath><clipPath id="5873c44f56"><path d="M 184.367188 594.933594 L 449.4375 741.726562 L 292.46875 1025.167969 L 27.402344 878.375 Z M 184.367188 594.933594 " clip-rule="nonzero"/></clipPath><clipPath id="457848612b"><path d="M 184.367188 594.933594 L 449.4375 741.726562 L 292.46875 1025.167969 L 27.402344 878.375 Z M 184.367188 594.933594 " clip-rule="nonzero"/></clipPath><clipPath id="4daf68ffef"><path d="M 346 804 L 353 804 L 353 809 L 346 809 Z M 346 804 " clip-rule="nonzero"/></clipPath><clipPath id="f673cfdcd7"><path d="M 184.367188 594.933594 L 449.4375 741.726562 L 292.46875 1025.167969 L 27.402344 878.375 Z M 184.367188 594.933594 " clip-rule="nonzero"/></clipPath><clipPath id="d67dafb7f5"><path d="M 184.367188 594.933594 L 449.4375 741.726562 L 292.46875 1025.167969 L 27.402344 878.375 Z M 184.367188 594.933594 " clip-rule="nonzero"/></clipPath><clipPath id="6d5c851afc"><path d="M 347 775 L 350 775 L 350 781 L 347 781 Z M 347 775 " clip-rule="nonzero"/></clipPath><clipPath id="5f941ccc5a"><path d="M 184.367188 594.933594 L 449.4375 741.726562 L 292.46875 1025.167969 L 27.402344 878.375 Z M 184.367188 594.933594 " clip-rule="nonzero"/></clipPath><clipPath id="1d17200bbe"><path d="M 184.367188 594.933594 L 449.4375 741.726562 L 292.46875 1025.167969 L 27.402344 878.375 Z M 184.367188 594.933594 " clip-rule="nonzero"/></clipPath><clipPath id="eaff9cac34"><path d="M 354 809 L 359 809 L 359 810 L 354 810 Z M 354 809 " clip-rule="nonzero"/></clipPath><clipPath id="a387741032"><path d="M 184.367188 594.933594 L 449.4375 741.726562 L 292.46875 1025.167969 L 27.402344 878.375 Z M 184.367188 594.933594 " clip-rule="nonzero"/></clipPath><clipPath id="fc33417a56"><path d="M 184.367188 594.933594 L 449.4375 741.726562 L 292.46875 1025.167969 L 27.402344 878.375 Z M 184.367188 594.933594 " clip-rule="nonzero"/></clipPath></defs><path fill="#361c37" d="M -33.089844 732.761719 L 29.667969 725.5625 C 92.425781 718.199219 217.941406 703.808594 343.457031 754.515625 C 468.96875 805.222656 594.484375 921.367188 720 967.890625 C 845.515625 1014.414062 971.027344 991.65625 1096.542969 951.492188 C 1222.058594 911.324219 1347.574219 853.757812 1410.332031 825.140625 L 1473.085938 796.355469 L 1473.085938 1121.019531 L 1410.332031 1121.019531 C 1347.574219 1121.019531 1222.058594 1121.019531 1096.542969 1121.019531 C 971.027344 1121.019531 845.515625 1121.019531 720 1121.019531 C 594.484375 1121.019531 468.96875 1121.019531 343.457031 1121.019531 C 217.941406 1121.019531 92.425781 1121.019531 29.667969 1121.019531 L -33.089844 1121.019531 Z M -33.089844 732.761719 " fill-opacity="1" fill-rule="nonzero"/><path fill="#361c37" d="M 93.335938 767.257812 C 85.878906 728.273438 92.609375 698.128906 109.652344 662.28125 C 115.9375 679.644531 115.578125 698.867188 111.648438 716.910156 C 107.71875 734.953125 100.390625 752.050781 92.890625 768.925781 Z M 109.585938 887.8125 C 110.09375 885.199219 110.667969 882.605469 111.300781 880.023438 C 110.890625 880.375 110.480469 880.726562 110.070312 881.082031 Z M 111.300781 880.023438 C 116.386719 875.660156 121.46875 871.300781 126.554688 866.941406 C 136.558594 858.355469 146.660156 849.675781 154.496094 839.074219 C 165.371094 824.367188 171.480469 806.191406 171.695312 787.902344 C 141.882812 810.546875 120.242188 843.683594 111.300781 880.023438 Z M 73.320312 847.070312 C 60.089844 837.460938 43.238281 833.058594 31.601562 821.566406 C 33.15625 834.785156 39.9375 846.953125 48.632812 857.03125 C 57.328125 867.109375 67.914062 875.351562 78.425781 883.519531 C 86.976562 890.167969 96.113281 897.0625 106.875 898.328125 L 108.570312 898.300781 C 99.96875 879.167969 90.296875 859.398438 73.320312 847.070312 Z M 73.320312 847.070312 " fill-opacity="1" fill-rule="nonzero"/><g clip-path="url(#115da4d72b)"><path fill="#361c37" d="M 190.6875 857.164062 C 190.382812 871.140625 182.113281 883.988281 171.441406 893.023438 C 160.769531 902.054688 147.816406 907.878906 135.050781 913.585938 C 126.226562 917.53125 117.398438 921.476562 108.570312 925.417969 C 108.355469 926.992188 108.136719 928.558594 107.898438 930.128906 C 107.46875 932.984375 107.054688 935.839844 106.511719 938.679688 L 105.746094 942.941406 L 105.359375 945.070312 L 104.917969 947.191406 C 104.3125 950.015625 103.769531 952.851562 103.117188 955.667969 C 102.503906 958.484375 101.742188 961.285156 99.449219 963.671875 C 98.914062 964.234375 98.019531 964.253906 97.457031 963.714844 C 97.277344 963.539062 97.15625 963.332031 97.085938 963.109375 L 97.074219 963.070312 C 96.117188 959.886719 96.683594 957.117188 97.402344 954.363281 C 98.050781 951.601562 98.589844 948.8125 99.191406 946.035156 L 99.628906 943.953125 L 100.015625 941.855469 L 100.777344 937.667969 C 101.320312 934.878906 101.730469 932.066406 102.164062 929.261719 C 102.203125 928.996094 102.238281 928.730469 102.28125 928.464844 L 101.839844 928.742188 C 82.320312 923.292969 62.058594 917.449219 46.957031 903.9375 C 41.203125 898.789062 36.390625 892.683594 31.8125 886.460938 C 26.230469 878.871094 20.945312 871.058594 15.980469 863.046875 C 51.652344 870.988281 83.699219 893.964844 102.765625 925.128906 C 104.152344 915.257812 105.113281 905.328125 105.652344 895.371094 C 106.296875 884.027344 106.394531 872.648438 105.957031 861.289062 C 105.769531 856.382812 105.472656 851.484375 105.089844 846.589844 C 89.429688 836.796875 75.933594 823.875 62.589844 811.0625 C 48.949219 797.964844 34.636719 783.707031 30.71875 765.203125 C 62.210938 774.96875 90.742188 805.394531 104.230469 837.125 C 103.890625 833.847656 103.519531 830.570312 103.101562 827.296875 C 101.65625 816.011719 99.695312 804.785156 97.289062 793.65625 C 96.59375 790.425781 95.855469 787.203125 95.078125 783.992188 C 76.828125 778.917969 60.492188 768 47.300781 754.382812 C 33.730469 740.371094 23.3125 723.574219 14.695312 706.074219 C 44.878906 719.75 75.261719 738.851562 90.621094 767.105469 C 89.996094 764.925781 89.359375 762.75 88.699219 760.582031 C 86.21875 752.332031 83.480469 744.160156 80.507812 736.066406 C 76.507812 732.484375 73.382812 726.765625 70.328125 722.835938 C 51.726562 698.90625 39.3125 670.210938 34.601562 640.273438 C 52.550781 646.980469 66.070312 662.703125 73.703125 680.28125 C 80.394531 695.695312 81.082031 712.832031 81.796875 729.722656 C 85.773438 739.453125 89.40625 749.332031 92.667969 759.339844 C 96.199219 770.292969 99.292969 781.398438 101.902344 792.621094 C 103.441406 799.277344 104.804688 805.976562 105.996094 812.703125 C 108.398438 779.097656 120.257812 746.164062 140.085938 718.90625 C 144.882812 738.636719 141.457031 759.648438 134.113281 778.578125 C 127.546875 795.503906 117.988281 811.050781 108.171875 826.347656 C 108.183594 826.4375 108.199219 826.523438 108.210938 826.609375 C 111.449219 849.445312 112.496094 872.609375 111.363281 895.671875 C 111.070312 901.359375 110.640625 907.035156 110.074219 912.703125 C 110.5625 912.113281 111.0625 911.539062 111.5625 910.976562 C 132.953125 886.875 160.410156 868.203125 190.6875 857.164062 Z M 190.6875 857.164062 " fill-opacity="1" fill-rule="nonzero"/></g><path fill="#361c37" d="M 130.914062 759.875 C 127.269531 771.746094 122.90625 783.394531 117.894531 794.757812 C 117.472656 795.714844 116.070312 794.886719 116.488281 793.9375 C 117.902344 790.734375 119.265625 787.507812 120.570312 784.257812 C 125.171875 772.796875 129.089844 761.070312 132.316406 749.148438 C 132.589844 748.136719 134.15625 748.570312 133.882812 749.582031 C 132.949219 753.027344 131.960938 756.460938 130.914062 759.875 Z M 56.703125 788.558594 C 54.21875 785.675781 51.730469 782.792969 49.242188 779.914062 C 48.558594 779.121094 47.414062 780.273438 48.09375 781.0625 C 56.816406 791.167969 65.539062 801.277344 74.261719 811.386719 C 76.746094 814.265625 79.234375 817.148438 81.722656 820.03125 C 82.40625 820.824219 83.550781 819.671875 82.871094 818.882812 C 74.148438 808.773438 65.425781 798.667969 56.703125 788.558594 Z M 64.980469 696.867188 C 66.433594 700.363281 67.890625 703.859375 69.34375 707.355469 C 69.738281 708.308594 71.3125 707.890625 70.910156 706.921875 C 65.808594 694.664062 60.710938 682.402344 55.609375 670.140625 C 54.152344 666.644531 52.699219 663.148438 51.246094 659.652344 C 50.847656 658.699219 49.273438 659.117188 49.675781 660.082031 C 54.777344 672.34375 59.878906 684.605469 64.980469 696.867188 Z M 68.273438 759.917969 C 68.929688 760.734375 70.074219 759.578125 69.425781 758.769531 C 61.707031 749.171875 53.347656 740.105469 44.402344 731.640625 C 43.644531 730.917969 42.492188 732.066406 43.253906 732.789062 C 52.195312 741.253906 60.558594 750.320312 68.273438 759.917969 Z M 167.324219 877.601562 C 157.230469 886.441406 146.332031 894.34375 134.789062 901.191406 C 131.535156 903.121094 128.230469 904.960938 124.882812 906.722656 C 123.957031 907.210938 124.777344 908.613281 125.703125 908.128906 C 137.660156 901.839844 149.023438 894.457031 159.632812 886.097656 C 162.644531 883.726562 165.589844 881.273438 168.472656 878.75 C 169.261719 878.058594 168.109375 876.914062 167.324219 877.601562 Z M 73.410156 906.066406 C 63.144531 900.078125 53.765625 892.65625 45.574219 884.046875 C 44.851562 883.289062 43.703125 884.4375 44.421875 885.195312 C 52.707031 893.902344 62.210938 901.414062 72.589844 907.472656 C 73.496094 908 74.3125 906.59375 73.410156 906.066406 Z M 73.410156 906.066406 " fill-opacity="1" fill-rule="nonzero"/><path fill="#361c37" d="M 194.21875 798.183594 C 186.757812 759.199219 193.488281 729.054688 210.535156 693.207031 C 216.820312 710.570312 216.457031 729.792969 212.527344 747.835938 C 208.601562 765.878906 201.269531 782.976562 193.773438 799.851562 Z M 210.46875 918.738281 C 210.972656 916.125 211.546875 913.53125 212.183594 910.949219 C 211.773438 911.300781 211.363281 911.652344 210.949219 912.003906 Z M 212.183594 910.949219 C 217.265625 906.585938 222.351562 902.226562 227.433594 897.867188 C 237.441406 889.28125 247.539062 880.601562 255.378906 870 C 266.25 855.289062 272.359375 837.117188 272.578125 818.828125 C 242.761719 841.472656 221.125 874.609375 212.183594 910.949219 Z M 174.203125 877.996094 C 160.96875 868.386719 144.117188 863.984375 132.484375 852.492188 C 134.039062 865.710938 140.820312 877.878906 149.515625 887.957031 C 158.210938 898.035156 168.796875 906.277344 179.304688 914.445312 C 187.859375 921.09375 196.996094 927.988281 207.753906 929.253906 L 209.453125 929.226562 C 200.851562 910.09375 191.175781 890.324219 174.203125 877.996094 Z M 174.203125 877.996094 " fill-opacity="1" fill-rule="nonzero"/><g clip-path="url(#fa0c09d196)"><path fill="#361c37" d="M 291.566406 888.089844 C 291.265625 902.066406 282.996094 914.914062 272.324219 923.945312 C 261.652344 932.980469 248.699219 938.804688 235.933594 944.507812 C 227.105469 948.453125 218.277344 952.398438 209.453125 956.34375 C 209.238281 957.917969 209.015625 959.484375 208.78125 961.054688 C 208.347656 963.910156 207.9375 966.765625 207.394531 969.605469 L 206.625 973.867188 L 206.242188 975.996094 L 205.796875 978.117188 C 205.195312 980.941406 204.652344 983.777344 204 986.589844 C 203.382812 989.410156 202.621094 992.210938 200.332031 994.597656 C 199.792969 995.160156 198.902344 995.175781 198.339844 994.640625 C 198.160156 994.464844 198.035156 994.257812 197.96875 994.035156 L 197.957031 993.996094 C 196.996094 990.8125 197.566406 988.042969 198.28125 985.289062 C 198.929688 982.523438 199.472656 979.738281 200.070312 976.960938 L 200.511719 974.878906 L 200.894531 972.78125 L 201.660156 968.59375 C 202.199219 965.804688 202.613281 962.992188 203.042969 960.1875 C 203.085938 959.921875 203.121094 959.65625 203.160156 959.390625 L 202.71875 959.667969 C 183.203125 954.21875 162.941406 948.375 147.839844 934.863281 C 142.082031 929.714844 137.269531 923.605469 132.695312 917.386719 C 127.109375 909.796875 121.828125 901.984375 116.863281 893.972656 C 152.535156 901.914062 184.582031 924.890625 203.648438 956.054688 C 205.03125 946.183594 205.992188 936.253906 206.535156 926.296875 C 207.179688 914.953125 207.273438 903.574219 206.835938 892.214844 C 206.648438 887.308594 206.351562 882.410156 205.96875 877.515625 C 190.308594 867.722656 176.816406 854.800781 163.472656 841.988281 C 149.828125 828.890625 135.519531 814.632812 131.597656 796.128906 C 163.09375 805.894531 191.621094 836.320312 205.109375 868.050781 C 204.773438 864.769531 204.398438 861.492188 203.984375 858.222656 C 202.539062 846.933594 200.574219 835.710938 198.167969 824.582031 C 197.472656 821.351562 196.734375 818.128906 195.960938 814.914062 C 177.710938 809.84375 161.371094 798.921875 148.183594 785.308594 C 134.609375 771.296875 124.195312 754.5 115.578125 736.996094 C 145.761719 750.675781 176.140625 769.777344 191.5 798.03125 C 190.878906 795.851562 190.238281 793.675781 189.578125 791.507812 C 187.097656 783.257812 184.363281 775.082031 181.386719 766.992188 C 177.390625 763.410156 174.261719 757.691406 171.207031 753.761719 C 152.609375 729.832031 140.191406 701.136719 135.480469 671.199219 C 153.429688 677.90625 166.953125 693.628906 174.582031 711.207031 C 181.273438 726.621094 181.960938 743.757812 182.679688 760.644531 C 186.652344 770.378906 190.289062 780.257812 193.550781 790.265625 C 197.082031 801.21875 200.175781 812.324219 202.78125 823.546875 C 204.324219 830.203125 205.683594 836.902344 206.875 843.628906 C 209.28125 810.023438 221.136719 777.089844 240.964844 749.832031 C 245.765625 769.5625 242.335938 790.574219 234.992188 809.503906 C 228.425781 826.429688 218.871094 841.976562 209.050781 857.273438 C 209.066406 857.359375 209.078125 857.449219 209.089844 857.535156 C 212.328125 880.371094 213.375 903.535156 212.246094 926.597656 C 211.953125 932.28125 211.519531 937.960938 210.953125 943.625 C 211.445312 943.039062 211.941406 942.464844 212.441406 941.902344 C 233.835938 917.800781 261.292969 899.128906 291.566406 888.089844 Z M 291.566406 888.089844 " fill-opacity="1" fill-rule="nonzero"/></g><path fill="#361c37" d="M 231.792969 790.800781 C 228.148438 802.671875 223.789062 814.320312 218.773438 825.683594 C 218.351562 826.636719 216.953125 825.808594 217.371094 824.863281 C 218.785156 821.660156 220.144531 818.433594 221.449219 815.183594 C 226.054688 803.722656 229.972656 791.992188 233.195312 780.074219 C 233.46875 779.0625 235.039062 779.496094 234.765625 780.503906 C 233.832031 783.953125 232.84375 787.386719 231.792969 790.800781 Z M 157.585938 819.484375 C 155.097656 816.601562 152.609375 813.71875 150.125 810.839844 C 149.441406 810.042969 148.292969 811.199219 148.976562 811.988281 C 157.695312 822.09375 166.417969 832.203125 175.140625 842.308594 C 177.628906 845.191406 180.117188 848.074219 182.601562 850.957031 C 183.289062 851.75 184.433594 850.597656 183.753906 849.808594 C 175.03125 839.699219 166.308594 829.59375 157.585938 819.484375 Z M 165.859375 727.792969 C 167.316406 731.289062 168.769531 734.785156 170.226562 738.28125 C 170.621094 739.234375 172.195312 738.816406 171.792969 737.847656 C 166.691406 725.585938 161.589844 713.328125 156.488281 701.066406 C 155.035156 697.570312 153.582031 694.074219 152.125 690.578125 C 151.730469 689.625 150.15625 690.042969 150.558594 691.007812 C 155.660156 703.269531 160.761719 715.53125 165.859375 727.792969 Z M 169.15625 790.84375 C 169.8125 791.660156 170.957031 790.503906 170.304688 789.695312 C 162.589844 780.097656 154.226562 771.03125 145.285156 762.5625 C 144.523438 761.84375 143.371094 762.992188 144.132812 763.714844 C 153.078125 772.179688 161.441406 781.246094 169.15625 790.84375 Z M 268.203125 908.527344 C 258.109375 917.363281 247.210938 925.269531 235.671875 932.113281 C 232.417969 934.046875 229.113281 935.886719 225.761719 937.648438 C 224.835938 938.136719 225.65625 939.539062 226.582031 939.050781 C 238.542969 932.765625 249.902344 925.382812 260.515625 917.023438 C 263.523438 914.652344 266.472656 912.199219 269.355469 909.675781 C 270.140625 908.984375 268.988281 907.839844 268.203125 908.527344 Z M 174.289062 936.992188 C 164.023438 931 154.648438 923.582031 146.453125 914.972656 C 145.730469 914.210938 144.582031 915.363281 145.304688 916.121094 C 153.585938 924.824219 163.09375 932.339844 173.46875 938.394531 C 174.375 938.925781 175.195312 937.519531 174.289062 936.992188 Z M 174.289062 936.992188 " fill-opacity="1" fill-rule="nonzero"/><path fill="#361c37" d="M 317.054688 818.511719 C 309.59375 779.527344 316.324219 749.378906 333.371094 713.535156 C 339.65625 730.894531 339.292969 750.121094 335.363281 768.160156 C 331.4375 786.203125 324.105469 803.304688 316.609375 820.175781 Z M 333.300781 939.0625 C 333.808594 936.453125 334.382812 933.855469 335.019531 931.273438 C 334.605469 931.625 334.195312 931.980469 333.785156 932.332031 Z M 335.019531 931.273438 C 340.101562 926.914062 345.183594 922.550781 350.269531 918.191406 C 360.277344 909.609375 370.375 900.925781 378.210938 890.324219 C 389.085938 875.617188 395.195312 857.441406 395.414062 839.152344 C 365.597656 861.796875 343.957031 894.933594 335.019531 931.273438 Z M 297.039062 898.324219 C 283.804688 888.714844 266.953125 884.308594 255.316406 872.816406 C 256.875 886.039062 263.65625 898.203125 272.347656 908.28125 C 281.042969 918.363281 291.628906 926.601562 302.140625 934.769531 C 310.691406 941.417969 319.832031 948.316406 330.589844 949.582031 L 332.289062 949.554688 C 323.683594 930.421875 314.011719 910.648438 297.039062 898.324219 Z M 297.039062 898.324219 " fill-opacity="1" fill-rule="nonzero"/><g clip-path="url(#e1d4e93b29)"><path fill="#361c37" d="M 414.402344 908.414062 C 414.101562 922.394531 405.828125 935.238281 395.15625 944.273438 C 384.488281 953.308594 371.53125 959.128906 358.769531 964.835938 C 349.941406 968.78125 341.113281 972.726562 332.289062 976.671875 C 332.074219 978.242188 331.851562 979.8125 331.617188 981.378906 C 331.183594 984.234375 330.769531 987.09375 330.226562 989.929688 L 329.460938 994.191406 L 329.074219 996.324219 L 328.632812 998.445312 C 328.03125 1001.265625 327.488281 1004.105469 326.832031 1006.917969 C 326.21875 1009.734375 325.457031 1012.539062 323.167969 1014.921875 C 322.628906 1015.484375 321.734375 1015.503906 321.175781 1014.964844 C 320.996094 1014.792969 320.871094 1014.582031 320.800781 1014.359375 L 320.789062 1014.320312 C 319.832031 1011.136719 320.398438 1008.367188 321.117188 1005.617188 C 321.765625 1002.851562 322.304688 1000.0625 322.90625 997.289062 L 323.347656 995.203125 L 323.730469 993.109375 L 324.496094 988.917969 C 325.035156 986.128906 325.445312 983.320312 325.878906 980.511719 C 325.917969 980.246094 325.957031 979.980469 325.996094 979.714844 L 325.554688 979.992188 C 306.035156 974.542969 285.777344 968.699219 270.671875 955.191406 C 264.917969 950.042969 260.105469 943.933594 255.527344 937.710938 C 249.945312 930.121094 244.664062 922.308594 239.695312 914.300781 C 275.367188 922.242188 307.414062 945.21875 326.484375 976.378906 C 327.867188 966.507812 328.828125 956.578125 329.371094 946.625 C 330.011719 935.28125 330.109375 923.902344 329.671875 912.539062 C 329.484375 907.636719 329.1875 902.734375 328.804688 897.839844 C 313.144531 888.046875 299.652344 875.125 286.308594 862.316406 C 272.664062 849.214844 258.351562 834.957031 254.433594 816.453125 C 285.925781 826.21875 314.457031 856.644531 327.945312 888.378906 C 327.609375 885.097656 327.234375 881.820312 326.816406 878.546875 C 325.371094 867.261719 323.410156 856.039062 321.003906 844.90625 C 320.308594 841.675781 319.570312 838.453125 318.792969 835.242188 C 300.546875 830.171875 284.207031 819.25 271.015625 805.632812 C 257.445312 791.621094 247.027344 774.824219 238.410156 757.324219 C 268.597656 771 298.976562 790.101562 314.335938 818.355469 C 313.710938 816.175781 313.074219 814 312.414062 811.832031 C 309.933594 803.585938 307.199219 795.410156 304.222656 787.320312 C 300.222656 783.738281 297.097656 778.015625 294.042969 774.085938 C 275.441406 750.15625 263.027344 721.464844 258.316406 691.523438 C 276.265625 698.234375 289.789062 713.957031 297.417969 731.535156 C 304.109375 746.945312 304.796875 764.082031 305.511719 780.972656 C 309.488281 790.707031 313.121094 800.582031 316.382812 810.589844 C 319.917969 821.546875 323.011719 832.648438 325.617188 843.875 C 327.160156 850.527344 328.519531 857.226562 329.710938 863.957031 C 332.113281 830.351562 343.972656 797.417969 363.800781 770.15625 C 368.601562 789.886719 365.171875 810.898438 357.828125 829.828125 C 351.261719 846.753906 341.707031 862.300781 331.886719 877.601562 C 331.898438 877.6875 331.914062 877.773438 331.925781 877.863281 C 335.164062 900.695312 336.210938 923.859375 335.082031 946.925781 C 334.785156 952.609375 334.355469 958.289062 333.789062 963.953125 C 334.28125 963.367188 334.777344 962.789062 335.277344 962.226562 C 356.671875 938.125 384.128906 919.453125 414.402344 908.414062 Z M 414.402344 908.414062 " fill-opacity="1" fill-rule="nonzero"/></g><path fill="#361c37" d="M 354.628906 811.125 C 350.984375 823 346.625 834.644531 341.609375 846.007812 C 341.1875 846.964844 339.785156 846.136719 340.207031 845.1875 C 341.617188 841.984375 342.980469 838.757812 344.285156 835.507812 C 348.886719 824.050781 352.804688 812.320312 356.03125 800.398438 C 356.304688 799.390625 357.871094 799.820312 357.597656 800.832031 C 356.664062 804.28125 355.675781 807.710938 354.628906 811.125 Z M 280.421875 839.808594 C 277.933594 836.929688 275.445312 834.046875 272.960938 831.164062 C 272.273438 830.371094 271.128906 831.523438 271.808594 832.3125 C 280.53125 842.421875 289.253906 852.527344 297.976562 862.636719 C 300.464844 865.519531 302.949219 868.402344 305.4375 871.28125 C 306.121094 872.078125 307.269531 870.921875 306.585938 870.132812 C 297.863281 860.027344 289.140625 849.917969 280.421875 839.808594 Z M 288.695312 748.117188 C 290.152344 751.613281 291.605469 755.109375 293.058594 758.605469 C 293.457031 759.558594 295.027344 759.140625 294.628906 758.175781 C 289.527344 745.914062 284.425781 733.652344 279.324219 721.390625 C 277.871094 717.894531 276.414062 714.398438 274.960938 710.902344 C 274.5625 709.949219 272.992188 710.367188 273.394531 711.335938 C 278.492188 723.597656 283.59375 735.855469 288.695312 748.117188 Z M 291.992188 811.167969 C 292.644531 811.984375 293.789062 810.828125 293.140625 810.019531 C 285.425781 800.421875 277.0625 791.355469 268.117188 782.890625 C 267.359375 782.171875 266.207031 783.320312 266.96875 784.039062 C 275.914062 792.503906 284.273438 801.570312 291.992188 811.167969 Z M 391.039062 928.851562 C 380.945312 937.691406 370.046875 945.59375 358.503906 952.441406 C 355.25 954.371094 351.945312 956.214844 348.597656 957.976562 C 347.671875 958.460938 348.492188 959.867188 349.417969 959.378906 C 361.375 953.089844 372.738281 945.710938 383.351562 937.347656 C 386.359375 934.976562 389.304688 932.527344 392.1875 930 C 392.976562 929.3125 391.824219 928.164062 391.039062 928.851562 Z M 297.125 957.320312 C 286.859375 951.328125 277.484375 943.910156 269.289062 935.296875 C 268.566406 934.539062 267.417969 935.691406 268.140625 936.449219 C 276.421875 945.152344 285.925781 952.667969 296.304688 958.722656 C 297.210938 959.25 298.03125 957.847656 297.125 957.320312 Z M 297.125 957.320312 " fill-opacity="1" fill-rule="nonzero"/><g clip-path="url(#55cad2e9aa)"><g clip-path="url(#dbe63465a7)"><g clip-path="url(#6abe917916)"><g clip-path="url(#da17b0ac1f)"><path fill="#361c37" d="M 352.144531 916.214844 C 351.894531 916.0625 351.597656 915.992188 351.332031 915.871094 C 347.535156 914.464844 343.753906 913.011719 340.339844 910.773438 C 334.339844 906.875 327.941406 902.996094 320.546875 902.78125 C 318.785156 902.726562 313.542969 903.085938 313.304688 905.375 C 310.9375 904.050781 308.535156 902.640625 305.875 902.035156 C 308.761719 901.699219 311.644531 901.128906 314.519531 900.136719 C 319.578125 898.539062 324.132812 895.792969 328.480469 892.796875 C 329.332031 892.226562 330.183594 891.65625 331.027344 891.078125 C 333.089844 892.300781 335.371094 893.6875 337.789062 892.75 C 339.800781 891.964844 341.835938 891.046875 343.554688 889.726562 C 346.34375 887.324219 348.753906 884.566406 351.152344 881.804688 C 355.832031 877.171875 361.398438 873.515625 367.109375 870.257812 C 367.6875 869.84375 369.777344 869.304688 368.828125 868.363281 C 367.917969 868.097656 366.957031 868.796875 366.074219 869.03125 C 359.542969 871.914062 352.808594 874.417969 345.753906 875.683594 C 343.597656 875.960938 341.503906 876.578125 339.433594 877.226562 C 337.355469 877.882812 335.242188 878.636719 333.585938 880.125 C 331.03125 882.441406 327.707031 886.59375 330.140625 889.945312 C 327.5 891.746094 324.832031 893.546875 322.066406 895.183594 C 313.324219 900.320312 302.777344 901.859375 292.761719 900.644531 C 293.460938 900.496094 294.042969 900.339844 294.253906 900.242188 C 295.441406 899.695312 296.558594 898.9375 297.464844 897.996094 C 297.78125 897.570312 298.121094 897.152344 298.488281 896.753906 C 299.507812 897.132812 301.414062 896.371094 302.253906 896.113281 C 306.539062 894.726562 309.019531 890.460938 311.226562 886.8125 C 312.539062 883.941406 314.035156 881.335938 316.136719 878.914062 C 319.175781 875.433594 322.609375 872.296875 326.035156 869.203125 C 326.460938 868.890625 326.953125 868.320312 326.3125 867.925781 C 325.976562 867.765625 325.675781 868.042969 325.410156 868.230469 C 323.78125 869.414062 321.90625 870.234375 320.121094 871.238281 C 317.179688 872.832031 314.300781 874.554688 311.171875 875.804688 C 306.421875 877.695312 301.917969 880.320312 298.6875 884.390625 C 297.070312 886.101562 296.378906 888.394531 296.496094 890.71875 C 296.527344 892.636719 296.246094 895.007812 297.949219 896.324219 C 296.714844 897.632812 295.589844 899.070312 293.789062 899.664062 C 292.359375 900.117188 290.8125 900.300781 289.300781 900.253906 C 280.882812 899.175781 272.503906 897.359375 264.007812 897.65625 C 265.683594 897.019531 267.210938 896.046875 268.148438 894.503906 C 268.441406 894.601562 268.746094 894.605469 269.054688 894.605469 C 271.328125 895.300781 273.761719 893.441406 275.75 892.390625 C 278.964844 890.570312 281.597656 887.792969 283.007812 884.359375 C 285.609375 878.402344 289.5625 873.171875 293.414062 867.976562 C 293.949219 867.523438 293.3125 866.714844 292.753906 867.117188 C 289.511719 870 286.507812 873.203125 282.761719 875.476562 C 280.507812 877.328125 267.410156 884.867188 266.25 889.402344 C 265.949219 890.144531 265.847656 890.929688 265.976562 891.710938 C 265.941406 892.066406 266.027344 892.460938 266.160156 892.707031 C 266.203125 892.796875 266.277344 892.855469 266.347656 892.917969 C 266.558594 893.316406 266.820312 893.6875 267.164062 893.984375 C 267.265625 894.066406 267.394531 894.101562 267.496094 894.15625 C 267.472656 894.222656 267.433594 894.296875 267.386719 894.351562 C 267.078125 894.863281 266.59375 895.277344 266.144531 895.679688 C 264.742188 896.910156 262.832031 897.269531 261.0625 897.855469 C 254.511719 898.332031 248.085938 899.867188 241.542969 900.5 C 236.023438 901 230.5 900.882812 224.976562 900.417969 C 225.75 900.042969 226.46875 899.558594 227.058594 898.910156 C 227.871094 897.996094 228.660156 897.027344 229.617188 896.246094 C 229.910156 896.730469 230.246094 897.183594 230.691406 897.539062 C 230.777344 897.625 230.933594 897.660156 231.058594 897.699219 C 231.773438 898.21875 232.746094 898.222656 233.574219 897.917969 C 233.640625 897.886719 233.730469 897.84375 233.824219 897.800781 C 234.0625 897.757812 234.296875 897.71875 234.480469 897.699219 C 239.507812 895.722656 240.964844 889.785156 244.289062 886 C 246.78125 883.648438 249.601562 881.53125 252.367188 879.507812 C 252.882812 879.175781 252.441406 878.332031 251.878906 878.554688 C 250.820312 879.0625 249.738281 879.546875 248.667969 880.027344 C 245.925781 881.261719 243.265625 882.703125 240.316406 883.421875 C 237.0625 884.296875 233.652344 885.121094 231.0625 887.40625 C 228.726562 889.136719 228.058594 892.898438 229.265625 895.597656 C 227.28125 897.253906 225.917969 899.761719 223.21875 900.261719 C 216.398438 899.585938 209.605469 898.378906 202.90625 897.023438 C 198.699219 895.910156 194.542969 894.503906 190.425781 892.972656 C 191.695312 892.804688 192.957031 892.488281 194.066406 891.859375 C 194.800781 891.542969 195.625 891.292969 196.1875 890.707031 C 196.414062 890.953125 196.660156 891.234375 196.90625 891.464844 C 200.683594 894.46875 206.203125 888.175781 208.773438 885.707031 C 211.011719 883.496094 213.414062 881.363281 216.308594 880.066406 C 219.671875 878.609375 222.972656 877.070312 226.175781 875.3125 C 226.355469 875.210938 226.550781 875.121094 226.6875 874.96875 C 227.003906 874.621094 226.691406 874.046875 226.230469 874.085938 C 221.21875 876.082031 215.910156 877.046875 210.652344 878.136719 C 207.808594 878.730469 204.847656 878.867188 202.207031 880.199219 C 199.25 881.703125 195.863281 883.585938 194.757812 886.917969 C 194.375 887.992188 194.671875 889.171875 195.464844 889.984375 C 195.519531 890.054688 195.59375 890.136719 195.660156 890.214844 C 195.210938 890.6875 194.539062 890.863281 193.957031 891.117188 C 192.523438 891.914062 190.902344 892.378906 189.253906 892.390625 C 189.078125 892.386719 188.882812 892.359375 188.695312 892.335938 C 183.15625 890.191406 177.640625 887.882812 172.441406 885.097656 C 169.886719 883.722656 167.472656 882.039062 165.128906 880.261719 C 166.59375 880.347656 167.996094 879.816406 169.789062 879.042969 C 169.800781 879.144531 169.808594 879.226562 169.867188 879.3125 C 170.269531 879.84375 170.648438 880.414062 171.175781 880.839844 C 174.074219 883.167969 177.46875 881.210938 179.847656 879.117188 C 182.882812 876.359375 186.121094 873.871094 189.851562 872.035156 C 190.320312 871.863281 190.628906 871.261719 190.144531 870.925781 C 189.925781 870.765625 189.65625 870.84375 189.425781 870.898438 C 187.359375 871.414062 185.238281 871.523438 183.121094 871.636719 C 179.414062 871.882812 175.414062 871.738281 172.164062 873.792969 C 170.964844 874.4375 168.222656 876.996094 169.539062 878.316406 C 167.878906 879.066406 166.078125 880.023438 164.203125 879.375 C 164.042969 879.324219 163.910156 879.25 163.757812 879.191406 C 161.308594 877.210938 159.035156 875.015625 157.09375 872.535156 C 155.578125 870.585938 154.25 868.417969 152.800781 866.371094 C 161.199219 866.570312 169.640625 866.511719 177.992188 865.4375 C 189.683594 863.863281 201.246094 861.601562 212.78125 859.203125 C 213.078125 859.21875 213.375 859.238281 213.703125 859.296875 C 216.078125 859.597656 218.148438 860.808594 220.28125 861.859375 C 219.171875 864.078125 219.742188 867.082031 221.550781 868.792969 C 224.25 871.355469 228.238281 871.183594 231.714844 871.492188 C 233.796875 871.671875 235.753906 872.097656 237.855469 872.40625 C 246.203125 873.660156 254.183594 876.632812 262.179688 879.296875 C 264.019531 879.886719 265.910156 880.332031 267.839844 880.546875 C 268.070312 880.566406 268.347656 880.570312 268.53125 880.40625 C 269.316406 879.425781 267.582031 878.933594 266.929688 878.515625 C 263.109375 876.429688 259.316406 874.300781 255.671875 871.921875 C 252.367188 869.769531 249.34375 867.242188 246.039062 865.117188 C 241.488281 861.765625 236.363281 858.875 230.773438 858.054688 C 227.34375 856.957031 223.617188 858.128906 221.070312 860.675781 C 220.910156 860.84375 220.789062 861.042969 220.652344 861.234375 C 218.75 860.300781 216.824219 859.289062 214.78125 858.773438 C 222.972656 857.050781 256.21875 850.210938 259.765625 849.339844 C 259.796875 849.332031 259.84375 849.316406 259.875 849.308594 C 262.058594 849.449219 264.214844 850.09375 266.164062 851.117188 C 268.4375 852.03125 270.511719 854.0625 272.945312 854.515625 C 272.636719 856.136719 272.609375 857.832031 273.65625 859.175781 C 275.609375 861.660156 279.222656 861.027344 282.023438 861.039062 C 284.285156 860.875 286.539062 860.90625 288.796875 860.910156 C 295.308594 860.425781 301.691406 862.0625 307.761719 864.460938 C 311.007812 865.722656 314.472656 866.4375 317.945312 866.664062 C 318.179688 866.632812 318.359375 866.449219 318.414062 866.226562 C 318.53125 865.757812 318.03125 865.496094 317.695312 865.332031 C 315.242188 864.136719 312.828125 862.867188 310.550781 861.351562 C 308.070312 859.722656 305.589844 858.070312 303.265625 856.207031 C 299.863281 853.386719 296.367188 850.328125 292.136719 848.867188 C 291.035156 848.539062 289.890625 848.382812 288.722656 848.3125 C 286.238281 847.804688 283.683594 847.609375 281.171875 847.730469 C 279.8125 847.792969 278.441406 847.929688 277.222656 848.535156 C 275.164062 849.164062 273.632812 850.882812 273.269531 853.0625 C 273.207031 853.320312 273.148438 853.597656 273.089844 853.871094 L 273.027344 853.863281 C 270.796875 853.203125 268.898438 851.683594 266.828125 850.644531 C 265.191406 849.832031 263.496094 849.148438 261.714844 848.816406 C 269.464844 846.769531 277.101562 844.285156 284.460938 841.085938 C 288.277344 839.5625 292.089844 838.007812 295.832031 836.324219 C 295.898438 836.304688 295.960938 836.285156 296.019531 836.277344 C 300.734375 834.984375 304.957031 838.300781 309.546875 838.554688 C 309.617188 840.679688 310.105469 843.050781 312.019531 844.285156 C 316.460938 847.132812 322.871094 843.648438 327.441406 842.421875 C 331.058594 841.199219 334.746094 840.410156 338.554688 839.882812 C 345.875 839.296875 353.351562 839.171875 360.542969 837.683594 C 360.796875 837.464844 360.800781 837.117188 360.582031 836.863281 C 360.105469 836.492188 359.449219 836.878906 358.894531 836.769531 C 349.792969 836.035156 340.914062 833.527344 331.996094 831.585938 C 328.417969 830.804688 324.921875 829.148438 321.214844 830 C 317.726562 830.378906 313.578125 830.117188 311.0625 833.070312 C 309.917969 834.414062 309.492188 836.117188 309.535156 837.855469 C 305.585938 837.621094 301.957031 835.019531 297.917969 835.335938 C 300.730469 834.023438 303.507812 832.628906 306.207031 831.0625 C 310.566406 828.460938 314.625 825.402344 318.691406 822.355469 C 322.429688 819.449219 326.003906 816.351562 329.421875 813.078125 C 329.933594 812.800781 330.445312 812.511719 330.96875 812.265625 C 334.121094 811.042969 337.523438 811.027344 340.839844 811.097656 C 341.167969 812.710938 342.039062 814.101562 343.222656 815.226562 C 344.21875 816.230469 345.648438 816.476562 346.984375 816.640625 C 349.816406 817.300781 352.515625 816.414062 355.121094 815.355469 C 358.746094 814.316406 362.332031 812.71875 366.042969 811.859375 C 369.785156 810.613281 373.679688 810.628906 377.625 810.433594 C 381.507812 810.164062 385.449219 809.753906 389.328125 809.34375 C 389.808594 809.25 390.554688 809.449219 391.019531 809.1875 C 391.554688 808.679688 390.964844 808.152344 390.425781 808.160156 C 386.964844 807.503906 383.40625 807.605469 379.953125 806.910156 C 373.910156 805.621094 368.097656 803.367188 362.121094 801.820312 C 358.816406 801.074219 355.328125 800.640625 351.953125 801.152344 C 348.988281 801.410156 346.035156 802.394531 343.808594 804.4375 C 342.792969 805.332031 341.742188 806.289062 341.179688 807.542969 C 340.894531 808.441406 340.707031 809.433594 340.761719 810.398438 C 337.464844 810.285156 334.09375 810.410156 331.007812 811.589844 C 331.101562 811.496094 331.21875 811.402344 331.3125 811.304688 C 336.027344 806.5625 340.214844 801.339844 344.804688 796.484375 C 349.03125 792.207031 353.445312 788.125 358.042969 784.238281 C 358.828125 783.855469 359.648438 783.589844 360.503906 783.394531 C 362.449219 783.09375 364.394531 783.300781 366.332031 783.492188 C 366.792969 783.53125 367.25 783.574219 367.707031 783.570312 C 368.0625 785.828125 368.914062 788.011719 371.054688 789.144531 C 375.636719 792.148438 381.234375 789.910156 386.21875 789.382812 C 391.03125 788.878906 395.835938 789.453125 400.660156 789.558594 C 404.914062 789.652344 409.148438 790.046875 413.410156 790.25 C 414.417969 790.261719 415.441406 790.226562 416.457031 790.226562 C 416.757812 790.21875 417.132812 790.242188 417.347656 789.972656 C 417.820312 789.21875 416.785156 788.910156 416.21875 788.800781 C 414.128906 788.152344 412.011719 787.726562 409.878906 787.304688 C 404.28125 785.867188 398.691406 784.320312 393.371094 782.125 C 387.8125 780.007812 382.28125 777.199219 376.246094 776.894531 C 373.4375 776.796875 367.667969 778.332031 367.492188 781.738281 C 367.519531 782.101562 367.542969 782.464844 367.585938 782.824219 C 365.800781 782.808594 364.015625 782.460938 362.210938 782.535156 C 361.378906 782.539062 360.53125 782.644531 359.71875 782.851562 C 360.984375 781.800781 362.277344 780.75 363.582031 779.722656 C 366.863281 777.152344 370.417969 774.933594 373.925781 772.679688 C 377.675781 770.207031 381.519531 767.832031 385.8125 766.410156 C 388.058594 765.660156 390.332031 764.886719 392.605469 764.085938 C 393.191406 765.082031 394.140625 766.074219 395.617188 767.054688 C 396.167969 767.4375 396.765625 767.636719 397.398438 767.703125 L 397.429688 767.722656 C 399.933594 769.816406 402.867188 767.898438 404.925781 766.136719 C 407.914062 763.925781 410.605469 761.433594 413.890625 759.628906 C 421.8125 754.984375 431.082031 753.582031 439.4375 749.917969 C 440.035156 749.539062 441.113281 749.398438 441.265625 748.617188 C 441.277344 748.140625 440.738281 747.976562 440.355469 748.113281 C 437.085938 748.949219 433.820312 749.894531 430.449219 750.234375 C 424.230469 750.855469 417.953125 750.335938 411.71875 750.148438 C 409.703125 750.21875 407.078125 750.609375 404.464844 751.34375 C 403.796875 751.441406 403.144531 751.578125 402.535156 751.8125 C 397.484375 753.65625 390.800781 758.097656 392.03125 762.78125 C 387.816406 764.257812 383.414062 765.375 379.503906 767.582031 C 376.339844 769.363281 373.25 771.316406 370.207031 773.308594 C 370.835938 772.371094 371.332031 771.523438 371.453125 771.230469 C 372.628906 769.445312 372.4375 767.253906 372.507812 765.195312 C 374.042969 765.441406 375.648438 765.152344 376.621094 764.046875 C 377.679688 763.246094 378.410156 761.828125 379.183594 760.800781 C 381.527344 757.070312 383.15625 752.996094 384.195312 748.730469 C 385.222656 744.941406 385.582031 741.035156 386.691406 737.261719 C 387.316406 734.132812 389.183594 731.511719 390.984375 728.957031 C 392.246094 727.164062 393.289062 725.253906 394.507812 723.441406 C 396.496094 720.890625 397.53125 717.816406 399.027344 714.992188 C 399.242188 714.722656 399.292969 714.339844 398.996094 714.105469 C 398.570312 713.765625 398.148438 714.210938 397.996094 714.609375 C 396.457031 717.527344 394.519531 720.1875 392.277344 722.636719 C 389.332031 725.832031 386.695312 729.335938 383.628906 732.4375 C 380.578125 735.359375 377.222656 737.96875 374.351562 741.101562 C 369.355469 746.449219 360.898438 758.871094 369.929688 764.273438 C 370.03125 764.332031 370.136719 764.335938 370.238281 764.390625 C 370.691406 764.65625 371.21875 764.867188 371.773438 765.027344 C 371.664062 766.453125 371.855469 767.921875 371.507812 769.320312 C 370.996094 770.921875 370.015625 772.425781 369.019531 773.789062 C 368.835938 774.046875 368.628906 774.277344 368.421875 774.527344 C 366.074219 776.113281 363.746094 777.753906 361.53125 779.507812 C 356.4375 783.589844 351.523438 787.875 346.847656 792.425781 C 346.972656 792.109375 347.074219 791.777344 347.132812 791.433594 C 347.4375 789.359375 347.3125 787.171875 346.726562 785.136719 C 347.335938 784.808594 347.9375 784.402344 348.476562 783.980469 C 352.761719 780.375 351.386719 773.101562 350.796875 768.175781 C 350.4375 765.207031 349.195312 762.472656 348.015625 759.746094 C 346.175781 754.449219 344.449219 749.039062 343.832031 743.441406 C 343.445312 739.363281 343.785156 735.097656 343.546875 730.96875 C 343.335938 727.988281 343.089844 725.03125 342.734375 722.050781 C 342.527344 721.578125 341.796875 721.691406 341.707031 722.167969 C 341.554688 724.0625 341.578125 725.945312 341.515625 727.851562 C 341.019531 735.117188 340.734375 742.636719 338.507812 749.628906 C 336.472656 756.058594 334.171875 762.605469 334.5625 769.429688 C 334.761719 775.300781 336.253906 781.90625 341.332031 785.480469 C 341.414062 785.527344 341.511719 785.566406 341.605469 785.617188 C 342.46875 786.285156 343.617188 786.183594 344.621094 785.925781 C 344.742188 785.898438 344.90625 785.839844 345.058594 785.78125 C 345.414062 785.695312 345.742188 785.582031 346.074219 785.445312 C 346.5625 787.199219 346.636719 789.046875 346.484375 790.863281 C 346.375 792.125 345.761719 793.230469 345.050781 794.253906 C 344.234375 795.070312 343.410156 795.886719 342.613281 796.714844 C 337.207031 802.613281 332.183594 808.886719 326.1875 814.207031 C 322.597656 817.40625 318.855469 820.46875 314.96875 823.359375 C 315.921875 821.371094 316.292969 819.128906 316.351562 816.925781 C 316.710938 816.859375 317.074219 816.726562 317.308594 816.644531 C 319.898438 815.375 321.492188 812.714844 322.328125 810.019531 C 323.15625 807.363281 322.457031 804.570312 322.550781 801.839844 C 322.917969 798.621094 323.042969 795.371094 322.976562 792.113281 C 323.226562 791.207031 321.875 791.0625 321.90625 791.972656 C 319.480469 798.039062 312.992188 802.003906 312.273438 808.878906 C 311.714844 811.070312 311.816406 813.519531 313.46875 815.226562 C 313.597656 815.375 313.75 815.539062 313.90625 815.695312 C 314.207031 816.183594 314.738281 816.648438 315.050781 816.835938 C 315.214844 816.925781 315.453125 817.046875 315.679688 817.078125 C 315.40625 819.574219 315.128906 822.203125 313.636719 824.316406 C 310.84375 826.339844 308.035156 828.34375 305.054688 830.078125 C 299.503906 833.316406 293.554688 835.917969 287.546875 838.273438 C 281.710938 840.671875 276.015625 843.109375 269.957031 844.96875 C 263.320312 847.070312 256.558594 848.636719 249.742188 850.050781 C 250.179688 849.046875 250.59375 848.03125 251.007812 847.019531 C 251.964844 845.675781 253.328125 844.734375 254.722656 843.859375 C 257.378906 842.203125 260.738281 841.230469 262.613281 838.574219 C 263.363281 838.882812 264.25 838.878906 265.070312 838.867188 C 266.523438 838.855469 267.984375 838.605469 269.191406 837.75 C 272.71875 835.222656 275.34375 831.691406 278.574219 828.824219 C 280.726562 826.941406 283.035156 825.144531 285.34375 823.4375 C 287.769531 821.882812 290.375 820.609375 292.867188 819.167969 C 295.746094 817.5 298.636719 815.851562 301.457031 814.070312 C 302.390625 813.636719 302.402344 812.386719 301.21875 812.640625 C 299.402344 813 297.691406 813.695312 296 814.429688 C 293.226562 815.261719 290.414062 815.925781 287.550781 816.359375 C 282.753906 817.175781 277.808594 816.902344 273.015625 817.804688 C 268.582031 819 264.648438 822.316406 262.421875 826.40625 C 262.15625 826.886719 261.898438 827.398438 261.671875 827.929688 C 261.601562 828.078125 261.550781 828.222656 261.480469 828.371094 C 260.128906 831.609375 259.550781 835.355469 261.8125 838.304688 C 261.832031 838.34375 261.867188 838.347656 261.890625 838.375 C 261.585938 838.808594 261.152344 839.183594 260.78125 839.539062 C 257.972656 841.6875 254.308594 842.773438 251.707031 845.171875 C 252.222656 843.761719 252.6875 842.320312 253.046875 840.847656 C 254.390625 835.984375 255.460938 831.054688 256.960938 826.246094 C 258.714844 820.59375 261.5625 815.207031 265.355469 810.605469 C 268.902344 806.496094 273.386719 803.179688 277.660156 799.859375 C 278.445312 799.238281 279.214844 798.59375 279.988281 797.96875 C 280.660156 797.605469 281.410156 797.335938 282.164062 797.328125 C 283.824219 797.296875 285.523438 797.488281 287.113281 798.074219 C 287.496094 798.246094 287.886719 798.4375 288.285156 798.539062 C 288.574219 799.324219 289.003906 800.042969 289.597656 800.589844 C 294.214844 803.53125 296.816406 802.550781 300.964844 799.554688 C 304.597656 797.074219 307.933594 794.1875 311.570312 791.707031 C 313.378906 790.421875 315.539062 789.410156 317.394531 788.140625 C 319.253906 786.882812 321.015625 785.488281 322.90625 784.277344 C 323.277344 784.039062 323.828125 783.71875 323.535156 783.207031 C 323.429688 783.015625 323.25 782.957031 323.058594 782.957031 C 322.660156 782.882812 322.066406 783.304688 321.65625 783.316406 C 319.566406 783.738281 317.515625 784.328125 315.421875 784.773438 C 311.78125 785.550781 308.039062 785.765625 304.339844 786.285156 C 302.242188 786.449219 300.125 787.066406 298.113281 787.503906 C 295.964844 787.984375 293.550781 788.160156 291.742188 789.566406 C 289.917969 791.054688 288.832031 793.304688 288.050781 795.492188 C 287.871094 796.195312 287.910156 796.949219 288.0625 797.691406 C 287.472656 797.445312 286.898438 797.179688 286.269531 797.058594 C 284.75 796.738281 283.09375 796.492188 281.527344 796.734375 C 286.144531 792.9375 290.609375 788.9375 294.65625 784.546875 C 298.371094 780.519531 301.847656 776.25 305.332031 772.03125 C 305.367188 771.996094 305.351562 771.949219 305.375 771.90625 C 305.839844 771.308594 306.191406 770.460938 306.578125 769.953125 C 306.972656 769.289062 307.230469 768.601562 307.632812 767.929688 C 307.679688 767.820312 307.765625 767.667969 307.832031 767.515625 C 310.578125 769.199219 313.847656 768.054688 315.554688 765.308594 C 316.820312 763.535156 318.242188 761.808594 319.066406 759.765625 C 320.28125 756.773438 320.972656 753.597656 322.328125 750.644531 C 323.929688 745.671875 326.855469 741.382812 329.882812 737.1875 C 330.28125 736.59375 330.742188 736.046875 331.140625 735.453125 C 331.4375 734.960938 330.765625 734.414062 330.335938 734.777344 C 330.195312 734.886719 330.085938 735.039062 329.96875 735.175781 C 327.695312 737.6875 324.953125 739.714844 322.183594 741.628906 C 319.839844 743.25 317.226562 744.636719 315.273438 746.765625 C 312.492188 749.128906 310.125 751.976562 307.8125 754.800781 C 306.695312 756.390625 305.550781 758.042969 305.128906 759.960938 C 304.800781 762.175781 304.890625 764.789062 306.203125 766.695312 C 306.386719 766.917969 306.652344 767.039062 306.9375 767.101562 C 306.898438 767.296875 306.839844 767.476562 306.742188 767.648438 C 306.042969 768.839844 304.964844 769.875 304.289062 771.117188 C 304.261719 771.144531 304.21875 771.144531 304.191406 771.171875 C 301.4375 774.527344 298.722656 777.785156 295.871094 781.074219 C 291.070312 786.558594 285.707031 791.507812 280.046875 796.101562 C 279.191406 796.804688 278.3125 797.496094 277.4375 798.183594 C 278.605469 795.90625 278.550781 793.226562 278.394531 790.707031 C 279.261719 790.613281 280.09375 789.933594 280.742188 789.410156 C 285.105469 785.957031 285.839844 779.796875 285.523438 774.554688 C 285.109375 771.316406 284.074219 768.160156 284.03125 764.859375 C 284.015625 761.84375 284.097656 758.894531 284.351562 755.878906 C 284.3125 755.242188 284.632812 754.109375 283.898438 753.820312 C 283.476562 753.707031 283.179688 754.105469 283.140625 754.484375 C 282.101562 759.019531 280.15625 763.304688 277.867188 767.34375 C 276.757812 769.273438 275.390625 771.066406 274.605469 773.1875 C 272.484375 778.511719 270.914062 785.839844 275.429688 790.359375 C 276.03125 790.867188 276.890625 791.128906 277.644531 790.851562 C 277.65625 790.953125 277.671875 791.070312 277.675781 791.164062 C 277.917969 793.476562 277.824219 795.914062 276.707031 798.050781 C 276.34375 798.636719 275.980469 799.199219 275.511719 799.703125 C 271.921875 802.488281 268.320312 805.253906 265.226562 808.59375 C 261 813.207031 258.09375 818.914062 255.945312 824.746094 C 255.589844 825.777344 255.289062 826.828125 254.992188 827.867188 C 254.953125 827.554688 254.917969 827.277344 254.898438 827.148438 C 254.488281 825.035156 253.382812 823.097656 251.917969 821.511719 C 253.117188 820.679688 253.976562 819.347656 254.191406 817.917969 C 254.65625 816.714844 254.691406 815.464844 254.550781 814.222656 C 254.910156 810.730469 253.453125 807.105469 250.730469 804.125 C 248.296875 800.8125 247.113281 796.796875 245.765625 792.976562 C 245.480469 792.351562 245.378906 791.355469 244.617188 791.164062 C 244.210938 791.097656 243.941406 791.484375 243.890625 791.84375 C 242.914062 797.832031 240.921875 803.988281 241.429688 810.074219 C 241.546875 812.332031 241.621094 814.660156 242.605469 816.714844 C 242.816406 817.085938 243.03125 817.445312 243.25 817.824219 C 243.515625 818.890625 245.472656 820.886719 245.960938 821.117188 C 247.285156 821.769531 248.769531 822.5625 250.28125 822.277344 C 250.640625 822.207031 250.957031 822.023438 251.28125 821.867188 C 253.3125 824.238281 254.707031 827.109375 254.34375 830.34375 C 253.898438 832.117188 253.46875 833.882812 252.960938 835.621094 C 252.136719 838.605469 251.457031 841.542969 250.460938 844.480469 C 249.714844 846.476562 248.878906 848.449219 248.027344 850.394531 C 241.050781 851.816406 234.046875 853.113281 227.109375 854.671875 C 219.683594 856.152344 212.347656 858.027344 204.921875 859.4375 C 202.367188 859.867188 199.824219 860.332031 197.28125 860.792969 C 200.140625 858.941406 202.261719 856.144531 203.988281 853.222656 C 208.769531 855.601562 213.484375 851.3125 216.011719 847.496094 C 217.65625 845.105469 219.652344 842.90625 220.847656 840.238281 C 221.636719 838.523438 221.480469 836.605469 222.019531 834.816406 C 223.429688 830.527344 225.808594 826.644531 227.75 822.585938 C 227.910156 822.152344 228.464844 821.535156 228.242188 821.117188 C 227.84375 821.324219 227.410156 821.484375 226.964844 821.613281 C 226.785156 821.863281 226.597656 822.105469 226.410156 822.347656 C 223.554688 825.742188 220.871094 829.472656 217.433594 832.371094 C 213.113281 835.488281 195.28125 847.238281 203.375 852.855469 C 202.695312 853.988281 202.035156 855.136719 201.222656 856.183594 C 199.816406 857.785156 198.367188 859.417969 196.515625 860.53125 C 196.015625 860.789062 195.492188 861.007812 194.96875 861.199219 C 188.003906 862.476562 181.039062 863.730469 173.992188 864.453125 C 166.671875 865.132812 159.15625 865.0625 151.742188 864.929688 C 151.121094 864.917969 149.308594 864.878906 149.03125 864.875 C 144.011719 864.859375 138.992188 864.742188 133.988281 864.3125 C 120.402344 863.515625 107.019531 860.972656 93.519531 859.296875 C 95.332031 857.011719 97.289062 854.832031 99.570312 853.007812 C 103.90625 849.523438 109.296875 847.882812 114.4375 845.984375 C 115.910156 845.472656 117.339844 844.902344 118.761719 844.285156 C 120.316406 843.917969 121.929688 843.980469 123.519531 844.21875 C 125.734375 844.5625 127.945312 845.597656 130.199219 845.441406 C 130.324219 847.144531 131.640625 848.730469 132.835938 849.859375 C 135.332031 851.988281 138.683594 850.570312 141.449219 849.800781 C 144.925781 848.839844 148.523438 847.996094 152.132812 847.585938 C 156.691406 847.34375 161.296875 848.035156 165.867188 847.757812 C 167.042969 847.660156 166.734375 846.550781 165.792969 846.367188 C 162.429688 845.386719 159.089844 844.367188 155.917969 842.851562 C 153.652344 841.824219 151.402344 840.644531 148.945312 840.207031 C 146.890625 839.789062 144.800781 839.792969 142.777344 840.402344 C 140.234375 839.660156 137.5 839.578125 134.882812 840.027344 C 132.707031 840.425781 131.070312 842.222656 130.300781 844.214844 C 130.253906 844.375 130.242188 844.542969 130.21875 844.707031 C 127.125 844.957031 124.097656 843.054688 120.917969 843.3125 C 124.164062 841.820312 127.355469 840.21875 130.59375 838.734375 C 131.933594 838.152344 135.617188 836.527344 136.132812 836.292969 C 140.703125 834.277344 145.234375 832.171875 149.5625 829.648438 C 152.226562 828.167969 154.84375 826.609375 157.402344 824.960938 C 159.054688 824.390625 160.867188 824.257812 162.59375 824.46875 C 163.898438 824.695312 165.097656 825.574219 166.351562 826.066406 C 166.296875 826.453125 166.273438 826.855469 166.332031 827.257812 C 166.34375 827.386719 166.363281 827.515625 166.398438 827.644531 C 166.609375 828.710938 167.308594 829.648438 168.160156 830.332031 C 169.492188 831.578125 171.421875 831.617188 173.164062 831.632812 C 177.640625 831.664062 181.644531 829.628906 185.792969 828.316406 C 189.515625 827.632812 193.335938 827.570312 196.96875 826.414062 C 198.789062 825.976562 200.652344 825.777344 202.515625 825.527344 C 203.121094 825.449219 203.0625 824.492188 202.46875 824.457031 C 198.109375 824.238281 193.929688 822.628906 189.804688 821.308594 C 187.296875 820.507812 184.882812 819.238281 182.183594 819.308594 C 181.351562 819.289062 180.523438 819.3125 179.691406 819.386719 C 175.527344 819.007812 171.074219 819.496094 168.269531 822.769531 C 167.511719 823.488281 166.902344 824.367188 166.5625 825.34375 C 166.535156 825.324219 166.488281 825.3125 166.457031 825.296875 C 165.03125 824.773438 163.785156 823.789062 162.234375 823.695312 C 161.195312 823.613281 160.164062 823.667969 159.140625 823.824219 C 161.8125 822.042969 164.449219 820.199219 166.878906 818.109375 C 172.664062 813.140625 177.785156 807.378906 182.273438 801.199219 L 182.347656 801.1875 C 183.1875 800.515625 184.101562 800.027344 185.109375 799.558594 C 186.832031 798.546875 188.757812 798.183594 190.703125 797.882812 C 190.875 799.097656 191.386719 800.292969 192.101562 801.226562 C 196.796875 805.523438 203.472656 801.679688 208.164062 799.273438 C 211.644531 798.246094 215.289062 797.828125 218.8125 796.945312 C 220.773438 796.46875 222.777344 796.160156 224.6875 795.492188 C 225.011719 795.242188 224.910156 794.679688 224.53125 794.5625 C 223.855469 794.429688 223.164062 794.449219 222.492188 794.355469 C 219.097656 793.894531 215.800781 793.566406 212.429688 792.796875 C 209.691406 792.164062 206.914062 791.53125 204.082031 791.542969 C 203.980469 791.539062 203.890625 791.558594 203.785156 791.554688 C 200.339844 791.15625 193.199219 791.761719 191.363281 794.597656 C 191.300781 794.65625 191.226562 794.695312 191.175781 794.761719 C 190.777344 795.503906 190.613281 796.335938 190.628906 797.171875 C 188.839844 797.4375 187.0625 797.722656 185.441406 798.59375 C 185.148438 798.765625 184.234375 799.15625 183.394531 799.613281 C 183.957031 798.8125 184.535156 798.035156 185.070312 797.238281 C 190.296875 789.539062 193.992188 781.035156 198.386719 772.878906 C 198.644531 772.390625 198.941406 771.925781 199.207031 771.445312 C 201.242188 769.363281 203.40625 767.148438 206.300781 766.480469 C 206.84375 766.300781 207.40625 766.25 207.984375 766.25 C 207.964844 766.304688 207.960938 766.359375 207.949219 766.40625 C 206.863281 768.316406 208.210938 770.546875 209.816406 771.703125 C 215.414062 775.140625 223.464844 772.65625 229.328125 770.980469 C 233.347656 770.144531 237.460938 770.46875 241.539062 770.683594 C 244.316406 771.03125 247.089844 770.761719 249.863281 770.652344 C 250.109375 770.640625 250.320312 770.570312 250.445312 770.347656 C 250.773438 769.511719 249.640625 769.460938 249.105469 769.269531 C 244.402344 767.640625 239.492188 766.632812 235 764.429688 C 230.765625 762.390625 226.234375 761.058594 221.644531 760.054688 C 219.410156 759.550781 217.300781 759.492188 215.421875 760.109375 C 214.332031 760.3125 212.621094 761.207031 212.199219 761.414062 C 210.597656 762.347656 208.894531 763.757812 208.199219 765.539062 C 206.742188 765.589844 205.292969 765.867188 203.984375 766.535156 C 203.589844 766.691406 202.003906 767.871094 200.558594 769.105469 C 203.472656 764.300781 206.914062 759.824219 211.039062 756 C 215.976562 751.523438 221.398438 747.625 226.976562 743.976562 C 228.34375 743.609375 229.839844 743.636719 231.230469 743.777344 C 232.941406 744.097656 234.253906 745.492188 235.953125 745.925781 C 236.269531 746.101562 236.574219 746.230469 236.863281 746.308594 C 236.867188 746.351562 236.863281 746.386719 236.863281 746.429688 C 236.851562 746.527344 236.816406 746.617188 236.816406 746.710938 C 237.089844 748.949219 238.742188 750.933594 240.597656 752.121094 C 242.503906 753.324219 244.824219 753.285156 246.964844 752.945312 C 249.886719 752.8125 252.761719 752.332031 255.519531 751.332031 C 259.695312 749.683594 264.160156 749.136719 268.574219 748.332031 C 270.035156 747.964844 271.695312 747.988281 273.035156 747.351562 C 273.546875 746.601562 272.601562 746.347656 272.027344 746.324219 C 267.859375 745.59375 263.71875 744.210938 259.609375 743.152344 C 257.1875 742.503906 254.921875 741.210938 252.433594 740.730469 C 250.179688 740.28125 247.847656 740.339844 245.589844 740.792969 C 243.90625 741.128906 240.28125 741.636719 239 743.226562 C 238.171875 743.824219 237.613281 744.785156 237.082031 745.628906 C 235.820312 745.078125 234.472656 744.636719 233.339844 743.835938 C 231.910156 742.84375 230.121094 742.910156 228.457031 743.019531 C 231.515625 741.046875 234.589844 739.070312 237.726562 737.265625 C 242.878906 734.316406 248.125 731.578125 253.304688 728.695312 C 253.476562 728.777344 253.625 728.820312 253.761719 728.8125 C 254.207031 729.140625 254.640625 729.472656 255.082031 729.8125 C 255.234375 729.949219 255.394531 730.09375 255.550781 730.21875 C 256.148438 730.738281 256.648438 731.429688 257.332031 731.808594 C 259.035156 732.523438 261.011719 732.027344 262.761719 731.6875 C 266.542969 730.730469 269.296875 727.613281 271.808594 724.792969 C 274.519531 721.132812 277.070312 717.34375 280.015625 713.839844 C 284.605469 707.460938 291.050781 702.820312 296.570312 697.300781 C 297.992188 695.816406 299.53125 694.4375 300.910156 692.914062 C 301.054688 692.726562 301.214844 692.535156 301.195312 692.28125 C 300.890625 690.75 298.59375 693.113281 297.878906 693.441406 C 293.289062 696.636719 288.632812 699.875 283.472656 702.042969 C 276.945312 704.796875 269.863281 706.089844 263.34375 708.859375 C 257.457031 711.375 251.144531 716.128906 251.136719 723.214844 C 251.132812 724.75 250.957031 726.5625 251.949219 727.835938 C 244.273438 732.132812 236.390625 736.058594 229.023438 740.910156 C 227.285156 742.019531 225.652344 743.082031 224.085938 744.125 C 225.257812 742.902344 226.398438 741.664062 227.148438 740.113281 C 228.277344 737.808594 229.613281 735.058594 228.5625 732.539062 C 228.667969 732.714844 228.898438 732.828125 229.152344 732.757812 C 231.476562 731.597656 232.734375 728.65625 233.714844 726.378906 C 235.8125 721.480469 234.402344 715.910156 233.695312 710.8125 C 233.035156 707.828125 233.207031 704.6875 233.335938 701.628906 C 234.136719 697.121094 235.214844 692.636719 236.4375 688.234375 C 236.539062 687.953125 236.402344 687.640625 236.132812 687.527344 C 235.402344 687.324219 235.285156 688.304688 234.917969 688.730469 C 232.625 692.195312 230.859375 695.988281 228.621094 699.496094 C 226.40625 702.9375 223.894531 706.242188 221.636719 709.671875 C 217.457031 715.957031 215.398438 725.664062 221.667969 731.128906 C 222.589844 731.929688 223.761719 732.367188 224.917969 732.699219 C 225.730469 732.921875 226.636719 733.167969 227.472656 732.964844 C 227.617188 732.992188 227.746094 732.929688 227.859375 732.84375 C 229.03125 735.847656 226.804688 739.574219 225.078125 741.972656 C 224.703125 742.625 222.496094 744.53125 221.648438 745.773438 C 212.429688 752.15625 206.195312 757.957031 200.71875 766.183594 C 200.875 765.292969 200.898438 764.382812 200.757812 763.453125 C 200.621094 761.234375 200.28125 758.976562 199.460938 756.886719 C 199.734375 756.652344 200.023438 756.398438 200.292969 756.132812 C 200.414062 756.105469 200.515625 756.042969 200.59375 755.949219 C 200.898438 755.640625 201.167969 755.320312 201.402344 754.96875 L 201.792969 754.554688 C 201.898438 754.414062 201.9375 754.273438 201.90625 754.136719 C 202.542969 752.9375 202.859375 751.589844 203.210938 750.257812 C 203.773438 748.082031 204.300781 745.847656 204.097656 743.582031 C 203.65625 738.683594 201.367188 734.195312 200.457031 729.34375 C 200.15625 725.632812 199.945312 721.890625 199.503906 718.195312 C 199.472656 717.816406 199.453125 717.273438 199.457031 716.875 C 199.386719 716.257812 198.476562 716.277344 198.390625 716.871094 C 197.558594 720.863281 196.382812 724.894531 195.332031 728.84375 C 194.257812 731.554688 193.199219 734.429688 192.558594 737.300781 C 191.203125 743.449219 188.144531 752.28125 194.496094 756.601562 C 195.320312 757.164062 196.335938 757.699219 197.34375 757.667969 C 197.703125 757.933594 198.261719 757.722656 198.859375 757.316406 C 199.558594 759.148438 199.863281 761.136719 200.019531 763.097656 C 200.203125 764.84375 200.203125 766.367188 199.398438 767.980469 C 199.363281 768.070312 199.378906 768.144531 199.40625 768.210938 C 196.925781 772.1875 194.566406 776.710938 192.097656 782.109375 C 189.128906 788.585938 185.304688 794.449219 181.238281 800.316406 C 179.257812 803.046875 177.101562 805.636719 174.835938 808.136719 C 175.457031 806.410156 175.75 804.550781 175.75 802.71875 C 175.765625 801.070312 175.351562 799.449219 175.023438 797.851562 C 174.746094 796.976562 174.367188 796.109375 174.34375 795.1875 C 174.800781 795.066406 175.25 794.953125 175.664062 794.757812 C 177.589844 793.84375 178.902344 792.175781 179.816406 790.300781 C 182.671875 785.824219 183.101562 780.3125 182.097656 775.195312 C 181.667969 771.027344 178.875 767.636719 178.144531 763.523438 C 177.679688 761.757812 177.375 759.984375 176.984375 758.203125 C 176.691406 757.574219 176.835938 755.792969 175.851562 755.929688 C 175.59375 755.988281 175.417969 756.253906 175.460938 756.515625 C 175.550781 760.550781 174.695312 764.703125 173.824219 768.648438 C 172.304688 774.9375 164.867188 790.902344 172.554688 794.917969 C 172.730469 795.109375 173.015625 795.269531 173.277344 795.132812 C 173.363281 795.246094 173.484375 795.3125 173.621094 795.335938 C 173.667969 796.097656 173.902344 796.855469 174.175781 797.570312 C 174.710938 799.523438 175.113281 801.550781 175.03125 803.578125 C 174.875 805.671875 174.46875 807.855469 173.375 809.710938 C 171.34375 811.859375 169.296875 814.03125 167.113281 816.019531 C 160.199219 822.300781 151.910156 826.882812 143.640625 831.210938 C 141.199219 832.410156 138.722656 833.554688 136.222656 834.683594 C 136.230469 832.910156 135.984375 831.101562 135.664062 829.292969 C 135.777344 828.191406 135.964844 827.132812 136.449219 826.117188 C 137.789062 823.019531 140.789062 820.765625 141.542969 817.449219 C 142.710938 817.992188 144.011719 818.617188 145.277344 818.140625 C 149.851562 815.242188 149.34375 805.386719 150.382812 800.46875 C 151.375 795.078125 153.71875 790 155.917969 784.996094 C 157.035156 782.273438 157.679688 779.394531 158.667969 776.625 C 158.835938 775.957031 159.800781 774.1875 158.445312 774.292969 C 157.664062 774.8125 157.578125 775.859375 157.089844 776.671875 C 154.375 782.390625 151.394531 788.1875 147.21875 793.019531 C 145.527344 795.035156 143.65625 797.089844 141.886719 799.078125 C 139.964844 801.144531 137.863281 803.109375 137.019531 805.90625 C 136.570312 807.421875 136.617188 809.027344 136.710938 810.574219 C 136.707031 812.820312 137.292969 815.242188 139.28125 816.53125 C 139.738281 816.839844 140.269531 817.132812 140.835938 817.203125 C 140.746094 817.773438 140.664062 818.355469 140.359375 818.855469 C 138.679688 821.628906 136.222656 824.132812 135.292969 827.257812 C 135.046875 825.941406 134.792969 824.636719 134.617188 823.363281 C 133.886719 817.863281 132.421875 812.519531 131.152344 807.136719 C 129.640625 801.097656 129.398438 794.890625 130.027344 788.738281 C 130.25 788.527344 130.289062 788.042969 130.46875 787.792969 C 131.472656 785.5 133.097656 783.605469 134.882812 781.851562 C 136.300781 780.40625 137.378906 778.675781 138.34375 776.910156 C 139.796875 778.195312 142.1875 777.59375 143.957031 777.15625 C 148.066406 775.070312 148.546875 769.90625 150.3125 766.113281 C 151.121094 764.460938 152.117188 762.710938 153.363281 761.277344 C 154.8125 759.605469 156.527344 758.148438 157.566406 756.15625 C 157.945312 755.320312 158.726562 754.496094 158.691406 753.542969 C 158.421875 752.777344 157.554688 753.230469 157.1875 753.671875 C 155.351562 755.492188 153.367188 757.09375 151.054688 758.324219 C 149.125 759.34375 147.011719 759.953125 145.136719 761.066406 C 143.011719 762.65625 140.640625 763.992188 138.882812 766.027344 C 136.691406 768.757812 135.539062 773.203125 137.773438 776.21875 C 137.800781 776.246094 137.824219 776.273438 137.847656 776.300781 C 137.0625 777.722656 136.320312 779.183594 135.222656 780.394531 C 133.472656 782.34375 131.554688 784.238281 130.300781 786.550781 C 130.492188 785.171875 130.707031 783.792969 130.972656 782.417969 C 131.851562 776.992188 133.4375 771.636719 135.792969 766.617188 C 139.542969 758.609375 145.542969 752.050781 151.167969 745.347656 C 154.769531 741.019531 158.082031 736.460938 160.894531 731.574219 C 162.410156 729.027344 163.921875 726.496094 165.453125 723.972656 L 165.464844 723.898438 C 165.527344 723.8125 165.585938 723.726562 165.632812 723.644531 C 165.738281 723.289062 166.367188 722.539062 166.820312 721.839844 C 170.203125 723.195312 174.078125 720.617188 175.8125 717.726562 C 177.960938 712.230469 178.5625 706.210938 180.3125 700.589844 C 182.195312 694.367188 186.757812 689.460938 189.863281 683.851562 C 190.339844 683.019531 190.789062 682.25 191.335938 681.457031 C 191.574219 681.121094 191.945312 680.699219 191.5625 680.324219 C 191.296875 680.058594 190.859375 680.191406 190.679688 680.492188 C 186.378906 685.601562 180.804688 689.558594 175.742188 693.898438 C 172.566406 696.632812 169.203125 699.519531 167.050781 703.167969 C 165.242188 705.804688 163.089844 708.554688 162.996094 711.886719 C 162.367188 715.125 162.878906 719.152344 165.585938 721.199219 C 165.160156 721.792969 164.804688 722.4375 164.445312 723.082031 C 164.359375 723.140625 164.257812 723.179688 164.203125 723.28125 C 161.265625 728.03125 158.652344 732.871094 155.429688 737.480469 C 152.105469 742.324219 148.09375 746.667969 144.320312 751.1875 C 144.628906 750.460938 144.894531 749.738281 144.996094 748.953125 C 145.160156 747.691406 145.015625 746.410156 144.910156 745.148438 C 144.84375 744.375 144.839844 743.585938 144.9375 742.808594 C 147.382812 742.15625 149.761719 739.554688 149.652344 737.074219 C 149.945312 733.8125 149.746094 730.507812 148.46875 727.472656 C 148.007812 725.238281 148.742188 722.945312 149.222656 720.75 C 149.910156 717.117188 150.761719 713.308594 150.617188 709.632812 C 150.121094 708.984375 149.53125 709.660156 149.4375 710.222656 C 147.941406 714.851562 145.269531 719.027344 143.476562 723.542969 C 142.585938 725.683594 141.699219 727.84375 141.019531 730.058594 C 140.425781 731.5625 140.105469 733.179688 140.03125 734.808594 C 139.886719 736.933594 139.640625 739.285156 140.816406 741.195312 C 141.644531 742.574219 142.875 743.058594 144.144531 742.957031 C 144.046875 744.75 144.480469 747.542969 144.351562 748.140625 C 144.332031 749.9375 143.308594 751.546875 142.671875 753.203125 C 140.691406 755.664062 138.804688 758.203125 137.175781 760.925781 C 132.789062 768.175781 130.238281 776.351562 129.140625 784.730469 C 128.808594 786.539062 128.597656 788.375 128.457031 790.195312 C 127.878906 788.582031 127.574219 786.914062 127.589844 785.167969 C 127.308594 783.019531 126.3125 781.078125 125.394531 779.136719 C 125.457031 779.121094 125.507812 779.121094 125.566406 779.089844 C 127.398438 778.054688 127.597656 775.855469 127.699219 773.957031 C 128.027344 771.023438 127.101562 768.183594 126.269531 765.410156 C 124.992188 761.171875 122.707031 757.324219 119.914062 753.945312 C 116.796875 749.023438 115.605469 743.175781 112.929688 738.015625 C 112.726562 737.675781 112.644531 737.199219 112.261719 737.042969 C 111.988281 736.933594 111.667969 737.078125 111.558594 737.347656 C 111.554688 740.421875 112.875 743.347656 113.105469 746.414062 C 113.699219 750.917969 113.964844 755.464844 114.253906 760.011719 C 114.652344 766.464844 114.699219 774.058594 119.554688 778.914062 C 120.652344 779.75 122.039062 780.289062 123.4375 780.183594 C 123.878906 780.183594 124.554688 780.050781 124.851562 779.679688 C 124.898438 779.789062 124.957031 779.902344 124.996094 780 C 125.75 781.464844 126.398438 782.972656 126.777344 784.585938 C 127.019531 785.667969 126.8125 786.785156 127.082031 787.871094 C 127.332031 789.453125 127.964844 790.914062 128.351562 792.4375 C 128.128906 798.078125 128.71875 803.726562 130.164062 809.210938 C 131.527344 814.523438 132.714844 819.863281 133.484375 825.304688 C 133.832031 827.796875 134.5 830.332031 134.726562 832.867188 C 133.796875 832.136719 132.621094 831.820312 131.558594 831.324219 C 129.800781 830.539062 128.175781 829.410156 127.234375 827.726562 C 128.605469 827.015625 129.917969 825.832031 129.722656 824.636719 C 129.996094 821.660156 129.078125 818.558594 126.90625 816.445312 C 125.671875 815.027344 124.242188 813.742188 122.582031 812.832031 C 119.324219 811.058594 116.207031 808.984375 113.203125 806.796875 C 111.21875 804.949219 109.609375 802.640625 107.757812 800.597656 C 106.496094 799.230469 104.835938 798.246094 103.765625 796.675781 C 103.558594 796.320312 103.238281 795.890625 102.792969 796.164062 C 102.554688 796.300781 102.476562 796.589844 102.578125 796.835938 C 104.105469 800.742188 107.4375 803.566406 108.945312 807.460938 C 110.265625 810.628906 111.535156 813.816406 112.734375 817.035156 C 113.753906 820.316406 114.710938 823.855469 117.082031 826.476562 C 119.132812 828.695312 122.53125 828.375 125.292969 828.390625 C 125.644531 828.359375 126.089844 828.230469 126.546875 828.054688 C 127.523438 830.011719 129.683594 831.304688 131.648438 832.152344 C 132.769531 832.664062 134.257812 832.992188 134.761719 834.207031 C 134.769531 834.574219 134.800781 834.953125 134.78125 835.332031 C 129.957031 837.5 125.089844 839.644531 120.375 842.023438 C 114.390625 844.886719 107.785156 846.308594 102.011719 849.613281 C 97.917969 851.957031 94.703125 855.394531 91.851562 859.097656 C 91.796875 859.09375 91.761719 859.089844 91.710938 859.085938 C 85.886719 858.203125 79.992188 857.785156 74.105469 858.054688 C 59.996094 859 45.109375 862.097656 34.285156 871.765625 C 32.148438 873.589844 30.046875 875.460938 27.988281 877.382812 C 27.703125 877.640625 27.722656 878.132812 28.003906 878.394531 C 28.265625 878.671875 28.730469 878.652344 29.015625 878.378906 C 29.796875 877.648438 30.597656 876.929688 31.394531 876.207031 C 34.707031 873.320312 37.933594 870.226562 41.777344 868.035156 C 53.917969 861.210938 68.28125 858.75 82.066406 859.523438 C 85.011719 859.683594 87.941406 860.046875 90.878906 860.390625 C 91.394531 860.449219 92.484375 860.585938 92.519531 860.589844 C 95.527344 860.960938 98.53125 861.40625 101.523438 861.84375 C 105.980469 863.378906 109.789062 866.449219 112.867188 870 C 111.222656 870.453125 110.1875 872.058594 110.347656 873.753906 C 110.492188 877.644531 113.347656 880.601562 115.808594 883.332031 C 118.796875 886.628906 122.066406 889.632812 125.410156 892.554688 C 127.804688 894.65625 129.335938 897.46875 131.003906 900.132812 C 134.632812 904.976562 138.179688 909.949219 142.0625 914.574219 C 142.339844 914.726562 142.710938 914.636719 142.835938 914.332031 C 143.011719 913.777344 142.515625 913.300781 142.335938 912.800781 C 141.417969 911.125 140.894531 909.339844 140.136719 907.542969 C 137.703125 901.796875 136.953125 895.640625 136.066406 889.519531 C 134.894531 882.117188 130.367188 875.199219 123.875 871.324219 C 121.132812 869.683594 117.699219 867.699219 114.761719 869.378906 C 114.339844 869.464844 113.910156 869.5625 113.539062 869.703125 C 112.3125 868.273438 110.976562 866.917969 109.554688 865.691406 C 107.953125 864.308594 106.164062 863.144531 104.269531 862.21875 C 108.339844 862.8125 112.40625 863.417969 116.46875 863.957031 C 127.902344 865.621094 139.457031 866.324219 151.019531 866.335938 C 152.722656 868.640625 154.203125 871.1875 155.957031 873.429688 C 156.160156 873.6875 156.40625 873.917969 156.625 874.175781 C 157.222656 876.257812 156.855469 878.539062 156.75 880.714844 C 156.773438 881.515625 157 882.285156 157.300781 883.027344 C 156.113281 883.332031 155.507812 885.804688 155.449219 886.828125 C 154.941406 889.675781 155.890625 892.476562 157.425781 894.851562 C 161.328125 900.863281 165.46875 906.765625 168.71875 913.140625 C 170.265625 913.730469 169.265625 910.847656 169.308594 910.070312 C 168.984375 906.335938 168.980469 902.574219 168.808594 898.828125 C 168.894531 892.804688 168.59375 888.785156 163.460938 884.871094 C 162.523438 884.046875 159.042969 881.449219 158.023438 882.90625 C 157.261719 881.332031 157.527344 879.59375 157.679688 877.898438 C 157.746094 877.027344 157.730469 876.136719 157.613281 875.269531 C 161.527344 879.644531 166.289062 883.214844 171.359375 886.132812 C 173.832031 887.488281 176.40625 888.683594 178.992188 889.835938 C 180.351562 890.882812 181.523438 892.171875 182.644531 893.476562 C 183.4375 894.34375 183.992188 895.320312 184.519531 896.375 C 184.84375 896.941406 185.246094 897.445312 185.660156 897.957031 C 184.195312 898.695312 183.121094 900.027344 183.148438 901.941406 C 183.015625 904.113281 184.171875 905.984375 185.609375 907.515625 C 187.5 909.78125 189.703125 911.761719 191.511719 914.101562 C 195.03125 918.804688 196.980469 924.460938 200.285156 929.3125 C 200.476562 929.738281 201.117188 929.839844 201.339844 929.386719 C 201.457031 927.941406 200.410156 926.597656 200.132812 925.1875 C 199.429688 921.949219 199.210938 918.644531 198.542969 915.335938 C 198.140625 912.316406 197.792969 909.207031 196.363281 906.449219 C 195.664062 903.722656 195.078125 900.65625 192.777344 898.796875 C 191.15625 897.253906 188.484375 896.914062 186.363281 897.652344 C 185.585938 896.644531 184.859375 895.613281 184.28125 894.4375 C 183.382812 893.109375 182.28125 891.9375 181.160156 890.796875 C 184.863281 892.367188 188.625 893.808594 192.371094 895.253906 C 196.066406 896.699219 199.863281 897.785156 203.71875 898.648438 C 207.820312 900.734375 209.507812 905.558594 213.15625 908.167969 C 213 908.429688 212.855469 908.710938 212.765625 909.023438 C 210.820312 913.667969 216.042969 916.292969 219.496094 917.976562 C 221.648438 919.0625 223.746094 920.050781 225.703125 921.523438 C 228.042969 923.40625 229.820312 926.089844 232.394531 927.714844 C 234.0625 928.761719 235.882812 929.554688 237.65625 930.386719 C 238.128906 930.691406 238.761719 930.25 238.511719 929.710938 C 238.253906 929.449219 238.039062 929.140625 237.808594 928.855469 C 237.542969 928.46875 236.410156 926.742188 236.09375 926.273438 C 235.613281 925.40625 235.164062 924.527344 234.691406 923.664062 C 234.328125 922.96875 233.917969 922.285156 233.539062 921.59375 C 233.042969 920.507812 232.566406 919.414062 232.164062 918.28125 C 230.601562 915.019531 228.472656 911.929688 225.90625 909.371094 C 224.855469 908.347656 223.558594 907.644531 222.175781 907.199219 C 219.332031 905.785156 216.253906 905.1875 213.78125 907.644531 C 210.472656 905.503906 208.816406 901.472656 205.746094 899.046875 C 208.769531 899.667969 211.839844 900.191406 214.894531 900.613281 C 220.535156 901.488281 226.226562 902.152344 231.921875 902.273438 L 231.984375 902.304688 C 235.605469 902.332031 237.992188 905.511719 240.84375 907.292969 C 240.988281 907.371094 241.128906 907.453125 241.261719 907.527344 C 241.21875 907.605469 241.132812 907.667969 241.121094 907.753906 C 240.546875 908.09375 240.597656 909.644531 240.527344 910.179688 C 240.597656 912.761719 242.765625 914.402344 244.535156 915.957031 C 246.203125 917.46875 247.792969 919.058594 249.792969 920.136719 C 253.039062 921.976562 256.535156 923.296875 260.023438 924.574219 C 264 926.429688 267.707031 928.910156 271.347656 931.339844 C 272.152344 932.066406 272.84375 930.84375 271.917969 930.414062 C 269.300781 927.652344 266.582031 924.957031 264.183594 921.945312 C 262.214844 919.074219 260.164062 916.214844 258.398438 913.21875 C 256.261719 909.277344 252.761719 906.417969 248.28125 905.59375 C 246.839844 905.332031 245.304688 905.03125 243.882812 905.550781 C 243.195312 905.800781 241.84375 906.136719 241.507812 906.84375 C 239.230469 905.398438 237.300781 903.40625 234.855469 902.238281 C 235.773438 902.226562 236.667969 902.253906 237.574219 902.207031 C 243.324219 902.019531 248.945312 900.921875 254.59375 899.996094 C 258.328125 899.390625 262.113281 899.09375 265.910156 899.097656 C 268.203125 899.667969 270.335938 900.933594 272.125 902.457031 C 272.992188 903.378906 273.839844 904.34375 274.78125 905.199219 C 274.742188 905.242188 274.671875 905.273438 274.628906 905.328125 C 274.359375 905.765625 273.933594 906.269531 273.976562 906.796875 L 273.957031 906.828125 C 273.730469 907.480469 273.648438 908.140625 273.640625 908.804688 L 273.605469 908.839844 C 273.617188 908.871094 273.628906 908.894531 273.640625 908.925781 C 273.65625 909.886719 273.910156 910.828125 274.339844 911.695312 C 275.023438 913.503906 276.304688 915.148438 277.824219 916.269531 C 279.832031 917.542969 282.046875 918.328125 284.324219 918.976562 C 287.015625 920.105469 289.804688 921.035156 292.441406 922.28125 C 296.488281 924.5625 300.847656 926.46875 305.179688 928.210938 C 305.710938 928.503906 306.582031 928.332031 306.398438 927.578125 C 306.039062 926.855469 305.382812 926.320312 304.894531 925.683594 C 303.421875 924.042969 302.136719 922.234375 300.769531 920.5 C 298.851562 918.074219 296.925781 915.65625 295.195312 913.082031 C 293.300781 910.226562 290.941406 907.582031 287.875 906.113281 C 285.21875 904.144531 282.101562 902.753906 278.738281 903.511719 C 277.605469 903.769531 276.324219 904.03125 275.347656 904.710938 C 274.714844 904.132812 274.117188 903.519531 273.515625 902.917969 C 272.113281 901.300781 270.246094 900.011719 268.214844 899.140625 C 270.386719 899.222656 272.554688 899.367188 274.707031 899.660156 C 283.996094 900.847656 293.238281 902.753906 302.453125 902.320312 C 302.589844 902.316406 302.734375 902.316406 302.851562 902.328125 C 303.945312 902.453125 305.09375 902.59375 306.183594 902.851562 C 308.601562 903.386719 310.65625 904.75 312.789062 905.921875 C 312.433594 906.296875 312.605469 907.167969 312.753906 907.625 C 313.324219 909.519531 314.394531 911.328125 316.070312 912.40625 C 320.945312 915.53125 327.007812 916.226562 332.679688 915.425781 C 336.84375 915.203125 341.046875 915.726562 345.175781 916.378906 C 347.386719 916.734375 349.613281 916.9375 351.839844 917.195312 C 352.339844 917.191406 352.546875 916.503906 352.144531 916.214844 " fill-opacity="1" fill-rule="nonzero"/></g></g></g></g><g clip-path="url(#ed7897fbd5)"><g clip-path="url(#655178730d)"><g clip-path="url(#1a1effc7fa)"><path fill="#361c37" d="M 379.15625 751.546875 C 379.652344 751.832031 379.851562 751.085938 380.210938 750.871094 C 380.601562 750.484375 381.074219 750.1875 381.441406 749.789062 C 381.511719 749.636719 381.496094 749.46875 381.375 749.351562 C 381.214844 748.671875 380.523438 749.199219 380.234375 749.507812 C 380.40625 749 380.398438 748.046875 379.640625 748.160156 C 378.949219 748.273438 378.765625 751.140625 379.15625 751.546875 " fill-opacity="1" fill-rule="nonzero"/></g></g></g><g clip-path="url(#67446254f1)"><g clip-path="url(#969f6ae99e)"><g clip-path="url(#3758bbd490)"><path fill="#361c37" d="M 171.6875 705.253906 C 171.855469 705.332031 172.0625 705.273438 172.164062 705.117188 C 173.023438 703.878906 174.183594 702.917969 175.371094 701.957031 C 176.621094 701.152344 177.230469 698.332031 174.964844 699.070312 C 175.234375 698.457031 175.144531 697.417969 174.242188 697.640625 C 172.183594 698.441406 170.664062 703.257812 171.328125 705.199219 C 171.429688 705.285156 171.570312 705.292969 171.6875 705.253906 " fill-opacity="1" fill-rule="nonzero"/></g></g></g><g clip-path="url(#4662851130)"><g clip-path="url(#796a8bc4c2)"><g clip-path="url(#d413714744)"><path fill="#361c37" d="M 167.386719 717.101562 C 168.175781 715.382812 169.710938 713.773438 169.636719 711.804688 C 169.195312 710.8125 167.882812 711.757812 167.375 712.265625 C 167.53125 709.183594 165.660156 710.847656 165.277344 712.695312 C 164.734375 714.640625 165.117188 716.847656 166.109375 718.585938 C 166.207031 718.933594 166.765625 718.871094 166.792969 718.507812 C 166.847656 717.976562 167.117188 717.582031 167.386719 717.101562 " fill-opacity="1" fill-rule="nonzero"/></g></g></g><g clip-path="url(#d016fb13bd)"><g clip-path="url(#5497b59ae6)"><g clip-path="url(#8b72c8c830)"><path fill="#361c37" d="M 175.972656 709.632812 C 177.070312 708.113281 176.019531 707.0625 174.476562 708.039062 C 172.769531 709.53125 173.207031 712.140625 172.199219 713.988281 L 172.128906 714.042969 C 171.992188 714.167969 171.992188 714.410156 172.128906 714.550781 C 172.261719 714.691406 172.484375 714.679688 172.636719 714.550781 C 173.550781 713.789062 174.703125 713.355469 175.660156 712.613281 C 176.222656 712.179688 176.824219 711.667969 177.042969 710.960938 C 177.273438 710.230469 176.753906 709.503906 175.972656 709.632812 " fill-opacity="1" fill-rule="nonzero"/></g></g></g><g clip-path="url(#36c6bf63cd)"><g clip-path="url(#0411b2d54e)"><g clip-path="url(#8e60b130f1)"><path fill="#361c37" d="M 175.128906 787.828125 C 173.9375 787.78125 173.570312 790.011719 173.664062 791.269531 C 173.648438 791.515625 173.671875 791.765625 173.660156 792 C 173.632812 792.171875 173.585938 792.375 173.734375 792.523438 C 173.824219 792.601562 173.9375 792.636719 174.054688 792.621094 C 174.640625 792.332031 175.144531 791.832031 175.640625 791.398438 C 175.726562 791.339844 175.761719 791.226562 175.761719 791.132812 C 175.859375 791.050781 175.949219 790.984375 176.027344 790.890625 C 176.792969 790.257812 177.140625 788.324219 175.636719 788.695312 C 175.660156 788.347656 175.503906 787.925781 175.128906 787.828125 " fill-opacity="1" fill-rule="nonzero"/></g></g></g><g clip-path="url(#170386fa66)"><g clip-path="url(#c099fcafd2)"><g clip-path="url(#aab6479e34)"><path fill="#361c37" d="M 193.933594 751.847656 C 193.964844 751.933594 194.007812 751.996094 194.089844 752.042969 C 194.261719 752.148438 194.480469 752.085938 194.582031 751.925781 C 195.640625 750.816406 196.765625 749.753906 197.574219 748.433594 C 198.304688 747.261719 197.210938 746.507812 196.164062 747.308594 C 196.316406 745.585938 194.773438 745.789062 194.015625 746.917969 C 193.09375 748.265625 192.984375 750.519531 193.933594 751.847656 " fill-opacity="1" fill-rule="nonzero"/></g></g></g><g clip-path="url(#67f8c976b3)"><g clip-path="url(#1ab1e36a99)"><g clip-path="url(#4376da3235)"><path fill="#361c37" d="M 224.007812 723.714844 C 224.410156 722.75 224.949219 721.605469 224.386719 720.597656 C 224.019531 719.953125 223.058594 720.117188 222.679688 720.679688 C 222.492188 719.761719 221.578125 719.777344 221.042969 720.402344 C 219.886719 721.957031 221.089844 725.605469 222.515625 726.675781 C 222.6875 726.945312 223.128906 726.828125 223.164062 726.5 C 223.265625 725.539062 223.679688 724.644531 224.007812 723.714844 " fill-opacity="1" fill-rule="nonzero"/></g></g></g><g clip-path="url(#de0b259f70)"><g clip-path="url(#852048633c)"><g clip-path="url(#82042c7a62)"><path fill="#361c37" d="M 231.25 718.21875 C 231.183594 717.421875 230.253906 717.359375 229.753906 717.804688 C 228.769531 718.90625 229.359375 720.597656 229.476562 721.90625 C 229.507812 722.1875 229.910156 722.304688 230.09375 722.097656 C 230.621094 721.964844 230.773438 721.230469 231.140625 720.832031 C 231.578125 720.164062 232.785156 718.226562 231.25 718.21875 " fill-opacity="1" fill-rule="nonzero"/></g></g></g><g clip-path="url(#9abf5f7b41)"><g clip-path="url(#694e34b2d5)"><g clip-path="url(#2518ba3d30)"><path fill="#361c37" d="M 260.777344 717.882812 C 261.617188 715.230469 259.910156 714.859375 258.242188 716.691406 C 256.464844 718.570312 255.816406 721.191406 254.957031 723.566406 C 254.886719 723.886719 254.632812 724.292969 254.902344 724.578125 C 255.113281 724.800781 255.539062 724.636719 255.625 724.363281 C 256.167969 724.421875 256.554688 723.792969 257.015625 723.566406 C 258.644531 722.503906 260.609375 721.734375 261.972656 720.269531 C 263.265625 719.019531 262.703125 717.234375 260.777344 717.882812 " fill-opacity="1" fill-rule="nonzero"/></g></g></g><g clip-path="url(#6b121fa4b0)"><g clip-path="url(#9d2cceeaa7)"><g clip-path="url(#21977fc7d8)"><path fill="#361c37" d="M 270.703125 721.238281 C 270.898438 720.90625 270.886719 720.445312 270.644531 720.136719 C 269.609375 719.324219 267.925781 721.25 267.253906 721.960938 C 266.917969 722.511719 265.082031 723.421875 266.042969 724.019531 C 266.128906 724.136719 266.261719 724.207031 266.398438 724.175781 C 268.058594 723.839844 269.941406 724.039062 271.382812 723.003906 C 272.1875 722.394531 271.582031 721.3125 270.703125 721.238281 " fill-opacity="1" fill-rule="nonzero"/></g></g></g><g clip-path="url(#1ee597857f)"><g clip-path="url(#87ffe7d2ab)"><g clip-path="url(#371ca85d41)"><path fill="#361c37" d="M 273.238281 710.257812 C 273.445312 709.8125 273.433594 709.082031 272.875 708.933594 C 272.375 708.84375 271.949219 709.277344 271.558594 709.527344 C 270.332031 710.601562 269.203125 712.183594 268.960938 713.800781 C 268.933594 713.90625 268.957031 714.027344 269.027344 714.117188 C 269.140625 714.277344 269.371094 714.296875 269.527344 714.183594 C 270.757812 713.339844 272.183594 712.9375 273.546875 712.355469 C 274.914062 711.867188 275.011719 709.902344 273.238281 710.257812 " fill-opacity="1" fill-rule="nonzero"/></g></g></g><g clip-path="url(#c9160e167d)"><g clip-path="url(#cec052a085)"><g clip-path="url(#a4c6c36d6e)"><path fill="#361c37" d="M 342.1875 772.179688 C 341.992188 771.253906 340.984375 770.898438 340.570312 771.644531 C 340.515625 771.75 340.460938 771.867188 340.433594 772.011719 C 340.109375 771.5625 339.390625 771.367188 339.003906 771.847656 C 338.25 773.25 340.265625 775.742188 341.0625 776.917969 C 341.226562 777.222656 341.714844 777.332031 341.832031 776.929688 C 342.144531 776.730469 342.015625 776.257812 342.085938 775.9375 C 342.273438 774.703125 342.585938 773.417969 342.1875 772.179688 " fill-opacity="1" fill-rule="nonzero"/></g></g></g><g clip-path="url(#4aee77eebb)"><g clip-path="url(#1325fda7de)"><g clip-path="url(#c724888be7)"><path fill="#361c37" d="M 344.796875 764.210938 C 345.007812 764.554688 345.542969 764.382812 345.488281 763.976562 C 345.535156 763.601562 345.675781 763.253906 345.816406 762.847656 C 346.039062 762.15625 346.363281 761.359375 345.988281 760.65625 C 345.734375 760.171875 345.066406 760.292969 344.84375 760.746094 C 344.371094 760.296875 343.710938 760.761719 343.632812 761.332031 C 343.496094 762.042969 343.933594 763.785156 344.78125 763.828125 C 344.710938 763.949219 344.726562 764.09375 344.796875 764.210938 " fill-opacity="1" fill-rule="nonzero"/></g></g></g><g clip-path="url(#5bc3497c32)"><g clip-path="url(#5873c44f56)"><g clip-path="url(#457848612b)"><path fill="#361c37" d="M 370.25 758.113281 C 370.191406 758.148438 370.125 758.175781 370.089844 758.238281 C 369.992188 758.410156 370.058594 758.632812 370.230469 758.730469 C 370.292969 758.765625 370.355469 758.746094 370.417969 758.753906 C 370.433594 758.777344 370.4375 758.816406 370.46875 758.835938 C 371.304688 759.230469 371.863281 757.738281 372.269531 757.199219 C 372.296875 757.171875 372.277344 757.136719 372.277344 757.109375 C 372.851562 756.464844 373.417969 755.75 373.550781 754.910156 C 373.566406 754.132812 372.632812 754.082031 372.167969 754.507812 C 372.074219 753.46875 370.988281 753.546875 370.515625 754.300781 C 369.832031 755.417969 369.925781 756.796875 370.214844 758.011719 C 370.222656 758.042969 370.246094 758.070312 370.25 758.113281 " fill-opacity="1" fill-rule="nonzero"/></g></g></g><g clip-path="url(#4daf68ffef)"><g clip-path="url(#f673cfdcd7)"><g clip-path="url(#d67dafb7f5)"><path fill="#361c37" d="M 349.085938 807.949219 C 349.914062 807.953125 350.8125 808.0625 351.566406 807.625 C 352.300781 807.242188 352.195312 806.316406 351.476562 805.996094 C 351.882812 805.792969 352.574219 805.441406 352.296875 804.898438 C 351.976562 804.535156 351.203125 804.628906 350.316406 804.925781 C 350.230469 804.890625 350.136719 804.894531 350.046875 804.9375 C 349.515625 805.191406 349.003906 805.441406 348.484375 805.703125 C 347.851562 806.074219 345.550781 806.96875 346.269531 807.886719 C 346.417969 808.035156 346.621094 808.027344 346.761719 807.945312 C 347.523438 807.871094 348.320312 807.925781 349.085938 807.949219 " fill-opacity="1" fill-rule="nonzero"/></g></g></g><g clip-path="url(#6d5c851afc)"><g clip-path="url(#5f941ccc5a)"><g clip-path="url(#1d17200bbe)"><path fill="#361c37" d="M 348.035156 779.953125 C 348.457031 780.226562 348.671875 779.890625 348.8125 779.488281 C 349.042969 779.09375 349.179688 778.511719 349.304688 778.261719 C 349.4375 777.707031 349.808594 776.988281 349.320312 776.519531 C 349.015625 776.175781 348.621094 776.332031 348.378906 776.625 C 348.351562 776.433594 348.289062 776.230469 348.144531 776.105469 C 347.917969 775.863281 347.515625 775.933594 347.332031 776.195312 C 347.003906 776.667969 347.152344 777.269531 347.265625 777.789062 C 347.433594 778.523438 347.636719 779.289062 348.035156 779.953125 " fill-opacity="1" fill-rule="nonzero"/></g></g></g><g clip-path="url(#eaff9cac34)"><g clip-path="url(#a387741032)"><g clip-path="url(#fc33417a56)"><path fill="#361c37" d="M 358.316406 811.296875 C 358.851562 811.03125 359.246094 810.417969 358.769531 809.902344 C 358.664062 809.828125 358.511719 809.8125 358.382812 809.78125 C 357.570312 809.289062 354.820312 810.390625 354.371094 811.128906 C 354.351562 811.1875 354.269531 811.261719 354.273438 811.304688 C 354.269531 811.339844 354.300781 811.359375 354.308594 811.390625 L 354.285156 811.457031 C 354.296875 811.503906 354.34375 811.515625 354.371094 811.542969 C 354.621094 811.910156 355.3125 811.675781 355.710938 811.925781 C 356.300781 812.183594 356.859375 812.574219 357.550781 812.4375 C 358.074219 812.339844 358.527344 811.785156 358.316406 811.296875 " fill-opacity="1" fill-rule="nonzero"/></g></g></g></svg>