<svg xmlns="http://www.w3.org/2000/svg" xmlns:xlink="http://www.w3.org/1999/xlink" width="1920" zoomAndPan="magnify" viewBox="0 0 1440 809.999993" height="1080" preserveAspectRatio="xMidYMid meet" version="1.0"><path fill="#462255" d="M 1583.769531 942.628906 L 1583.769531 405.394531 C 1544.941406 418.507812 1511.574219 446.472656 1488.878906 480.804688 C 1472.359375 505.789062 1460.765625 534.398438 1439.914062 555.890625 C 1397.183594 599.972656 1327.410156 602.972656 1266.957031 592.214844 C 1206.527344 581.457031 1146.652344 559.898438 1085.515625 565.472656 C 985.074219 574.644531 906.683594 653.4375 814.730469 694.882812 C 792.851562 704.742188 769.28125 712.628906 745.320312 711.085938 C 699.847656 708.128906 663.890625 672.8125 622.101562 654.640625 C 488.46875 596.523438 326.269531 720.769531 193 661.839844 C 149.195312 642.46875 113.859375 604.730469 67.292969 593.585938 C 34.484375 585.722656 -0.015625 592.152344 -33.597656 588.828125 C -36.574219 588.527344 -39.574219 588.078125 -42.574219 587.542969 L -42.574219 942.585938 L 1583.769531 942.585938 Z M 1583.769531 942.628906 " fill-opacity="1" fill-rule="nonzero"/></svg>