<svg xmlns="http://www.w3.org/2000/svg" xmlns:xlink="http://www.w3.org/1999/xlink" width="1440" zoomAndPan="magnify" viewBox="0 0 1080 607.499987" height="810" preserveAspectRatio="xMidYMid meet" version="1.0"><defs><clipPath id="859a0d708a"><path d="M 0.445312 459 L 1079.554688 459 L 1079.554688 607 L 0.445312 607 Z M 0.445312 459 " clip-rule="nonzero"/></clipPath></defs><g clip-path="url(#859a0d708a)"><path fill="#462255" d="M 1064.015625 460.945312 C 1030.523438 462.097656 990.304688 464.898438 990.304688 466.085938 C 990.304688 466.585938 985.207031 467.378906 978.984375 467.851562 C 950.433594 470.015625 871.824219 480.601562 867.746094 482.832031 C 866.511719 483.503906 856.484375 485.582031 845.457031 487.445312 C 818.472656 492.003906 787.199219 498.222656 784.027344 499.660156 C 781.992188 500.578125 732.980469 511.839844 717.421875 514.960938 C 715.640625 515.320312 713.898438 515.996094 713.542969 516.464844 C 713.191406 516.933594 699.542969 520.628906 683.230469 524.675781 C 666.910156 528.71875 653.238281 532.484375 652.835938 533.042969 C 652.4375 533.601562 646 535.648438 638.535156 537.597656 C 607.929688 545.578125 596.679688 548.777344 592.8125 550.605469 C 590.574219 551.664062 586.996094 552.917969 584.863281 553.390625 C 582.726562 553.867188 578.359375 555.023438 575.160156 555.957031 C 571.960938 556.890625 562.359375 559.535156 553.824219 561.828125 C 545.285156 564.121094 538.011719 566.375 537.660156 566.839844 C 537.300781 567.300781 532.355469 568.972656 526.664062 570.554688 C 520.972656 572.136719 508.753906 575.535156 499.507812 578.113281 C 490.257812 580.683594 482.113281 583.234375 481.402344 583.777344 C 480.6875 584.324219 468.175781 588.089844 453.597656 592.15625 C 439.015625 596.21875 426.46875 600.046875 425.714844 600.664062 C 424.964844 601.277344 421.183594 602.628906 417.308594 603.664062 C 383.660156 612.675781 370.085938 616.5625 369.535156 617.335938 C 369.179688 617.832031 354.917969 621.675781 337.847656 625.878906 C 320.773438 630.070312 306.519531 633.882812 306.160156 634.339844 C 305.804688 634.796875 302.605469 635.816406 299.050781 636.605469 C 295.496094 637.394531 279.492188 640.941406 263.488281 644.488281 C 247.476562 648.035156 230.894531 651.828125 226.625 652.914062 C 218.125 655.089844 172.324219 662.96875 154.851562 665.269531 C 148.808594 666.066406 139.492188 667.527344 134.160156 668.527344 C 100.777344 674.753906 14.851562 674.707031 -15.859375 668.445312 C -21.199219 667.359375 -32.835938 665.035156 -41.722656 663.289062 C -64.054688 658.902344 -77.902344 654.964844 -91.417969 649.160156 C -102.402344 644.441406 -103.023438 644.320312 -104.675781 646.585938 C -106.121094 648.554688 -106.355469 700.199219 -106.078125 952.285156 C -105.699219 1294.515625 -106.707031 1262.898438 -96.042969 1268.226562 C -91.746094 1270.375 -53.550781 1270.476562 658.878906 1270.171875 L 1409.277344 1269.847656 L 1419.019531 1260.105469 L 1419.019531 574.070312 L 1416.371094 569.953125 C 1407.90625 556.804688 1378.527344 532.382812 1358.117188 521.539062 C 1353.917969 519.304688 1350.1875 517.074219 1349.832031 516.582031 C 1349.476562 516.085938 1344.820312 513.609375 1339.484375 511.066406 C 1334.148438 508.53125 1324.835938 504.089844 1318.796875 501.195312 C 1307.710938 495.898438 1274.722656 484.234375 1270.722656 484.203125 C 1269.539062 484.195312 1268.375 483.648438 1268.136719 482.996094 C 1267.222656 480.476562 1202.109375 467.378906 1190.480469 467.378906 C 1188.5 467.378906 1186.882812 466.886719 1186.882812 466.292969 C 1186.882812 464.285156 1105.179688 458.722656 1092.46875 459.867188 C 1091.402344 459.960938 1078.597656 460.449219 1064.015625 460.945312 " fill-opacity="1" fill-rule="evenodd"/></g></svg>