<svg xmlns="http://www.w3.org/2000/svg" xmlns:xlink="http://www.w3.org/1999/xlink" width="1440" zoomAndPan="magnify" viewBox="0 0 1080 607.499987" height="810" preserveAspectRatio="xMidYMid meet" version="1.0"><defs><clipPath id="f027d3a29e"><path d="M 0.445312 426 L 1079.554688 426 L 1079.554688 607 L 0.445312 607 Z M 0.445312 426 " clip-rule="nonzero"/></clipPath></defs><g clip-path="url(#f027d3a29e)"><path fill="#462255" d="M -87.039062 439.503906 L -33.847656 433.40625 C 19.347656 427.164062 125.734375 414.96875 232.121094 457.945312 C 338.507812 500.917969 444.894531 599.347656 551.28125 638.777344 C 657.667969 678.203125 764.054688 658.914062 870.441406 624.875 C 976.824219 590.835938 1083.210938 542.046875 1136.40625 517.796875 L 1189.597656 493.398438 L 1189.597656 768.546875 L 1136.40625 768.546875 C 1083.210938 768.546875 976.824219 768.546875 870.441406 768.546875 C 764.054688 768.546875 657.667969 768.546875 551.28125 768.546875 C 444.894531 768.546875 338.507812 768.546875 232.121094 768.546875 C 125.734375 768.546875 19.347656 768.546875 -33.847656 768.546875 L -87.039062 768.546875 Z M -87.039062 439.503906 " fill-opacity="1" fill-rule="nonzero"/></g></svg>